<svg width="23" height="22" viewBox="0 0 23 22" fill="none" xmlns="http://www.w3.org/2000/svg">
<path d="M11.7685 5.38965C14.8447 5.38965 17.3838 7.92871 17.3838 11.0049C17.3838 14.1299 14.8447 16.6201 11.7685 16.6201C8.64353 16.6201 6.1533 14.1299 6.1533 11.0049C6.1533 7.92871 8.64353 5.38965 11.7685 5.38965ZM11.7685 14.667C13.7705 14.667 15.3818 13.0557 15.3818 11.0049C15.3818 9.00293 13.7705 7.3916 11.7685 7.3916C9.71775 7.3916 8.10642 9.00293 8.10642 11.0049C8.10642 13.0557 9.76658 14.667 11.7685 14.667ZM18.8974 5.19434C18.8974 5.92676 18.3115 6.5127 17.5791 6.5127C16.8467 6.5127 16.2607 5.92676 16.2607 5.19434C16.2607 4.46191 16.8467 3.87598 17.5791 3.87598C18.3115 3.87598 18.8974 4.46191 18.8974 5.19434ZM22.6084 6.5127C22.706 8.31934 22.706 13.7393 22.6084 15.5459C22.5107 17.3037 22.1201 18.8174 20.8506 20.1357C19.581 21.4053 18.0185 21.7959 16.2607 21.8936C14.4541 21.9912 9.03416 21.9912 7.22752 21.8936C5.4697 21.7959 3.95603 21.4053 2.63767 20.1357C1.36814 18.8174 0.977515 17.3037 0.879859 15.5459C0.782203 13.7393 0.782203 8.31934 0.879859 6.5127C0.977515 4.75488 1.36814 3.19238 2.63767 1.92285C3.95603 0.65332 5.4697 0.262695 7.22752 0.165039C9.03416 0.0673828 14.4541 0.0673828 16.2607 0.165039C18.0185 0.262695 19.581 0.65332 20.8506 1.92285C22.1201 3.19238 22.5107 4.75488 22.6084 6.5127ZM20.2646 17.4502C20.8506 16.0342 20.7041 12.6162 20.7041 11.0049C20.7041 9.44238 20.8506 6.02441 20.2646 4.55957C19.874 3.63184 19.1416 2.85059 18.2138 2.50879C16.749 1.92285 13.331 2.06934 11.7685 2.06934C10.1572 2.06934 6.73923 1.92285 5.32322 2.50879C4.34666 2.89941 3.61423 3.63184 3.22361 4.55957C2.63767 6.02441 2.78416 9.44238 2.78416 11.0049C2.78416 12.6162 2.63767 16.0342 3.22361 17.4502C3.61423 18.4268 4.34666 19.1592 5.32322 19.5498C6.73923 20.1357 10.1572 19.9893 11.7685 19.9893C13.331 19.9893 16.749 20.1357 18.2138 19.5498C19.1416 19.1592 19.9228 18.4268 20.2646 17.4502Z" fill="white"/>
</svg>
