<svg width="26" height="22" viewBox="0 0 26 22" fill="none" xmlns="http://www.w3.org/2000/svg">
<path d="M22.6803 5.92676C22.6803 6.1709 22.6803 6.36621 22.6803 6.61035C22.6803 13.3975 17.5534 21.1611 8.12954 21.1611C5.19985 21.1611 2.51431 20.3311 0.268213 18.8662C0.658838 18.915 1.04946 18.9639 1.48892 18.9639C3.88149 18.9639 6.07876 18.1338 7.83657 16.7666C5.59048 16.7178 3.68618 15.2529 3.05142 13.2021C3.39321 13.251 3.68618 13.2998 4.02798 13.2998C4.46743 13.2998 4.95571 13.2021 5.34634 13.1045C3.00259 12.6162 1.24478 10.5654 1.24478 8.0752V8.02637C1.92837 8.41699 2.75845 8.6123 3.58853 8.66113C2.17251 7.7334 1.2936 6.1709 1.2936 4.41309C1.2936 3.43652 1.53774 2.55762 1.9772 1.8252C4.51626 4.90137 8.32485 6.95215 12.5729 7.19629C12.4752 6.80566 12.4264 6.41504 12.4264 6.02441C12.4264 3.19238 14.7213 0.897461 17.5534 0.897461C19.0182 0.897461 20.3366 1.4834 21.3131 2.50879C22.4362 2.26465 23.5592 1.8252 24.5358 1.23926C24.1452 2.45996 23.3639 3.43652 22.2897 4.07129C23.3151 3.97363 24.3405 3.68066 25.2194 3.29004C24.5358 4.31543 23.6569 5.19434 22.6803 5.92676Z" fill="white"/>
</svg>
