<svg width="28" height="20" viewBox="0 0 28 20" fill="none" xmlns="http://www.w3.org/2000/svg">
<path d="M26.5271 3.6084C27.113 5.65918 27.113 10.0537 27.113 10.0537C27.113 10.0537 27.113 14.3994 26.5271 16.499C26.2341 17.6709 25.3064 18.5498 24.1833 18.8428C22.0837 19.3799 13.7829 19.3799 13.7829 19.3799C13.7829 19.3799 5.43333 19.3799 3.33372 18.8428C2.21067 18.5498 1.28294 17.6709 0.989966 16.499C0.404029 14.3994 0.404029 10.0537 0.404029 10.0537C0.404029 10.0537 0.404029 5.65918 0.989966 3.6084C1.28294 2.43652 2.21067 1.50879 3.33372 1.21582C5.43333 0.629883 13.7829 0.629883 13.7829 0.629883C13.7829 0.629883 22.0837 0.629883 24.1833 1.21582C25.3064 1.50879 26.2341 2.43652 26.5271 3.6084ZM11.0486 14.0088L17.9822 10.0537L11.0486 6.09863V14.0088Z" fill="white"/>
</svg>
