<svg width="105" height="20" viewBox="0 0 105 20" fill="none" xmlns="http://www.w3.org/2000/svg">
<path d="M8.66667 0H21L17 9.5L12.5 20H0L4.66667 9.5L8.66667 0Z" fill="#F77F00"/>
<path d="M29.6667 0H42L38 9.5L33.5 20H21L25.6667 9.5L29.6667 0Z" fill="#F77F00"/>
<path d="M50.6667 0H63L59 9.5L54.5 20H42L46.6667 9.5L50.6667 0Z" fill="#F77F00"/>
<path d="M71.6667 0H84L80 9.5L75.5 20H63L67.6667 9.5L71.6667 0Z" fill="#F77F00"/>
<path d="M92.6667 0H105L101 9.5L96.5 20H84L88.6667 9.5L92.6667 0Z" fill="#F77F00"/>
</svg>
