<svg width="51" height="51" viewBox="0 0 51 51" fill="none" xmlns="http://www.w3.org/2000/svg">
<path d="M47.9544 43.0259L48.0521 38.1919C48.0521 38.1593 48.0114 37.6141 47.93 36.5562C47.8486 35.4982 47.5801 34.3182 47.1243 33.0161L44.5364 26.9126H40.2396L37.554 33.1138C37.1634 34.3507 36.9274 35.4982 36.846 36.5562C36.7646 37.6141 36.7239 38.1593 36.7239 38.1919V39.8032H34.3314C33.6803 39.8032 33.1188 39.5672 32.6468 39.0952C32.1748 38.6232 31.9388 38.0617 31.9388 37.4106V33.9927C33.8919 32.8859 35.4625 31.3478 36.6507 29.3784C37.8388 27.409 38.4329 25.2199 38.4329 22.811V22.7134C39.1491 22.5181 39.7269 22.1356 40.1663 21.5659C40.6058 20.9963 40.8255 20.3371 40.8255 19.5884C40.8255 18.8397 40.7278 18.2375 40.5325 17.7817C40.3372 17.326 40.1419 17.0005 39.9466 16.8052C39.9466 16.7401 39.9466 16.6668 39.9466 16.5854C39.9466 16.5041 39.9466 16.4146 39.9466 16.3169V14.7056C39.914 12.7199 39.5071 10.8319 38.7259 9.0415C37.9772 7.28369 36.9437 5.75374 35.6253 4.45166C34.3069 3.14958 32.7689 2.10791 31.011 1.32666C29.2207 0.577961 27.3327 0.203613 25.347 0.203613C23.3613 0.203613 21.4733 0.577961 19.6829 1.32666C17.9251 2.10791 16.3952 3.14958 15.0931 4.45166C13.791 5.75374 12.7493 7.28369 11.9681 9.0415C11.2194 10.8319 10.845 12.7199 10.845 14.7056V16.3169C10.845 16.4146 10.845 16.4959 10.845 16.561C10.845 16.6261 10.845 16.7075 10.845 16.8052C10.6823 17.0005 10.4951 17.326 10.2835 17.7817C10.0719 18.2375 9.96613 18.8397 9.96613 19.5884C9.96613 20.3371 10.1859 21.0044 10.6253 21.5903C11.0648 22.1763 11.6426 22.5506 12.3587 22.7134V22.811C12.3587 25.2199 12.9528 27.4009 14.1409 29.354C15.3291 31.3071 16.8997 32.8534 18.8528 33.9927V37.4106C18.8528 38.0617 18.6168 38.6232 18.1448 39.0952C17.6728 39.5672 17.1113 39.8032 16.4603 39.8032H12.4564V38.6802C13.2376 38.1919 13.8317 37.5734 14.2386 36.8247C14.6455 36.076 14.8489 35.1971 14.8489 34.188C14.8489 33.2114 14.5234 32.2349 13.8724 31.2583C13.2213 30.2817 12.2448 29.6632 10.9427 29.4028L9.96613 29.2075V33.4067H8.45245V29.2075L7.42706 29.4028C6.19008 29.6958 5.23794 30.3306 4.57062 31.3071C3.9033 32.2837 3.56964 33.244 3.56964 34.188C3.56964 35.1971 3.76495 36.076 4.15558 36.8247C4.5462 37.5734 5.14842 38.1919 5.96222 38.6802V40.6821C4.30206 41.4308 2.95115 42.5864 1.90948 44.1489C0.867818 45.7114 0.346985 47.4692 0.346985 49.4224V50.2036H1.95831V49.4224C1.95831 47.3065 2.65818 45.4917 4.05792 43.978C5.45766 42.4644 7.18292 41.6099 9.2337 41.4146V50.2036H10.845V41.3169H13.2376V50.2036H14.8489V41.3169H16.4603C16.5905 41.3169 16.737 41.3006 16.8997 41.2681C17.0625 41.2355 17.2415 41.2192 17.4368 41.2192C17.7949 43.0747 18.7145 44.6372 20.1956 45.9067C21.6767 47.1763 23.3939 47.811 25.347 47.811C27.3001 47.811 29.0172 47.1844 30.4984 45.9312C31.9795 44.6779 32.8991 43.1073 33.2571 41.2192C33.3873 41.2518 33.5338 41.2762 33.6966 41.2925C33.8594 41.3088 34.0384 41.3169 34.2337 41.3169H35.845V50.2036H37.4564V41.3169H39.8489V50.2036H41.4603V41.4146C43.511 41.6099 45.2363 42.4806 46.636 44.0269C48.0358 45.5731 48.7357 47.3716 48.7357 49.4224V50.2036H50.347V49.4224C50.347 48.2179 50.1354 47.0623 49.7122 45.9556C49.289 44.8488 48.7031 43.8722 47.9544 43.0259ZM11.2357 37.4106L10.845 37.606V39.7056H10.0638C9.6406 39.7056 9.2337 39.73 8.84308 39.7788C8.45245 39.8276 8.06183 39.9009 7.6712 39.9985V37.606L7.23175 37.4106C6.58071 37.0526 6.08429 36.6131 5.74249 36.0923C5.4007 35.5715 5.2298 34.9041 5.2298 34.0903C5.2298 33.6021 5.37628 33.0894 5.66925 32.5522C5.96222 32.0151 6.35284 31.5675 6.84113 31.2095V34.9204H11.6263V31.2095C12.1797 31.5024 12.5866 31.9175 12.847 32.4546C13.1074 32.9917 13.2376 33.5369 13.2376 34.0903C13.2376 34.9041 13.083 35.5877 12.7737 36.1411C12.4645 36.6945 11.9518 37.1177 11.2357 37.4106ZM38.2376 18.9048C38.3353 18.8397 38.4329 18.7664 38.5306 18.6851C38.6282 18.6037 38.7259 18.5142 38.8235 18.4165C38.8887 18.5467 38.9456 18.7176 38.9944 18.9292C39.0433 19.1408 39.0677 19.3605 39.0677 19.5884C39.0677 19.9139 38.9944 20.1906 38.848 20.4185C38.7015 20.6463 38.498 20.8416 38.2376 21.0044V18.9048ZM24.5657 1.9126V7.52783H26.1282V1.9126C27.7884 2.01025 29.3509 2.40088 30.8157 3.08447C32.248 3.76807 33.5094 4.66325 34.5999 5.77002C35.6904 6.87679 36.5612 8.1626 37.2122 9.62744C37.8633 11.0923 38.2051 12.6548 38.2376 14.3149C36.8053 13.5662 34.7952 13.0454 32.2073 12.7524C29.6194 12.4595 27.3327 12.313 25.347 12.313C23.3613 12.313 21.0745 12.4595 18.4866 12.7524C15.8987 13.0454 13.8887 13.5662 12.4564 14.3149C12.4889 12.6548 12.8307 11.0923 13.4818 9.62744C14.1328 8.1626 15.0036 6.87679 16.0941 5.77002C17.1845 4.66325 18.4459 3.76807 19.8782 3.08447C21.3431 2.40088 22.9056 2.01025 24.5657 1.9126ZM12.4564 21.0044C12.1959 20.8416 11.9925 20.6463 11.846 20.4185C11.6995 20.1906 11.6263 19.9139 11.6263 19.5884C11.6263 19.3605 11.6507 19.1408 11.6995 18.9292C11.7484 18.7176 11.8053 18.5467 11.8704 18.4165C11.9681 18.5142 12.0657 18.5955 12.1634 18.6606C12.261 18.7257 12.3587 18.8071 12.4564 18.9048V21.0044ZM12.4564 16.3169C12.554 15.8937 13.7259 15.3892 15.972 14.8032C18.2181 14.2173 21.3431 13.9243 25.347 13.9243C29.3834 13.9243 32.5329 14.2173 34.7952 14.8032C37.0576 15.3892 38.2051 15.8937 38.2376 16.3169C38.2376 17.0981 37.0983 17.8224 34.8196 18.4897C32.541 19.1571 29.3834 19.4907 25.347 19.4907C21.3105 19.5558 18.153 19.2384 15.8743 18.5386C13.5957 17.8387 12.4564 17.0981 12.4564 16.3169ZM14.0677 22.811V19.686C15.8581 20.3371 17.9088 20.7521 20.22 20.9312C22.5312 21.1102 24.2402 21.1997 25.347 21.1997C26.4538 21.1997 28.1627 21.1265 30.4739 20.98C32.7851 20.8335 34.8359 20.4022 36.6263 19.686V22.811C36.6263 24.341 36.3333 25.8058 35.7474 27.2056C35.1614 28.5728 34.3558 29.769 33.3304 30.7944C32.305 31.8198 31.1087 32.6255 29.7415 33.2114C28.3743 33.7974 26.9095 34.0903 25.347 34.0903C23.7845 34.0903 22.3196 33.7974 20.9525 33.2114C19.5853 32.6255 18.389 31.8198 17.3636 30.7944C16.3382 29.769 15.5325 28.5728 14.9466 27.2056C14.3607 25.8058 14.0677 24.341 14.0677 22.811ZM25.347 46.1997C23.6868 46.1997 22.2545 45.6463 21.0501 44.5396C19.8457 43.4328 19.1458 42.0819 18.9505 40.4868C19.4062 40.1613 19.7887 39.7137 20.098 39.144C20.4072 38.5744 20.5618 37.964 20.5618 37.313V34.7251C21.3105 35.0181 22.0836 35.2541 22.8812 35.4331C23.6787 35.6121 24.5006 35.7017 25.347 35.7017C26.1933 35.7017 27.0153 35.6203 27.8128 35.4575C28.6103 35.2948 29.3834 35.0506 30.1321 34.7251V37.313C30.1321 37.964 30.2786 38.5581 30.5716 39.0952C30.8646 39.6323 31.2552 40.0962 31.7435 40.4868C31.5807 42.0819 30.889 43.4328 29.6683 44.5396C28.4476 45.6463 27.0071 46.1997 25.347 46.1997ZM40.5325 39.7056H38.3353V38.0942C38.3353 38.0942 38.3678 37.6222 38.4329 36.6782C38.498 35.7342 38.7096 34.7088 39.0677 33.6021L41.265 28.4263H41.5579V35.7993C41.1022 35.9621 40.7197 36.2469 40.4105 36.6538C40.1012 37.0607 39.9466 37.5409 39.9466 38.0942C39.8815 38.4523 39.914 38.7616 40.0443 39.022C40.1745 39.2824 40.3372 39.5103 40.5325 39.7056ZM42.3392 38.9243C42.1439 38.9243 41.9648 38.8348 41.8021 38.6558C41.6393 38.4767 41.5579 38.2896 41.5579 38.0942C41.5579 37.8989 41.6393 37.7199 41.8021 37.5571C41.9648 37.3944 42.1439 37.313 42.3392 37.313C42.5345 37.313 42.7217 37.3944 42.9007 37.5571C43.0797 37.7199 43.1693 37.8989 43.1693 38.0942C43.1693 38.2896 43.0797 38.4767 42.9007 38.6558C42.7217 38.8348 42.5345 38.9243 42.3392 38.9243ZM46.3431 41.6099C45.9525 41.3169 45.513 41.0483 45.0247 40.8042C44.5364 40.5601 44.0482 40.3566 43.5599 40.1938C43.8854 39.9985 44.1621 39.7137 44.39 39.3394C44.6178 38.965 44.7318 38.55 44.7318 38.0942C44.7318 37.5409 44.5771 37.0688 44.2679 36.6782C43.9586 36.2876 43.5924 35.9946 43.1693 35.7993V28.4263H43.4622L45.6595 33.5044C46.0501 34.6437 46.278 35.6935 46.3431 36.6538C46.4082 37.6141 46.4407 38.0942 46.4407 38.0942L46.3431 41.6099ZM26.1282 23.5923H33.4525V21.981H24.5657V30.0864H26.1282V23.5923ZM14.8489 10.7017H16.4603V12.313H14.8489V10.7017ZM18.1693 9.92041H19.7318V11.4829H18.1693V9.92041Z" fill="#F77F00"/>
</svg>
