<svg width="55" height="51" viewBox="0 0 55 51" fill="none" xmlns="http://www.w3.org/2000/svg">
<path d="M39.9641 31.0042C40.1594 31.0042 40.3384 30.9309 40.5012 30.7844C40.664 30.6379 40.7453 30.4345 40.7453 30.1741V23.1917C40.7453 22.3778 40.5337 21.6292 40.1106 20.9456C39.6874 20.262 39.1015 19.7411 38.3528 19.3831L32.1516 16.5999C31.9888 16.5347 31.8668 16.4208 31.7854 16.2581C31.704 16.0953 31.6633 15.9325 31.6633 15.7698V13.6702C32.412 13.0842 33.0142 12.3355 33.4699 11.4241C33.9257 10.5126 34.1535 9.53605 34.1535 8.49438V5.17407C34.1535 3.83944 34.007 2.75708 33.7141 1.927C33.4211 1.09692 33.2746 0.681885 33.2746 0.681885C33.1119 0.551678 32.9735 0.437744 32.8596 0.340088C32.7457 0.242432 32.6073 0.193604 32.4445 0.193604H26.1457C25.7551 0.193604 25.3807 0.258709 25.0227 0.388916C24.6646 0.519123 24.3391 0.681885 24.0461 0.877197C24.0461 0.877197 24.0136 0.877197 23.9485 0.877197C23.3951 0.942303 22.7278 1.24341 21.9465 1.78052C21.1653 2.31763 20.7746 3.28605 20.7746 4.68579V8.49438C20.7746 9.53605 21.0025 10.5126 21.4582 11.4241C21.9139 12.3355 22.5162 13.0842 23.2649 13.6702V15.7698C23.2649 15.9325 23.216 16.0953 23.1184 16.2581C23.0207 16.4208 22.9068 16.5347 22.7766 16.5999L16.5754 19.3831C15.8267 19.7411 15.2326 20.2538 14.7932 20.9211C14.3537 21.5885 14.134 22.3453 14.134 23.1917V30.1741C14.134 30.4019 14.2072 30.5972 14.3537 30.76C14.5002 30.9228 14.7037 31.0042 14.9641 31.0042C15.1594 31.0042 15.3384 30.9309 15.5012 30.7844C15.664 30.6379 15.7453 30.4345 15.7453 30.1741V27.9768L18.3332 29.0022V32.2737L16.136 32.6155C15.7128 32.648 15.3384 32.8027 15.0129 33.0793C14.6874 33.356 14.4758 33.7222 14.3781 34.178C14.2154 34.6012 14.1991 35.0162 14.3293 35.4231C14.4595 35.83 14.6711 36.1799 14.9641 36.4729L19.6516 41.0139L18.5774 47.4104C18.5123 47.8336 18.5529 48.2405 18.6994 48.6311C18.8459 49.0217 19.0982 49.3472 19.4563 49.6077C19.8143 49.8355 20.205 49.9739 20.6281 50.0227C21.0513 50.0715 21.4582 49.9983 21.8488 49.803L27.6594 46.7756L33.4699 49.803C33.6001 49.9006 33.7629 49.9739 33.9582 50.0227C34.1535 50.0715 34.3488 50.0959 34.5442 50.0959C34.8046 50.0959 35.0406 50.0634 35.2522 49.9983C35.4638 49.9332 35.6672 49.8355 35.8625 49.7053C36.2206 49.4449 36.481 49.1112 36.6438 48.7043C36.8065 48.2974 36.8391 47.8987 36.7414 47.5081L35.6672 41.1116L40.3547 36.5706C40.6477 36.2776 40.843 35.9277 40.9406 35.5208C41.0383 35.1139 41.0383 34.6988 40.9406 34.2756C40.8104 33.885 40.5826 33.5514 40.257 33.2747C39.9315 32.998 39.5572 32.8108 39.134 32.7131L36.9367 32.3713V29.1975L39.5735 28.7092V30.1741C39.3456 30.4019 39.3049 30.5972 39.4514 30.76C39.5979 30.9228 39.7688 31.0042 39.9641 31.0042ZM22.3371 4.68579C22.3371 4.29517 22.3941 3.96151 22.508 3.68481C22.622 3.40812 22.8091 3.17212 23.0695 2.97681C23.1021 3.07446 23.1509 3.17212 23.216 3.26978C23.2811 3.36743 23.3951 3.41626 23.5578 3.41626C23.7531 3.44881 23.9566 3.41626 24.1682 3.3186C24.3798 3.22095 24.5018 3.07446 24.5344 2.87915C24.632 2.55363 24.8274 2.29321 25.1203 2.0979C25.4133 1.90259 25.7551 1.80493 26.1457 1.80493H31.9563C32.0539 2.03279 32.1679 2.40715 32.2981 2.92798C32.4283 3.44881 32.5097 4.03475 32.5422 4.68579C31.9888 4.8811 31.0936 5.04387 29.8567 5.17407C28.6197 5.30428 27.2199 5.04387 25.6574 4.39282C25.4621 4.32772 25.275 4.32772 25.0959 4.39282C24.9169 4.45793 24.7623 4.55558 24.632 4.68579C24.632 4.68579 24.4449 4.91365 24.0705 5.36938C23.6962 5.82512 23.1509 6.23201 22.4348 6.59009L22.3371 4.68579ZM22.3371 8.49438V8.29907C23.1509 8.03865 23.8264 7.68058 24.3635 7.22485C24.9006 6.76912 25.2994 6.39478 25.5598 6.10181C27.0572 6.65519 28.4081 6.87492 29.6125 6.76099C30.8169 6.64705 31.761 6.49243 32.4445 6.29712V8.49438C32.4445 9.89412 31.9481 11.0904 30.9553 12.0833C29.9625 13.0761 28.7662 13.5725 27.3664 13.5725C25.9992 13.5725 24.8192 13.0761 23.8264 12.0833C22.8335 11.0904 22.3371 9.89412 22.3371 8.49438ZM31.468 18.0159C31.2076 18.8948 30.7112 19.6272 29.9787 20.2131C29.2463 20.7991 28.4081 21.092 27.4641 21.092C26.5201 21.092 25.6737 20.8072 24.925 20.2375C24.1763 19.6679 23.6555 18.9599 23.3625 18.1135H23.4602C23.9159 17.8857 24.2658 17.5683 24.51 17.1614C24.7541 16.7545 24.8762 16.3394 24.8762 15.9163V14.6956C25.2668 14.8583 25.6819 14.9804 26.1213 15.0618C26.5608 15.1431 27.0084 15.1838 27.4641 15.1838C27.9198 15.1838 28.3674 15.1431 28.8069 15.0618C29.2463 14.9804 29.6613 14.8583 30.052 14.6956V15.9163C30.0194 16.3069 30.1334 16.6975 30.3938 17.0881C30.6542 17.4788 31.0123 17.788 31.468 18.0159ZM38.5481 34.178C38.7108 34.178 38.841 34.2268 38.9387 34.3245C39.0363 34.4221 39.1015 34.5523 39.134 34.7151C39.1991 34.8453 39.2072 34.9674 39.1584 35.0813C39.1096 35.1952 39.0363 35.301 38.9387 35.3987L34.0559 40.1838C33.9582 40.2815 33.885 40.3873 33.8362 40.5012C33.7873 40.6152 33.7955 40.7535 33.8606 40.9163L35.0324 47.7034C35.0324 47.8336 35.008 47.9556 34.9592 48.0696C34.9104 48.1835 34.8371 48.2893 34.7395 48.387C34.6418 48.4846 34.5279 48.5416 34.3977 48.5579C34.2675 48.5741 34.121 48.5497 33.9582 48.4846L27.757 45.3108C27.6919 45.2457 27.635 45.2131 27.5862 45.2131C27.5373 45.2131 27.4641 45.2131 27.3664 45.2131C27.2688 45.2131 27.2037 45.2131 27.1711 45.2131C27.1386 45.2131 27.0735 45.2457 26.9758 45.3108L20.8723 48.4846C20.7746 48.5497 20.6526 48.5741 20.5061 48.5579C20.3596 48.5416 20.205 48.4846 20.0422 48.387C19.9445 48.2893 19.8713 48.1835 19.8225 48.0696C19.7737 47.9556 19.7492 47.8336 19.7492 47.7034L20.9699 40.9163C20.9699 40.7535 20.9618 40.6152 20.9455 40.5012C20.9293 40.3873 20.8723 40.2815 20.7746 40.1838L15.843 35.3987C15.7453 35.301 15.6802 35.1871 15.6477 35.0569C15.6151 34.9267 15.6151 34.8127 15.6477 34.7151C15.7128 34.5523 15.7942 34.4384 15.8918 34.3733C15.9895 34.3082 16.1034 34.2431 16.2336 34.178L23.0695 33.2014C23.1998 33.2014 23.3137 33.1607 23.4113 33.0793C23.509 32.998 23.5904 32.9084 23.6555 32.8108L26.7317 26.6096C26.7968 26.4469 26.8944 26.3329 27.0246 26.2678C27.1548 26.2027 27.2688 26.1702 27.3664 26.1702C27.4966 26.1702 27.6187 26.2027 27.7326 26.2678C27.8466 26.3329 27.9198 26.4469 27.9524 26.6096L31.0774 32.8108C31.1099 32.9084 31.175 32.998 31.2727 33.0793C31.3703 33.1607 31.5005 33.2014 31.6633 33.2014L38.5481 34.178ZM39.134 27.0979L36.5461 27.5862V25.1936C36.5461 24.9983 36.4729 24.8193 36.3264 24.6565C36.1799 24.4937 35.9927 24.4124 35.7649 24.4124C35.5695 24.4124 35.3824 24.4775 35.2033 24.6077C35.0243 24.7379 34.9348 24.9332 34.9348 25.1936V28.5139V32.0784L32.3469 31.6877L29.466 25.8772C29.2707 25.4866 28.9859 25.1773 28.6115 24.9495C28.2372 24.7216 27.8547 24.6077 27.4641 24.6077C27.0084 24.6077 26.5933 24.7216 26.219 24.9495C25.8446 25.1773 25.5923 25.4866 25.4621 25.8772L22.5324 31.6877L19.9445 32.0784V28.5139V25.1936C19.9445 24.9983 19.8794 24.8193 19.7492 24.6565C19.619 24.4937 19.4237 24.4124 19.1633 24.4124C18.9029 24.4124 18.6994 24.4775 18.5529 24.6077C18.4065 24.7379 18.3332 24.9332 18.3332 25.1936V27.3909L15.7453 26.4143V23.1917C15.7453 22.7034 15.8837 22.2476 16.1604 21.8245C16.4371 21.4013 16.8033 21.092 17.259 20.8967L22.0442 18.6995C22.4673 19.8388 23.1753 20.7909 24.1682 21.5559C25.161 22.3209 26.2922 22.7034 27.5617 22.7034C28.7987 22.7034 29.9218 22.3372 30.9309 21.6047C31.94 20.8723 32.6561 19.9039 33.0793 18.6995L37.8645 20.8967C38.3202 21.092 38.6864 21.4013 38.9631 21.8245C39.2398 22.2476 39.3781 22.7034 39.3781 23.1917L39.134 27.0979ZM16.8684 41.5999C16.7056 41.4371 16.5184 41.3557 16.3069 41.3557C16.0953 41.3557 15.9081 41.4371 15.7453 41.5999L14.134 43.2112C14.0363 43.3088 13.9712 43.4065 13.9387 43.5042C13.9061 43.6018 13.9061 43.732 13.9387 43.8948L14.7688 48.387C14.7688 48.4521 14.7606 48.5009 14.7444 48.5334C14.7281 48.566 14.7037 48.5823 14.6711 48.5823C14.6711 48.5823 14.6467 48.5986 14.5979 48.6311C14.549 48.6637 14.5084 48.6474 14.4758 48.5823L10.3742 46.4827C10.2766 46.4501 10.1545 46.4338 10.008 46.4338C9.86154 46.4338 9.73947 46.4501 9.64182 46.4827L5.54025 48.5823C5.5077 48.6474 5.46701 48.6637 5.41818 48.6311C5.36935 48.5986 5.34494 48.5823 5.34494 48.5823C5.34494 48.5823 5.32866 48.566 5.29611 48.5334C5.26356 48.5009 5.24728 48.4521 5.24728 48.387L6.07736 43.8948C6.07736 43.732 6.06922 43.6018 6.05295 43.5042C6.03667 43.4065 5.96343 43.3088 5.83322 43.2112L2.56174 39.9885C2.49663 39.956 2.46408 39.9153 2.46408 39.8665C2.46408 39.8176 2.46408 39.7932 2.46408 39.7932C2.46408 39.7281 2.48036 39.6956 2.51291 39.6956C2.54546 39.6956 2.59429 39.6956 2.65939 39.6956L7.24924 39.012C7.412 39.012 7.54221 38.9713 7.63986 38.8899C7.73752 38.8085 7.80262 38.7027 7.83517 38.5725L9.83713 34.4709C9.80458 34.3407 9.79644 34.2594 9.81271 34.2268C9.82899 34.1943 9.83713 34.178 9.83713 34.178C9.83713 34.178 9.86154 34.1861 9.91037 34.2024C9.9592 34.2187 9.99989 34.2431 10.0324 34.2756L11.8391 37.8889C11.9367 38.0842 12.0914 38.2144 12.3029 38.2795C12.5145 38.3446 12.7017 38.3446 12.8645 38.2795C13.0598 38.1819 13.19 38.0273 13.2551 37.8157C13.3202 37.6041 13.3202 37.4332 13.2551 37.303L11.4485 33.6897C11.3182 33.3967 11.1067 33.1607 10.8137 32.9817C10.5207 32.8027 10.1952 32.7131 9.83713 32.7131C9.51161 32.7131 9.20236 32.8027 8.90939 32.9817C8.61642 33.1607 8.40484 33.3967 8.27463 33.6897L6.37033 37.4983L2.17111 38.0842C1.81304 38.1493 1.51193 38.2958 1.26779 38.5237C1.02365 38.7515 0.852753 39.012 0.755096 39.3049C0.65744 39.5979 0.65744 39.9071 0.755096 40.2327C0.852753 40.5582 1.01551 40.8512 1.24338 41.1116L4.27072 43.9924L3.5383 48.094C3.50575 48.4521 3.55458 48.7776 3.68478 49.0706C3.81499 49.3635 4.0103 49.6077 4.27072 49.803C4.40093 49.9006 4.56369 49.9739 4.759 50.0227C4.95432 50.0715 5.11708 50.0959 5.24728 50.0959C5.41004 50.0959 5.55653 50.0715 5.68674 50.0227C5.81695 49.9739 5.94715 49.9332 6.07736 49.9006L9.73947 47.8987L13.4504 49.9006C13.7434 50.0308 14.0608 50.0959 14.4026 50.0959C14.7444 50.0959 15.0617 49.9983 15.3547 49.803C15.6477 49.6077 15.8511 49.3472 15.9651 49.0217C16.079 48.6962 16.1034 48.387 16.0383 48.094L15.3547 43.9924L16.6731 42.6741C16.9009 42.5439 17.023 42.3648 17.0393 42.137C17.0556 41.9091 16.9986 41.7301 16.8684 41.5999ZM54.0754 39.2073C53.9778 38.9143 53.7906 38.6539 53.5139 38.426C53.2372 38.1982 52.9524 38.0517 52.6594 37.9866L48.4602 37.4006L46.5559 33.592C46.3931 33.2991 46.1734 33.0631 45.8967 32.884C45.62 32.705 45.3026 32.6155 44.9445 32.6155C44.5865 32.6155 44.2691 32.705 43.9924 32.884C43.7157 33.0631 43.496 33.2991 43.3332 33.592L41.5754 37.2053C41.4778 37.4006 41.4696 37.6041 41.551 37.8157C41.6324 38.0273 41.7707 38.1493 41.966 38.1819C42.1613 38.2795 42.3648 38.2877 42.5764 38.2063C42.788 38.1249 42.91 37.9866 42.9426 37.7913L44.7492 34.178C44.7492 34.1454 44.7737 34.121 44.8225 34.1047C44.8713 34.0885 44.912 34.0803 44.9445 34.0803C45.0097 34.0803 45.0503 34.0885 45.0666 34.1047C45.0829 34.121 45.1073 34.1454 45.1399 34.178L47.1418 38.2795C47.2069 38.3772 47.2883 38.4667 47.386 38.5481C47.4836 38.6295 47.6138 38.6702 47.7766 38.6702L52.3664 39.4026C52.399 39.4026 52.4397 39.4189 52.4885 39.4514C52.5373 39.484 52.5617 39.5002 52.5617 39.5002C52.5617 39.5328 52.5536 39.5572 52.5373 39.5735C52.521 39.5898 52.4966 39.6305 52.4641 39.6956L49.1438 42.8694C49.0461 42.9996 48.981 43.1135 48.9485 43.2112C48.9159 43.3088 48.9159 43.439 48.9485 43.6018L49.7785 48.094C49.7785 48.1591 49.7704 48.2079 49.7541 48.2405C49.7378 48.273 49.6972 48.2893 49.632 48.2893C49.632 48.2893 49.6158 48.3056 49.5832 48.3381C49.5507 48.3707 49.5018 48.3544 49.4367 48.2893L45.3352 46.1897C45.2375 46.1571 45.1236 46.1409 44.9934 46.1409C44.8632 46.1409 44.7492 46.1571 44.6516 46.1897L40.55 48.2893C40.5175 48.3544 40.4768 48.3707 40.4279 48.3381C40.3791 48.3056 40.3547 48.2893 40.3547 48.2893C40.3547 48.2893 40.3384 48.273 40.3059 48.2405C40.2733 48.2079 40.257 48.1591 40.257 48.094L41.0383 43.6018C41.0383 43.439 41.0302 43.3088 41.0139 43.2112C40.9976 43.1135 40.9406 42.9996 40.843 42.8694L39.2317 41.3069C39.1015 41.1441 38.9306 41.0627 38.719 41.0627C38.5074 41.0627 38.3202 41.1441 38.1574 41.3069C37.9947 41.4371 37.9133 41.6161 37.9133 41.844C37.9133 42.0719 37.9947 42.2509 38.1574 42.3811L39.4758 43.6995L38.7434 47.801C38.7108 48.1591 38.7597 48.4846 38.8899 48.7776C39.0201 49.0706 39.2154 49.3147 39.4758 49.51C39.7688 49.7053 40.078 49.8193 40.4035 49.8518C40.7291 49.8844 41.0383 49.803 41.3313 49.6077L45.0422 47.6057L48.7531 49.6077C48.9159 49.6402 49.0542 49.6809 49.1682 49.7297C49.2821 49.7786 49.4042 49.803 49.5344 49.803C49.7623 49.803 49.9494 49.7786 50.0959 49.7297C50.2424 49.6809 50.397 49.6077 50.5598 49.51C50.8528 49.3147 51.0562 49.0543 51.1701 48.7288C51.2841 48.4032 51.3085 48.094 51.2434 47.801L50.5598 43.6995L53.5383 40.7698C53.7987 40.6721 53.9778 40.4687 54.0754 40.1594C54.1731 39.8502 54.1731 39.5328 54.0754 39.2073Z" fill="#F77F00"/>
</svg>
