<svg width="52" height="51" viewBox="0 0 52 51" fill="none" xmlns="http://www.w3.org/2000/svg">
<g clip-path="url(#clip0_1_918)">
<path d="M21.4407 20.7114C21.1803 20.5487 20.928 20.508 20.6839 20.5894C20.4398 20.6707 20.2689 20.8416 20.1712 21.1021C20.0084 21.3625 19.9678 21.6229 20.0491 21.8833C20.1305 22.1437 20.3014 22.3228 20.5618 22.4204C20.6595 22.453 20.7409 22.4774 20.806 22.4937C20.8711 22.5099 20.9525 22.5181 21.0501 22.5181C21.2129 22.5181 21.3756 22.4692 21.5384 22.3716C21.7012 22.2739 21.7988 22.1437 21.8314 21.981C21.929 21.7856 21.9534 21.5578 21.9046 21.2974C21.8558 21.0369 21.7012 20.8416 21.4407 20.7114ZM48.4427 28.5239L40.9232 15.3892C41.3789 15.0962 41.7451 14.7056 42.0218 14.2173C42.2985 13.729 42.4368 13.1919 42.4368 12.606C42.4368 12.313 42.4124 12.0363 42.3636 11.7759C42.3148 11.5155 42.209 11.255 42.0462 10.9946C43.804 10.604 45.2607 9.70068 46.4163 8.28467C47.5719 6.86865 48.1497 5.24919 48.1497 3.42627C48.1497 3.16585 48.0602 2.92985 47.8812 2.71826C47.7021 2.50667 47.4498 2.40088 47.1243 2.40088C46.8965 2.40088 46.6767 2.4904 46.4651 2.66943C46.2536 2.84847 46.1478 3.10075 46.1478 3.42627C46.1478 4.92366 45.6432 6.24202 44.6341 7.38135C43.625 8.52067 42.3554 9.15544 40.8255 9.28564L42.3392 7.18604C42.7949 6.53499 43.039 5.83512 43.0716 5.08643C43.1041 4.33773 42.8926 3.63786 42.4368 2.98682C41.9811 2.33577 41.4033 1.87191 40.7034 1.59521C40.0036 1.31852 39.2793 1.26155 38.5306 1.42432L36.7239 1.81494C36.5286 1.84749 36.317 1.84749 36.0892 1.81494C35.8613 1.78239 35.6497 1.71729 35.4544 1.61963L33.9407 0.691895C33.3548 0.33382 32.7119 0.154785 32.012 0.154785C31.3122 0.154785 30.653 0.33382 30.0345 0.691895L28.5696 1.61963C28.4394 1.74984 28.2685 1.83936 28.0569 1.88818C27.8454 1.93701 27.6094 1.94515 27.3489 1.9126L25.5423 1.52197C24.7936 1.29411 24.0612 1.3348 23.345 1.64404C22.6289 1.95329 22.0592 2.43343 21.636 3.08447C21.1803 3.73552 20.9687 4.45166 21.0013 5.23291C21.0338 6.01416 21.278 6.69775 21.7337 7.28369L23.5403 9.7251C22.987 9.95296 22.5475 10.3436 22.222 10.897C21.8965 11.4504 21.7337 12.0526 21.7337 12.7036C21.7337 13.2896 21.872 13.8267 22.1487 14.3149C22.4254 14.8032 22.7916 15.1938 23.2474 15.4868L21.8314 17.8794C21.7012 18.1398 21.6767 18.4002 21.7581 18.6606C21.8395 18.9211 22.0104 19.1001 22.2708 19.1978C22.4987 19.3605 22.7428 19.4012 23.0032 19.3198C23.2637 19.2384 23.4427 19.0675 23.5403 18.8071L25.1517 15.9263H38.97L46.636 29.4028C47.4824 30.8677 48.0032 32.4139 48.1985 34.0415C48.3939 35.6691 48.2881 37.256 47.8812 38.8022C47.4743 40.3485 46.7825 41.7889 45.806 43.1235C44.8294 44.4256 43.6087 45.5161 42.1439 46.395C41.2324 47.0135 40.2396 47.4692 39.1653 47.7622C38.0911 48.0552 36.9844 48.2017 35.845 48.2017H28.3255C27.1862 48.2017 26.0794 48.0552 25.0052 47.7622C23.931 47.4692 22.9056 47.0135 21.929 46.395L21.7337 46.688V45.5161H23.7357C23.9961 45.5161 24.2321 45.4185 24.4437 45.2231C24.6553 45.0278 24.761 44.7837 24.761 44.4907V39.8032C24.761 39.5428 24.6634 39.3149 24.4681 39.1196C24.2728 38.9243 24.0286 38.8267 23.7357 38.8267H21.7337V36.0923H23.7357C23.9961 36.0923 24.2321 36.0028 24.4437 35.8237C24.6553 35.6447 24.761 35.4087 24.761 35.1157V30.3794C24.761 30.1515 24.6634 29.9318 24.4681 29.7202C24.2728 29.5086 24.0286 29.4028 23.7357 29.4028H17.4368L19.6341 25.5942C19.7969 25.3664 19.8375 25.1222 19.7562 24.8618C19.6748 24.6014 19.5039 24.4224 19.2435 24.3247C18.9831 24.1619 18.7308 24.1213 18.4866 24.2026C18.2425 24.284 18.0553 24.4549 17.9251 24.7153L15.7278 28.5239C15.6302 28.6541 15.5488 28.8006 15.4837 28.9634C15.4186 29.1261 15.3372 29.3052 15.2396 29.5005H4.25323C3.99282 29.5005 3.75682 29.59 3.54523 29.769C3.33364 29.9481 3.22784 30.2004 3.22784 30.5259V34.188H1.32355C1.09568 34.188 0.875956 34.2856 0.664368 34.481C0.452779 34.6763 0.346985 34.9204 0.346985 35.2134V39.9009C0.346985 40.1613 0.436503 40.3973 0.61554 40.6089C0.794576 40.8205 1.03058 40.9263 1.32355 40.9263H3.3255V43.6118H1.32355C1.09568 43.6118 0.875956 43.7013 0.664368 43.8804C0.452779 44.0594 0.346985 44.2954 0.346985 44.5884V49.2271C0.346985 49.4549 0.436503 49.6746 0.61554 49.8862C0.794576 50.0978 1.03058 50.2036 1.32355 50.2036H20.8548C21.1152 50.2036 21.3431 50.1141 21.5384 49.9351C21.7337 49.756 21.8314 49.52 21.8314 49.2271V48.5923C22.8405 49.1131 23.9066 49.5119 25.0296 49.7886C26.1526 50.0653 27.2838 50.2036 28.4232 50.2036H35.9427C37.2448 50.2036 38.5306 50.0327 39.8001 49.6909C41.0696 49.3491 42.2578 48.8527 43.3646 48.2017C44.9922 47.1925 46.3675 45.9393 47.4905 44.4419C48.6136 42.9445 49.4355 41.2681 49.9564 39.4126C50.4121 37.5571 50.5097 35.7017 50.2493 33.8462C49.9889 31.9907 49.3867 30.2166 48.4427 28.5239ZM24.2239 13.8267C24.0937 13.6965 23.9635 13.5256 23.8333 13.314C23.7031 13.1024 23.638 12.8989 23.638 12.7036C23.638 12.313 23.7763 11.9793 24.053 11.7026C24.3297 11.4259 24.6634 11.2876 25.054 11.2876H25.347H26.763L24.2239 13.8267ZM29.5462 14.022H26.763L29.3509 11.3853C29.3509 11.3853 29.3672 11.369 29.3997 11.3364C29.4323 11.3039 29.4485 11.2876 29.4485 11.2876H32.3294L29.5462 14.022ZM35.0638 14.022H32.3294L34.9661 11.3853C34.9661 11.3853 34.9824 11.369 35.015 11.3364C35.0475 11.3039 35.0638 11.2876 35.0638 11.2876H37.7493L35.0638 14.022ZM39.1653 14.022H37.847L40.1419 11.7271C40.2396 11.8247 40.3291 11.9549 40.4105 12.1177C40.4918 12.2804 40.5325 12.4432 40.5325 12.606C40.5325 12.9966 40.4023 13.3302 40.1419 13.6069C39.8815 13.8836 39.556 14.022 39.1653 14.022ZM38.4329 9.3833H25.8353L23.345 6.11182C23.0846 5.75374 22.9625 5.39567 22.9788 5.0376C22.9951 4.67952 23.0846 4.37028 23.2474 4.10986C23.4101 3.84945 23.6543 3.63786 23.9798 3.4751C24.3053 3.31234 24.6959 3.29606 25.1517 3.42627L26.9583 3.81689C27.4466 3.91455 27.9186 3.93083 28.3743 3.86572C28.8301 3.80062 29.2858 3.65413 29.7415 3.42627L31.2552 2.49854C31.5482 2.33577 31.8574 2.25439 32.1829 2.25439C32.5084 2.25439 32.8014 2.33577 33.0618 2.49854L34.5267 3.42627C34.9498 3.62158 35.3974 3.75993 35.8694 3.84131C36.3414 3.92269 36.8379 3.91455 37.3587 3.81689L39.1653 3.42627C39.5885 3.29606 39.9547 3.31234 40.264 3.4751C40.5732 3.63786 40.8418 3.84945 41.0696 4.10986C41.1998 4.37028 41.2894 4.67952 41.3382 5.0376C41.387 5.39567 41.2487 5.75374 40.9232 6.11182L38.4329 9.3833ZM5.2298 31.5024H15.9232H22.7591V34.188H19.8294V33.3091C19.8294 33.0487 19.7399 32.8127 19.5609 32.6011C19.3818 32.3895 19.1458 32.2837 18.8528 32.2837C18.5924 32.2837 18.3564 32.3813 18.1448 32.5767C17.9332 32.772 17.8275 33.0161 17.8275 33.3091V34.188H14.9466V33.3091C14.9466 33.0487 14.8571 32.8127 14.678 32.6011C14.499 32.3895 14.263 32.2837 13.97 32.2837C13.6445 32.2837 13.3922 32.3813 13.2132 32.5767C13.0342 32.772 12.9446 33.0161 12.9446 33.3091V34.188H10.1614V33.3091C10.1614 33.0487 10.0638 32.8127 9.86847 32.6011C9.67316 32.3895 9.42902 32.2837 9.13605 32.2837C8.90818 32.2837 8.68846 32.3813 8.47687 32.5767C8.26528 32.772 8.15948 33.0161 8.15948 33.3091V34.188H5.2298V31.5024ZM2.34894 38.9243V36.1899H19.9271V38.9243H17.0462V38.1919C17.0462 37.964 16.9567 37.7443 16.7776 37.5327C16.5986 37.3211 16.3626 37.2153 16.0696 37.2153C15.7441 37.2153 15.4918 37.3049 15.3128 37.4839C15.1338 37.6629 15.0443 37.8989 15.0443 38.1919V38.8267H12.1634V38.1919C12.1634 37.964 12.0657 37.7443 11.8704 37.5327C11.6751 37.3211 11.431 37.2153 11.138 37.2153C10.845 37.2153 10.609 37.3049 10.43 37.4839C10.251 37.6629 10.1614 37.8989 10.1614 38.1919V38.8267H7.13409V38.1919C7.13409 37.964 7.04458 37.7443 6.86554 37.5327C6.6865 37.3211 6.4505 37.2153 6.15753 37.2153C5.86456 37.2153 5.62042 37.3049 5.42511 37.4839C5.2298 37.6629 5.13214 37.8989 5.13214 38.1919V38.8267H2.34894V38.9243ZM19.8294 48.2017H16.9485V47.3228C16.9485 47.0623 16.859 46.8263 16.68 46.6147C16.501 46.4032 16.2487 46.2974 15.9232 46.2974C15.6302 46.2974 15.3942 46.3869 15.2151 46.5659C15.0361 46.745 14.9466 46.9972 14.9466 47.3228V48.2017H12.0657V47.3228C12.0657 47.0623 11.9681 46.8263 11.7728 46.6147C11.5775 46.4032 11.3333 46.2974 11.0403 46.2974C10.7474 46.2974 10.5114 46.3869 10.3323 46.5659C10.1533 46.745 10.0638 46.9972 10.0638 47.3228V48.2017H7.13409V47.3228C7.13409 47.0623 7.04458 46.8263 6.86554 46.6147C6.6865 46.4032 6.4505 46.2974 6.15753 46.2974C5.86456 46.2974 5.62042 46.3869 5.42511 46.5659C5.2298 46.745 5.13214 46.9972 5.13214 47.3228V48.2017H2.34894V45.5161H19.9271V48.2017H19.8294ZM19.8294 43.6118V42.8794C19.8294 42.6515 19.7399 42.4318 19.5609 42.2202C19.3818 42.0086 19.1458 41.9028 18.8528 41.9028C18.5599 41.9028 18.3157 41.9924 18.1204 42.1714C17.9251 42.3504 17.8275 42.5864 17.8275 42.8794V43.6118H14.9466V42.8794C14.9466 42.6515 14.8571 42.4318 14.678 42.2202C14.499 42.0086 14.263 41.9028 13.97 41.9028C13.6445 41.9028 13.3922 41.9924 13.2132 42.1714C13.0342 42.3504 12.9446 42.5864 12.9446 42.8794V43.6118H10.1614V42.8794C10.1614 42.6515 10.0638 42.4318 9.86847 42.2202C9.67316 42.0086 9.42902 41.9028 9.13605 41.9028C8.90818 41.9028 8.68846 41.9924 8.47687 42.1714C8.26528 42.3504 8.15948 42.5864 8.15948 42.8794V43.6118H5.2298V40.9263H22.8568V43.6118H19.8294ZM32.1341 33.2114C31.6784 33.2114 31.2959 33.0731 30.9866 32.7964C30.6774 32.5197 30.5228 32.186 30.5228 31.7954C30.5228 31.4048 30.6774 31.0711 30.9866 30.7944C31.2959 30.5177 31.6784 30.3794 32.1341 30.3794C32.5898 30.3794 32.9723 30.5177 33.2816 30.7944C33.5908 31.0711 33.7454 31.4048 33.7454 31.7954C33.7454 32.0558 33.8349 32.2918 34.014 32.5034C34.193 32.715 34.4453 32.8208 34.7708 32.8208C34.9987 32.8208 35.2184 32.7231 35.43 32.5278C35.6416 32.3325 35.7474 32.0884 35.7474 31.7954C35.7474 31.0467 35.5032 30.3794 35.015 29.7935C34.5267 29.2075 33.9082 28.8169 33.1595 28.6216V28.5239C33.1595 28.2635 33.0618 28.0275 32.8665 27.8159C32.6712 27.6043 32.4271 27.4985 32.1341 27.4985C31.9062 27.4985 31.6865 27.5881 31.4749 27.7671C31.2633 27.9461 31.1575 28.1984 31.1575 28.5239V28.6216C30.4088 28.8169 29.7903 29.2075 29.3021 29.7935C28.8138 30.3794 28.5696 31.0467 28.5696 31.7954C28.5696 32.7069 28.9196 33.5044 29.6194 34.188C30.3193 34.8716 31.1575 35.2134 32.1341 35.2134C32.5898 35.2134 32.9723 35.3436 33.2816 35.604C33.5908 35.8644 33.7454 36.1899 33.7454 36.5806C33.7454 36.9386 33.5989 37.256 33.306 37.5327C33.013 37.8094 32.6549 37.964 32.2318 37.9966C32.2318 37.9966 32.2155 37.9966 32.1829 37.9966C32.1504 37.9966 32.1341 37.9966 32.1341 37.9966C32.1341 37.9966 32.1178 37.9966 32.0853 37.9966C32.0527 37.9966 32.0364 37.9966 32.0364 37.9966C31.6458 37.964 31.2959 37.8094 30.9866 37.5327C30.6774 37.256 30.5228 36.9386 30.5228 36.5806C30.5228 36.3527 30.4332 36.133 30.2542 35.9214C30.0752 35.7098 29.8392 35.604 29.5462 35.604C29.2858 35.604 29.0579 35.6935 28.8626 35.8726C28.6673 36.0516 28.5696 36.2876 28.5696 36.5806C28.5696 37.3618 28.8138 38.0454 29.3021 38.6313C29.7903 39.2173 30.4088 39.6079 31.1575 39.8032V39.9985C31.1575 40.259 31.247 40.495 31.4261 40.7065C31.6051 40.9181 31.8411 41.0239 32.1341 41.0239C32.3945 41.0239 32.6305 40.9263 32.8421 40.731C33.0537 40.5356 33.1595 40.2915 33.1595 39.9985V39.8032C33.9082 39.6079 34.5267 39.2173 35.015 38.6313C35.5032 38.0454 35.7474 37.3618 35.7474 36.5806C35.7474 35.6366 35.3974 34.839 34.6976 34.188C33.9977 33.5369 33.1432 33.2114 32.1341 33.2114ZM39.4583 26.8149C38.4818 25.8384 37.375 25.0897 36.138 24.5688C34.901 24.048 33.6396 23.7713 32.3538 23.7388C31.068 23.7062 29.8066 23.9178 28.5696 24.3735C27.3001 24.7967 26.1608 25.4803 25.1517 26.4243C24.9564 26.6196 24.8506 26.8475 24.8343 27.1079C24.818 27.3683 24.8913 27.5962 25.054 27.7915C25.2493 27.9868 25.4772 28.0926 25.7376 28.1089C25.998 28.1252 26.2422 28.0519 26.47 27.8892C28.0976 26.3918 30.0345 25.6675 32.2806 25.7163C34.5267 25.7651 36.4472 26.5871 38.0423 28.1821C39.7025 29.8423 40.5325 31.828 40.5325 34.1392C40.5325 36.4504 39.7025 38.436 38.0423 40.0962C37.1308 41.0076 36.0973 41.675 34.9417 42.0981C33.7861 42.5213 32.5898 42.6515 31.3528 42.4888C31.0924 42.4888 30.8564 42.5701 30.6448 42.7329C30.4332 42.8957 30.2949 43.1235 30.2298 43.4165C30.2298 43.6444 30.3112 43.8722 30.4739 44.1001C30.6367 44.328 30.8646 44.4582 31.1575 44.4907C31.2877 44.4907 31.4342 44.4907 31.597 44.4907C31.7597 44.4907 31.9062 44.4907 32.0364 44.4907C33.4036 44.4907 34.7301 44.2303 36.0159 43.7095C37.3017 43.1886 38.4166 42.4562 39.3607 41.5122C40.3698 40.4705 41.1347 39.3149 41.6556 38.0454C42.1764 36.7759 42.4368 35.4819 42.4368 34.1636C42.4368 32.8452 42.1927 31.535 41.7044 30.2329C41.1836 28.9634 40.4349 27.8241 39.4583 26.8149ZM28.4232 41.7075C28.1953 41.6099 27.9512 41.6017 27.6907 41.6831C27.4303 41.7645 27.2513 41.9354 27.1536 42.1958C27.056 42.4562 27.0478 42.7166 27.1292 42.9771C27.2106 43.2375 27.3815 43.4165 27.6419 43.5142C27.707 43.5467 27.7803 43.5711 27.8616 43.5874C27.943 43.6037 28 43.6118 28.0325 43.6118C28.2278 43.6118 28.4069 43.563 28.5696 43.4653C28.7324 43.3677 28.8626 43.2212 28.9603 43.0259C29.0579 42.798 29.0579 42.562 28.9603 42.3179C28.8626 42.0737 28.6836 41.8703 28.4232 41.7075Z" fill="#F77F00"/>
</g>
<defs>
<clipPath id="clip0_1_918">
<rect width="51" height="50" fill="white" transform="matrix(1 0 0 -1 0.346985 50.2036)"/>
</clipPath>
</defs>
</svg>
