<svg width="48" height="51" viewBox="0 0 48 51" fill="none" xmlns="http://www.w3.org/2000/svg">
<path d="M25.7336 31.8831C26.1893 31.8505 26.6044 31.7284 26.9787 31.5168C27.3531 31.3053 27.6704 31.0367 27.9309 30.7112L35.7434 19.8713C35.841 19.7411 35.8817 19.5702 35.8654 19.3586C35.8492 19.1471 35.7759 18.9599 35.6457 18.7971C35.4829 18.6344 35.3039 18.553 35.1086 18.553C34.9133 18.553 34.718 18.6018 34.5227 18.6995L23.7316 26.512C23.3736 26.7398 23.0969 27.0491 22.9016 27.4397C22.7063 27.8303 22.576 28.2535 22.5109 28.7092C22.4784 29.165 22.5354 29.5881 22.6818 29.9788C22.8283 30.3694 23.0806 30.7112 23.4387 31.0042C23.7316 31.2971 24.0572 31.5168 24.4152 31.6633C24.7733 31.8098 25.1477 31.8831 25.5383 31.8831C25.5383 31.8831 25.5546 31.8831 25.5871 31.8831C25.6197 31.8831 25.6685 31.8831 25.7336 31.8831ZM24.1223 28.8069C24.1223 28.6116 24.1711 28.4325 24.2688 28.2698C24.3664 28.107 24.4803 27.9443 24.6105 27.7815L31.2512 22.9963L26.4172 29.5881C26.3195 29.7509 26.1812 29.873 26.0022 29.9543C25.8231 30.0357 25.6359 30.0764 25.4406 30.0764C25.2453 30.0764 25.05 30.052 24.8547 30.0032C24.6594 29.9543 24.5129 29.8486 24.4152 29.6858C24.3176 29.5881 24.2443 29.4661 24.1955 29.3196C24.1467 29.1731 24.1223 29.0022 24.1223 28.8069ZM44.3371 16.5022C43.8814 15.7535 43.4012 15.0292 42.8967 14.3293C42.3921 13.6295 41.8632 12.9866 41.3098 12.4006L43.1164 10.594L44.3371 11.8147L47.8527 8.29907L44.3371 4.78345L40.8215 8.29907L42.0422 9.47095L40.1379 11.1799C39.5194 10.6265 38.8684 10.1057 38.1848 9.61743C37.5012 9.12915 36.8176 8.65715 36.134 8.20142C36.134 8.20142 36.1259 8.20142 36.1096 8.20142C36.0933 8.20142 36.0689 8.20142 36.0363 8.20142C34.7342 7.45272 33.3589 6.83423 31.9104 6.34595C30.4618 5.85767 28.9725 5.53215 27.4426 5.36938V4.39282H28.7121C29.2655 4.39282 29.7538 4.18937 30.177 3.78247C30.6001 3.37557 30.8117 2.87915 30.8117 2.29321C30.8117 1.70728 30.6164 1.21086 30.2258 0.803955C29.8352 0.397053 29.3306 0.193604 28.7121 0.193604H21.2414C20.688 0.193604 20.1997 0.397053 19.7766 0.803955C19.3534 1.21086 19.1418 1.70728 19.1418 2.29321C19.1418 2.87915 19.3371 3.37557 19.7277 3.78247C20.1184 4.18937 20.6229 4.39282 21.2414 4.39282H22.5109V5.36938C22.0878 5.43449 21.6483 5.49959 21.1926 5.5647C20.7369 5.6298 20.2811 5.71118 19.8254 5.80884C19.6301 5.84139 19.4673 5.94719 19.3371 6.12622C19.2069 6.30526 19.1744 6.52498 19.2395 6.7854C19.272 6.98071 19.3859 7.14347 19.5813 7.27368C19.7766 7.40389 19.9882 7.43644 20.216 7.37134C20.6392 7.27368 21.0298 7.20044 21.3879 7.15161C21.746 7.10278 22.1203 7.04582 22.5109 6.98071L23.4387 6.88306C23.5689 6.88306 23.6991 6.88306 23.8293 6.88306C23.9595 6.88306 24.0897 6.88306 24.2199 6.88306V8.49438C24.2199 8.7548 24.3013 8.95012 24.4641 9.08032C24.6268 9.21053 24.8221 9.27563 25.05 9.27563C25.2453 9.27563 25.4244 9.21053 25.5871 9.08032C25.7499 8.95012 25.8313 8.7548 25.8313 8.49438V6.88306C27.3938 6.94816 28.9074 7.1923 30.3723 7.61548C31.8371 8.03865 33.2206 8.59204 34.5227 9.27563L33.7414 10.6917C33.6438 10.887 33.6193 11.0904 33.6682 11.302C33.717 11.5136 33.8391 11.6845 34.0344 11.8147C34.0669 11.8472 34.132 11.8717 34.2297 11.8879C34.3273 11.9042 34.3925 11.9124 34.425 11.9124C34.5878 11.9124 34.7342 11.8798 34.8645 11.8147C34.9947 11.7496 35.076 11.6357 35.1086 11.4729L35.9387 10.1057C37.2408 10.9521 38.437 11.9205 39.5275 13.011C40.618 14.1015 41.5865 15.2978 42.4328 16.5999L41.0168 17.3811C40.8215 17.4788 40.6994 17.6415 40.6506 17.8694C40.6018 18.0972 40.6262 18.3088 40.7238 18.5042C40.8215 18.6344 40.9273 18.732 41.0412 18.7971C41.1551 18.8622 41.2772 18.8948 41.4074 18.8948C41.4725 18.8948 41.5458 18.8866 41.6272 18.8704C41.7085 18.8541 41.7818 18.8297 41.8469 18.7971L43.2141 18.0159C43.9302 19.3505 44.4836 20.7584 44.8742 22.2395C45.2648 23.7206 45.5253 25.2424 45.6555 26.8049H44.0441C43.7837 26.8049 43.5803 26.8863 43.4338 27.0491C43.2873 27.2118 43.2141 27.3909 43.2141 27.5862C43.2141 27.7815 43.3036 27.9687 43.4826 28.1477C43.6617 28.3267 43.8488 28.4163 44.0441 28.4163H45.6555C45.5904 30.0113 45.3462 31.5494 44.923 33.0305C44.4999 34.5116 43.9302 35.9032 43.2141 37.2053L41.8469 36.5706C41.6516 36.4729 41.44 36.4485 41.2121 36.4973C40.9842 36.5461 40.8215 36.6845 40.7238 36.9124C40.6262 37.1077 40.6018 37.3111 40.6506 37.5227C40.6994 37.7343 40.8215 37.8889 41.0168 37.9866L42.4328 38.8167C41.5865 40.0862 40.618 41.2743 39.5275 42.3811C38.437 43.4879 37.2408 44.4644 35.9387 45.3108L35.1086 43.8948C35.0109 43.6995 34.8563 43.5774 34.6447 43.5286C34.4331 43.4797 34.2297 43.5042 34.0344 43.6018C33.8391 43.6995 33.717 43.8541 33.6682 44.0657C33.6193 44.2773 33.6438 44.4807 33.7414 44.676L34.5227 46.092C33.2206 46.8082 31.8371 47.3616 30.3723 47.7522C28.9074 48.1428 27.3938 48.387 25.8313 48.4846V46.8733C25.8313 46.6454 25.7499 46.4583 25.5871 46.3118C25.4244 46.1653 25.2453 46.092 25.05 46.092C24.8221 46.092 24.6268 46.1734 24.4641 46.3362C24.3013 46.4989 24.2199 46.678 24.2199 46.8733V48.4846C23.5689 48.4846 22.9016 48.4439 22.218 48.3625C21.5344 48.2812 20.8671 48.1591 20.216 47.9963C20.0207 47.9312 19.8173 47.9638 19.6057 48.094C19.3941 48.2242 19.272 48.387 19.2395 48.5823C19.1744 48.7776 19.2069 48.981 19.3371 49.1926C19.4673 49.4042 19.6301 49.5426 19.8254 49.6077C20.6717 49.803 21.5181 49.9495 22.3645 50.0471C23.2108 50.1448 24.0409 50.1936 24.8547 50.1936C24.8547 50.1936 24.871 50.1936 24.9035 50.1936C24.9361 50.1936 24.9523 50.1936 24.9523 50.1936C26.938 50.1936 28.8667 49.9332 30.7385 49.4124C32.6102 48.8915 34.3436 48.1591 35.9387 47.2151C35.9387 47.2151 35.955 47.2151 35.9875 47.2151C36.0201 47.2151 36.0363 47.2151 36.0363 47.2151C37.729 46.206 39.2671 45.0097 40.6506 43.6262C42.0341 42.2428 43.1978 40.7372 44.1418 39.1096C44.1418 39.1096 44.1418 39.1015 44.1418 39.0852C44.1418 39.0689 44.1418 39.0445 44.1418 39.012C44.1418 39.012 44.1418 39.0038 44.1418 38.9875C44.1418 38.9713 44.1418 38.9469 44.1418 38.9143C45.0858 37.2542 45.8182 35.4801 46.3391 33.592C46.8599 31.704 47.1203 29.7346 47.1203 27.6838C47.1203 25.6331 46.8925 23.6718 46.4367 21.8C45.981 19.9283 45.2811 18.1624 44.3371 16.5022ZM44.3371 7.07837L45.509 8.29907L44.3371 9.47095L43.1164 8.29907L44.3371 7.07837ZM24.1223 5.17407V2.68384H21.2414C21.1438 2.68384 21.0542 2.64315 20.9729 2.56177C20.8915 2.48039 20.8508 2.39087 20.8508 2.29321C20.8508 2.19556 20.8915 2.10604 20.9729 2.02466C21.0542 1.94328 21.1438 1.90259 21.2414 1.90259H28.7121C28.8098 1.90259 28.9074 1.94328 29.0051 2.02466C29.1027 2.10604 29.1516 2.19556 29.1516 2.29321C29.1516 2.39087 29.1027 2.48039 29.0051 2.56177C28.9074 2.64315 28.8098 2.68384 28.7121 2.68384H25.8313V5.17407C25.6685 5.17407 25.522 5.17407 25.3918 5.17407C25.2616 5.17407 25.1477 5.17407 25.05 5.17407C25.05 5.17407 25.0419 5.17407 25.0256 5.17407C25.0093 5.17407 24.9849 5.17407 24.9523 5.17407C24.9523 5.17407 24.9442 5.17407 24.9279 5.17407C24.9117 5.17407 24.8872 5.17407 24.8547 5.17407C24.7896 5.17407 24.7163 5.17407 24.635 5.17407C24.5536 5.17407 24.4803 5.17407 24.4152 5.17407C24.3827 5.17407 24.342 5.17407 24.2932 5.17407C24.2443 5.17407 24.1874 5.17407 24.1223 5.17407ZM17.5305 11.9124H13.3313C13.0708 11.9124 12.8755 11.9937 12.7453 12.1565C12.6151 12.3193 12.55 12.4983 12.55 12.6936C12.55 12.8889 12.6314 13.068 12.7941 13.2307C12.9569 13.3935 13.1359 13.4749 13.3313 13.4749H17.5305C17.7909 13.4749 17.9862 13.3935 18.1164 13.2307C18.2466 13.068 18.3117 12.8889 18.3117 12.6936C18.3117 12.4983 18.2303 12.3193 18.0676 12.1565C17.9048 11.9937 17.7258 11.9124 17.5305 11.9124ZM17.5305 17.6741H9.13203C8.87162 17.6741 8.67631 17.7636 8.5461 17.9426C8.41589 18.1217 8.35078 18.3088 8.35078 18.5042C8.35078 18.6995 8.43216 18.8785 8.59492 19.0413C8.75769 19.204 8.93672 19.2854 9.13203 19.2854H17.4328C17.6932 19.2854 17.8885 19.204 18.0188 19.0413C18.149 18.8785 18.2141 18.6995 18.2141 18.5042C18.2141 18.3088 18.149 18.1217 18.0188 17.9426C17.8885 17.7636 17.7258 17.6741 17.5305 17.6741ZM17.5305 23.4846H5.03047C4.77006 23.4846 4.57474 23.566 4.44453 23.7288C4.31433 23.8915 4.24922 24.0868 4.24922 24.3147C4.24922 24.51 4.31433 24.7053 4.44453 24.9006C4.57474 25.0959 4.77006 25.1936 5.03047 25.1936H17.5305C17.7909 25.1936 17.9862 25.1122 18.1164 24.9495C18.2466 24.7867 18.3117 24.6077 18.3117 24.4124C18.3117 24.1845 18.2303 23.9729 18.0676 23.7776C17.9048 23.5823 17.7258 23.4846 17.5305 23.4846ZM17.5305 29.3928H1.6125C1.41719 29.3928 1.23815 29.4661 1.07539 29.6125C0.912633 29.759 0.831253 29.9462 0.831253 30.1741C0.831253 30.4345 0.912633 30.6379 1.07539 30.7844C1.23815 30.9309 1.41719 31.0042 1.6125 31.0042H17.4328C17.6932 31.0042 17.8885 30.9228 18.0188 30.76C18.149 30.5972 18.2141 30.4019 18.2141 30.1741C18.2141 29.9788 18.149 29.7997 18.0188 29.637C17.8885 29.4742 17.7258 29.3928 17.5305 29.3928ZM17.5305 35.2034H6.6418C6.44649 35.2034 6.25931 35.2847 6.08028 35.4475C5.90124 35.6103 5.81172 35.7893 5.81172 35.9846C5.81172 36.1799 5.90124 36.3671 6.08028 36.5461C6.25931 36.7252 6.44649 36.8147 6.6418 36.8147H17.4328C17.6932 36.8147 17.8885 36.7252 18.0188 36.5461C18.149 36.3671 18.2141 36.1799 18.2141 35.9846C18.2141 35.7893 18.149 35.6103 18.0188 35.4475C17.8885 35.2847 17.7258 35.2034 17.5305 35.2034ZM17.5305 41.0139H11.7199C11.4921 41.0139 11.3049 41.0953 11.1584 41.2581C11.0119 41.4208 10.9387 41.5999 10.9387 41.7952C10.9387 41.9905 11.0201 42.1695 11.1828 42.3323C11.3456 42.495 11.5246 42.5764 11.7199 42.5764H17.5305C17.7909 42.5764 17.9862 42.495 18.1164 42.3323C18.2466 42.1695 18.3117 41.9905 18.3117 41.7952C18.3117 41.5999 18.2303 41.4208 18.0676 41.2581C17.9048 41.0953 17.7258 41.0139 17.5305 41.0139Z" fill="#F77F00"/>
</svg>
