<svg width="26" height="19" viewBox="0 0 26 19" fill="none" xmlns="http://www.w3.org/2000/svg">
<path d="M1.72599 4.27399H23.902C24.3687 4.27399 24.7747 4.10132 25.12 3.75599C25.4653 3.41065 25.638 3.00465 25.638 2.53799C25.638 2.07132 25.4653 1.66065 25.12 1.30599C24.7747 0.95132 24.3687 0.773986 23.902 0.773986H1.72599C1.25932 0.773986 0.853324 0.95132 0.50799 1.30599C0.162657 1.66065 -0.0100098 2.07132 -0.0100098 2.53799C-0.0100098 3.00465 0.162657 3.41065 0.50799 3.75599C0.853324 4.10132 1.25932 4.27399 1.72599 4.27399ZM1.72599 11.274H23.902C24.3687 11.274 24.7747 11.1013 25.12 10.756C25.4653 10.4107 25.638 10.0047 25.638 9.53799C25.638 9.07132 25.4653 8.66065 25.12 8.30599C24.7747 7.95132 24.3687 7.77399 23.902 7.77399H1.72599C1.25932 7.77399 0.853324 7.95132 0.50799 8.30599C0.162657 8.66065 -0.0100098 9.07132 -0.0100098 9.53799C-0.0100098 10.0047 0.162657 10.4107 0.50799 10.756C0.853324 11.1013 1.25932 11.274 1.72599 11.274ZM1.72599 18.274H23.902C24.3687 18.274 24.7747 18.1013 25.12 17.756C25.4653 17.4107 25.638 17.0047 25.638 16.538C25.638 16.0713 25.4653 15.6607 25.12 15.306C24.7747 14.9513 24.3687 14.774 23.902 14.774H1.72599C1.25932 14.774 0.853324 14.9513 0.50799 15.306C0.162657 15.6607 -0.0100098 16.0713 -0.0100098 16.538C-0.0100098 17.0047 0.162657 17.4107 0.50799 17.756C0.853324 18.1013 1.25932 18.274 1.72599 18.274Z" fill="#F77F00"/>
</svg>
