<svg width="42" height="42" viewBox="0 0 42 42" fill="none" xmlns="http://www.w3.org/2000/svg">
<g clip-path="url(#clip0_1_853)">
<path d="M39.3155 8.10605H14.6524V7.12891C14.6524 6.39931 14.3983 5.78045 13.8902 5.27234C13.3821 4.76422 12.7763 4.51017 12.0727 4.51017H8.04688C7.34333 4.51017 6.73751 4.76422 6.22939 5.27234C5.72128 5.78045 5.46722 6.39931 5.46722 7.12891V8.10605H1.4023C1.11567 8.10605 0.868128 8.20377 0.659671 8.3992C0.451214 8.59463 0.346985 8.83566 0.346985 9.12228C0.346985 9.40891 0.451214 9.65646 0.659671 9.86491C0.868128 10.0734 1.11567 10.1776 1.4023 10.1776H5.46722V11.1547C5.46722 11.8583 5.72128 12.4641 6.22939 12.9722C6.73751 13.4803 7.34333 13.7344 8.04688 13.7344H12.0727C12.7763 13.7344 13.3821 13.4803 13.8902 12.9722C14.3983 12.4641 14.6524 11.8583 14.6524 11.1547V10.1776H39.3155C39.6021 10.1776 39.8497 10.0734 40.0581 9.86491C40.2666 9.65646 40.3708 9.40891 40.3708 9.12228C40.3708 8.83566 40.2666 8.59463 40.0581 8.3992C39.8497 8.20377 39.6021 8.10605 39.3155 8.10605ZM12.5808 11.1547C12.5808 11.285 12.5287 11.4023 12.4245 11.5065C12.3203 11.6107 12.203 11.6629 12.0727 11.6629H8.04688C7.89054 11.6629 7.76676 11.6107 7.67556 11.5065C7.58436 11.4023 7.53876 11.285 7.53876 11.1547V7.12891C7.53876 6.97257 7.58436 6.84228 7.67556 6.73805C7.76676 6.63383 7.89054 6.58171 8.04688 6.58171H12.0727C12.203 6.58171 12.3203 6.63383 12.4245 6.73805C12.5287 6.84228 12.5808 6.97257 12.5808 7.12891V11.1547ZM39.3155 19.6364H35.2506V18.6592C35.2506 17.9557 34.9965 17.3498 34.4884 16.8417C33.9803 16.3336 33.3744 16.0795 32.6709 16.0795H28.6451C27.9415 16.0795 27.3357 16.3336 26.8276 16.8417C26.3195 17.3498 26.0654 17.9557 26.0654 18.6592V19.6364H1.4023C1.11567 19.6364 0.868128 19.7406 0.659671 19.949C0.451214 20.1575 0.346985 20.405 0.346985 20.6917C0.346985 20.9783 0.451214 21.2193 0.659671 21.4148C0.868128 21.6102 1.11567 21.7079 1.4023 21.7079H26.0654V22.685C26.0654 23.4146 26.3195 24.0335 26.8276 24.5416C27.3357 25.0497 27.9415 25.3038 28.6451 25.3038H32.6709C33.3744 25.3038 33.9803 25.0497 34.4884 24.5416C34.9965 24.0335 35.2506 23.4146 35.2506 22.685V21.7079H39.3155C39.6021 21.7079 39.8497 21.6102 40.0581 21.4148C40.2666 21.2193 40.3708 20.9783 40.3708 20.6917C40.3708 20.405 40.2666 20.1575 40.0581 19.949C39.8497 19.7406 39.6021 19.6364 39.3155 19.6364ZM33.179 22.685C33.179 22.8414 33.1334 22.9717 33.0422 23.0759C32.951 23.1801 32.8272 23.2322 32.6709 23.2322H28.6451C28.5148 23.2322 28.3975 23.1801 28.2933 23.0759C28.1891 22.9717 28.137 22.8414 28.137 22.685V18.6592C28.137 18.5289 28.1891 18.4117 28.2933 18.3074C28.3975 18.2032 28.5148 18.1511 28.6451 18.1511H32.6709C32.8272 18.1511 32.951 18.2032 33.0422 18.3074C33.1334 18.4117 33.179 18.5289 33.179 18.6592V22.685ZM39.3155 32.0656H21.9614V31.0885C21.9614 30.3589 21.7073 29.7465 21.1992 29.2514C20.6911 28.7564 20.0723 28.5088 19.3427 28.5088H15.3168C14.6133 28.5088 14.0075 28.7564 13.4993 29.2514C12.9912 29.7465 12.7372 30.3589 12.7372 31.0885V32.0656H1.4023C1.11567 32.0656 0.868128 32.1633 0.659671 32.3588C0.451214 32.5542 0.346985 32.7952 0.346985 33.0819C0.346985 33.3685 0.451214 33.616 0.659671 33.8245C0.868128 34.0329 1.11567 34.1372 1.4023 34.1372H12.7372V35.1143C12.7372 35.8179 12.9912 36.4237 13.4993 36.9318C14.0075 37.4399 14.6133 37.694 15.3168 37.694H19.3427C20.0723 37.694 20.6911 37.4399 21.1992 36.9318C21.7073 36.4237 21.9614 35.8179 21.9614 35.1143V34.1372H39.3155C39.6021 34.1372 39.8497 34.0329 40.0581 33.8245C40.2666 33.616 40.3708 33.3685 40.3708 33.0819C40.3708 32.7952 40.2666 32.5542 40.0581 32.3588C39.8497 32.1633 39.6021 32.0656 39.3155 32.0656ZM19.8899 35.1143C19.8899 35.2446 19.8377 35.3619 19.7335 35.4661C19.6293 35.5703 19.499 35.6224 19.3427 35.6224H15.3168C15.1865 35.6224 15.0693 35.5703 14.9651 35.4661C14.8608 35.3619 14.8087 35.2446 14.8087 35.1143V31.0885C14.8087 30.9321 14.8608 30.8084 14.9651 30.7172C15.0693 30.626 15.1865 30.5804 15.3168 30.5804H19.3427C19.499 30.5804 19.6293 30.626 19.7335 30.7172C19.8377 30.8084 19.8899 30.9321 19.8899 31.0885V35.1143Z" fill="#F77F00"/>
</g>
<defs>
<clipPath id="clip0_1_853">
<rect width="41" height="41" fill="white" transform="matrix(1 0 0 -1 0.346985 41.1135)"/>
</clipPath>
</defs>
</svg>
