<svg width="42" height="42" viewBox="0 0 42 42" fill="none" xmlns="http://www.w3.org/2000/svg">
<g clip-path="url(#clip0_1_878)">
<path d="M39.6673 11.623C39.1461 11.623 38.7031 11.4341 38.3383 11.0563C37.9735 10.6784 37.7911 10.242 37.7911 9.7469C37.7911 9.59056 37.7325 9.46027 37.6152 9.35604C37.498 9.25181 37.3612 9.1997 37.2048 9.1997C37.0485 9.1997 36.9182 9.25181 36.814 9.35604C36.7098 9.46027 36.6576 9.59056 36.6576 9.7469C36.6576 10.242 36.4753 10.6784 36.1105 11.0563C35.7456 11.4341 35.3027 11.623 34.7815 11.623C34.6252 11.623 34.4949 11.6751 34.3907 11.7794C34.2864 11.8836 34.2343 12.0139 34.2343 12.1702C34.2343 12.3266 34.2864 12.4568 34.3907 12.5611C34.4949 12.6653 34.6252 12.7174 34.7815 12.7174C35.3027 12.7174 35.7456 12.9063 36.1105 13.2842C36.4753 13.662 36.6576 14.1115 36.6576 14.6326C36.6576 14.789 36.7098 14.9192 36.814 15.0235C36.9182 15.1277 37.0485 15.1798 37.2048 15.1798C37.3612 15.1798 37.498 15.1277 37.6152 15.0235C37.7325 14.9192 37.7911 14.789 37.7911 14.6326C37.7911 14.1115 37.9735 13.662 38.3383 13.2842C38.7031 12.9063 39.1461 12.7174 39.6673 12.7174C39.8236 12.7174 39.9539 12.6653 40.0581 12.5611C40.1623 12.4568 40.2145 12.3266 40.2145 12.1702C40.2145 12.0139 40.1623 11.8836 40.0581 11.7794C39.9539 11.6751 39.8236 11.623 39.6673 11.623ZM37.1267 12.9519C37.0485 12.8477 36.9508 12.737 36.8335 12.6197C36.7163 12.5024 36.5795 12.3787 36.4231 12.2484C36.5534 12.1702 36.6772 12.0725 36.7944 11.9552C36.9117 11.838 37.0224 11.7012 37.1267 11.5448C37.2048 11.6751 37.3026 11.7989 37.4198 11.9162C37.5371 12.0334 37.6869 12.1442 37.8693 12.2484C37.6869 12.3266 37.5371 12.4243 37.4198 12.5415C37.3026 12.6588 37.2048 12.7956 37.1267 12.9519ZM5.7799 11.623C5.25876 11.623 4.81579 11.4341 4.45099 11.0563C4.08619 10.6784 3.90379 10.242 3.90379 9.7469C3.90379 9.59056 3.85167 9.46027 3.74745 9.35604C3.64322 9.25181 3.51293 9.1997 3.35659 9.1997C3.20024 9.1997 3.06996 9.25181 2.96573 9.35604C2.8615 9.46027 2.80939 9.59056 2.80939 9.7469C2.80939 10.242 2.62047 10.6784 2.24264 11.0563C1.86481 11.4341 1.41533 11.623 0.894185 11.623C0.737842 11.623 0.607557 11.6751 0.503328 11.7794C0.399099 11.8836 0.346985 12.0139 0.346985 12.1702C0.346985 12.3266 0.373042 12.4699 0.425156 12.6002C0.477271 12.7304 0.581499 12.7956 0.737842 12.7956C1.25899 12.7956 1.70196 12.9845 2.06676 13.3623C2.43156 13.7402 2.61396 14.1896 2.61396 14.7108C2.61396 14.8671 2.67259 14.9974 2.78984 15.1016C2.9071 15.2059 3.0439 15.258 3.20024 15.258C3.35659 15.258 3.48687 15.2059 3.5911 15.1016C3.69533 14.9974 3.74745 14.8671 3.74745 14.7108C3.74745 14.1896 3.92985 13.7402 4.29465 13.3623C4.65945 12.9845 5.10242 12.7956 5.62356 12.7956C5.7799 12.7956 5.91019 12.7435 6.01442 12.6392C6.11865 12.535 6.17076 12.4047 6.17076 12.2484C6.17076 12.092 6.1447 11.9487 6.09259 11.8184C6.04048 11.6882 5.93625 11.623 5.7799 11.623ZM3.27842 12.9519C3.20024 12.8477 3.10253 12.737 2.98527 12.6197C2.86802 12.5024 2.71819 12.3787 2.53579 12.2484C2.66607 12.1702 2.78984 12.0725 2.9071 11.9552C3.02436 11.838 3.14813 11.7012 3.27842 11.5448C3.35659 11.6751 3.4543 11.7989 3.57156 11.9162C3.68882 12.0334 3.82562 12.1442 3.98196 12.2484C3.85167 12.3266 3.7279 12.4243 3.61065 12.5415C3.49339 12.6588 3.38265 12.7956 3.27842 12.9519ZM23.3685 4.15764C22.6389 4.15764 22.0331 3.90358 21.551 3.39547C21.0689 2.88735 20.8279 2.29455 20.8279 1.61707C20.8279 1.46072 20.7758 1.33043 20.6716 1.22621C20.5673 1.12198 20.4371 1.06986 20.2807 1.06986C20.1244 1.06986 19.9941 1.12198 19.8899 1.22621C19.7856 1.33043 19.7335 1.46072 19.7335 1.61707C19.7335 2.32061 19.4795 2.91992 18.9713 3.41501C18.4632 3.9101 17.8704 4.15764 17.1929 4.15764C17.0366 4.15764 16.9063 4.20975 16.8021 4.31398C16.6979 4.41821 16.6457 4.5485 16.6457 4.70484C16.6457 4.86118 16.6979 4.99147 16.8021 5.0957C16.9063 5.19992 17.0366 5.25204 17.1929 5.25204C17.9225 5.25204 18.5284 5.5061 19.0104 6.01421C19.4925 6.52233 19.7335 7.1021 19.7335 7.75353C19.7335 7.90987 19.7856 8.04016 19.8899 8.14439C19.9941 8.24861 20.1244 8.30073 20.2807 8.30073C20.4371 8.30073 20.5673 8.24861 20.6716 8.14439C20.7758 8.04016 20.8279 7.90987 20.8279 7.75353C20.8279 7.04998 21.082 6.45718 21.5901 5.97512C22.0982 5.49307 22.691 5.25204 23.3685 5.25204C23.5248 5.25204 23.6551 5.19992 23.7594 5.0957C23.8636 4.99147 23.9157 4.86118 23.9157 4.70484C23.9157 4.5485 23.8636 4.41821 23.7594 4.31398C23.6551 4.20975 23.5248 4.15764 23.3685 4.15764ZM20.2025 5.87741C20.0462 5.64289 19.8833 5.42793 19.714 5.23249C19.5446 5.03707 19.3427 4.86118 19.1081 4.70484C19.3427 4.5485 19.5511 4.37261 19.7335 4.17718C19.9159 3.98175 20.0723 3.79284 20.2025 3.61044C20.3589 3.84495 20.5348 4.05341 20.7302 4.23581C20.9256 4.41821 21.1145 4.57455 21.2969 4.70484C21.1145 4.86118 20.9256 5.03707 20.7302 5.23249C20.5348 5.42793 20.3589 5.64289 20.2025 5.87741ZM32.3973 20.8473L30.1303 14.3199C30.0522 14.0854 29.9023 13.8965 29.6808 13.7532C29.4594 13.6099 29.2183 13.5382 28.9578 13.5382H11.2128C10.9523 13.5382 10.7243 13.6099 10.5288 13.7532C10.3334 13.8965 10.1705 14.0854 10.0403 14.3199L7.77328 20.7691C7.66905 20.9775 7.68208 21.1599 7.81236 21.3163C7.94265 21.4726 8.11202 21.5508 8.32048 21.5508H31.8501C31.9283 21.5508 32.0195 21.5313 32.1237 21.4922C32.2279 21.4531 32.2931 21.3945 32.3191 21.3163C32.3973 21.2381 32.4429 21.1599 32.4559 21.0818C32.469 21.0036 32.4494 20.9254 32.3973 20.8473ZM9.18037 20.4564L11.2128 14.789H29.0359L31.0684 20.4564H9.18037ZM31.3811 28.5862C30.3648 28.5862 29.4919 28.8207 28.7623 29.2898C28.0327 29.7588 27.6679 30.3321 27.6679 31.0096C27.6679 31.687 28.0327 32.2603 28.7623 32.7293C29.4919 33.1984 30.3648 33.4329 31.3811 33.4329C32.4234 33.4329 33.3028 33.1984 34.0194 32.7293C34.7359 32.2603 35.0942 31.687 35.0942 31.0096C35.0942 30.3321 34.7424 29.7588 34.0389 29.2898C33.3354 28.8207 32.4494 28.5862 31.3811 28.5862ZM31.3811 32.3385C30.6515 32.3385 30.0522 32.2017 29.5831 31.9281C29.1141 31.6545 28.8796 31.3744 28.8796 31.0877C28.8796 30.775 29.1206 30.4884 29.6027 30.2278C30.0847 29.9673 30.6775 29.837 31.3811 29.837C32.1367 29.837 32.7491 29.9738 33.2181 30.2474C33.6871 30.521 33.9216 30.8011 33.9216 31.0877C33.9477 31.3744 33.7197 31.6545 33.2376 31.9281C32.7556 32.2017 32.1367 32.3385 31.3811 32.3385ZM8.86768 28.5862C7.82539 28.5862 6.94596 28.8207 6.22939 29.2898C5.51282 29.7588 5.15453 30.3321 5.15453 31.0096C5.15453 31.687 5.51282 32.2603 6.22939 32.7293C6.94596 33.1984 7.82539 33.4329 8.86768 33.4329C9.88391 33.4329 10.7503 33.1984 11.4669 32.7293C12.1835 32.2603 12.5417 31.687 12.5417 31.0096C12.5417 30.3321 12.1835 29.7588 11.4669 29.2898C10.7503 28.8207 9.88391 28.5862 8.86768 28.5862ZM8.86768 32.3385C8.11202 32.3385 7.49968 32.2017 7.03065 31.9281C6.56162 31.6545 6.32711 31.3744 6.32711 31.0877C6.32711 30.775 6.57465 30.4884 7.06973 30.2278C7.56482 29.9673 8.16414 29.837 8.86768 29.837C9.57122 29.837 10.164 29.9738 10.6461 30.2474C11.1281 30.521 11.3692 30.8011 11.3692 31.0877C11.3692 31.3744 11.1281 31.6545 10.6461 31.9281C10.164 32.2017 9.57122 32.3385 8.86768 32.3385ZM38.9637 19.831H35.7978C35.6935 19.831 35.5893 19.8701 35.4851 19.9483C35.3808 20.0265 35.3027 20.1437 35.2506 20.3001L34.8597 21.8635L31.9283 13.6946C31.6938 13.0431 31.3159 12.535 30.7948 12.1702C30.2736 11.8054 29.6874 11.623 29.0359 11.623H11.2128C10.5614 11.623 9.96208 11.8184 9.41488 12.2093C8.86768 12.6002 8.50288 13.0952 8.32048 13.6946L5.46722 21.8635L5.07636 20.2219C5.02425 20.0916 4.94607 19.9809 4.84185 19.8897C4.73762 19.7985 4.63339 19.7529 4.52916 19.7529H1.36321C1.20687 19.7529 1.07659 19.805 0.972357 19.9092C0.868128 20.0134 0.816014 20.1437 0.816014 20.3001V22.8015C0.816014 22.9579 0.868128 23.0882 0.972357 23.1924C1.07659 23.2966 1.20687 23.3487 1.36321 23.3487H4.60733L2.53579 26.2802C2.35339 26.5668 2.21659 26.8599 2.12539 27.1596C2.03419 27.4593 1.98859 27.7654 1.98859 28.0781V35.4262C1.98859 35.9474 2.09933 36.4164 2.32082 36.8333C2.5423 37.2502 2.8615 37.615 3.27842 37.9277V39.8429C3.27842 40.1817 3.39567 40.4618 3.63019 40.6833C3.8647 40.9048 4.1383 41.0155 4.45099 41.0155H8.24231C8.58105 41.0155 8.86117 40.8982 9.08265 40.6637C9.30414 40.4292 9.41488 40.1556 9.41488 39.8429V38.5922H30.8339V39.8429C30.8339 40.1817 30.9511 40.4618 31.1856 40.6833C31.4202 40.9048 31.6938 41.0155 32.0064 41.0155H35.7978C36.1626 41.0155 36.4492 40.8982 36.6576 40.6637C36.8661 40.4292 36.9703 40.1556 36.9703 39.8429V37.9277C37.3612 37.6672 37.6739 37.3154 37.9084 36.8724C38.1429 36.4294 38.2602 35.9474 38.2602 35.4262V28.0781C38.2602 27.7654 38.208 27.4593 38.1038 27.1596C37.9996 26.8599 37.8563 26.5668 37.6739 26.2802L35.7196 23.4269H38.9637C39.1201 23.4269 39.2503 23.3748 39.3546 23.2706C39.4588 23.1663 39.5109 23.0361 39.5109 22.8797V20.3782C39.5109 20.2219 39.4588 20.0916 39.3546 19.9874C39.2503 19.8831 39.1201 19.831 38.9637 19.831ZM1.91041 22.3325V21.0036H4.06013L4.37282 22.3325H1.91041ZM8.24231 39.8429H4.45099V38.5922H8.24231C8.24231 38.5401 8.24231 38.7355 8.24231 39.1785C8.24231 39.6214 8.24231 39.8429 8.24231 39.8429ZM35.8759 39.8429C35.8759 39.8429 35.8694 39.8429 35.8564 39.8429C35.8434 39.8429 35.8499 39.8429 35.8759 39.8429H32.0846V38.5922H35.8759V39.8429ZM35.1724 37.3805H5.07636C4.63339 37.3805 4.24905 37.2568 3.92333 37.0092C3.59762 36.7617 3.38265 36.4425 3.27842 36.0516H36.9703C36.8661 36.4164 36.6511 36.7291 36.3254 36.9897C35.9997 37.2502 35.6154 37.3805 35.1724 37.3805ZM25.1664 31.0096V32.3385H15.0823V31.0096H25.1664ZM15.1605 29.837C15.2908 29.4461 15.5188 29.1204 15.8445 28.8598C16.1702 28.5993 16.5415 28.469 16.9584 28.469H23.2903C23.7072 28.469 24.0786 28.5993 24.4043 28.8598C24.73 29.1204 24.958 29.4461 25.0883 29.837H15.1605ZM25.1664 33.5501V34.879H15.0823V33.5501H25.1664ZM36.7358 26.9837C36.8661 27.1401 36.9638 27.3159 37.029 27.5114C37.0941 27.7068 37.1267 27.8957 37.1267 28.0781V34.879H26.339V30.4623C26.339 29.6025 26.0328 28.8729 25.4205 28.2735C24.8082 27.6742 24.0981 27.3746 23.2903 27.3746H16.9584C16.0985 27.3746 15.3755 27.6807 14.7892 28.2931C14.2029 28.9054 13.9097 29.6285 13.9097 30.4623V34.879H3.20024V28.0781C3.20024 27.8957 3.23282 27.7068 3.29796 27.5114C3.3631 27.3159 3.46082 27.1401 3.5911 26.9837L6.09259 23.5442H27.7852C27.9415 23.5442 28.0718 23.4855 28.176 23.3683C28.2803 23.251 28.3324 23.1142 28.3324 22.9579C28.3324 22.8015 28.2803 22.6713 28.176 22.567C28.0718 22.4628 27.9415 22.4107 27.7852 22.4107H6.56162L9.49305 14.2418C9.59728 13.8509 9.82528 13.5382 10.1771 13.3037C10.5288 13.0692 10.9001 12.9519 11.291 12.9519H29.1141C29.505 12.9519 29.8763 13.0757 30.228 13.3232C30.5798 13.5708 30.8078 13.877 30.912 14.2418L33.8435 22.4107H30.2867C30.1303 22.4107 30 22.4628 29.8958 22.567C29.7916 22.6713 29.7395 22.8015 29.7395 22.9579C29.7395 23.1142 29.7916 23.251 29.8958 23.3683C30 23.4855 30.1303 23.5442 30.2867 23.5442H34.3907L36.7358 26.9837ZM38.3383 22.3325H35.8759L36.1886 21.0036H38.3383V22.3325ZM10.7438 26.671H6.95248C6.79613 26.671 6.66585 26.7231 6.56162 26.8274C6.45739 26.9316 6.40528 27.0619 6.40528 27.2182C6.40528 27.3746 6.45739 27.5049 6.56162 27.6091C6.66585 27.7133 6.79613 27.7654 6.95248 27.7654H10.7438C10.9001 27.7654 11.0304 27.7133 11.1347 27.6091C11.2389 27.5049 11.291 27.3746 11.291 27.2182C11.291 27.114 11.2389 26.9967 11.1347 26.8665C11.0304 26.7362 10.9001 26.671 10.7438 26.671ZM33.2963 26.671H29.505C29.3486 26.671 29.2183 26.7231 29.1141 26.8274C29.0099 26.9316 28.9578 27.0619 28.9578 27.2182C28.9578 27.3746 29.0099 27.5049 29.1141 27.6091C29.2183 27.7133 29.3486 27.7654 29.505 27.7654H33.2963C33.4526 27.7654 33.5829 27.7133 33.6871 27.6091C33.7914 27.5049 33.8435 27.3746 33.8435 27.2182C33.8695 27.114 33.8239 26.9967 33.7067 26.8665C33.5894 26.7362 33.4526 26.671 33.2963 26.671Z" fill="#F77F00"/>
</g>
<defs>
<clipPath id="clip0_1_878">
<rect width="41" height="41" fill="white" transform="matrix(1 0 0 -1 0.346985 41.5035)"/>
</clipPath>
</defs>
</svg>
