<svg width="42" height="42" viewBox="0 0 42 42" fill="none" xmlns="http://www.w3.org/2000/svg">
<g clip-path="url(#clip0_1_847)">
<path d="M17.2711 18.0339C16.4373 18.8938 15.7924 19.8644 15.3364 20.9458C14.8804 22.0271 14.6524 23.1671 14.6524 24.3658C14.6524 25.5644 14.8804 26.7109 15.3364 27.8053C15.7924 28.8997 16.4373 29.8768 17.2711 30.7367C18.131 31.5966 19.1081 32.2481 20.2025 32.691C21.2969 33.134 22.4435 33.3555 23.6421 33.3555C24.8407 33.3555 25.9872 33.134 27.0816 32.691C28.176 32.2481 29.1402 31.5966 29.974 30.7367C30.8599 29.8508 31.5244 28.8606 31.9674 27.7662C32.3843 26.6718 32.5927 25.5448 32.5927 24.3853C32.5927 23.2258 32.3843 22.0988 31.9674 21.0044C31.5244 19.91 30.8599 18.9198 29.974 18.0339C29.1141 17.1479 28.1239 16.4965 27.0035 16.0796C25.9091 15.6366 24.7886 15.4151 23.6421 15.4151C22.4956 15.4151 21.3621 15.6366 20.2416 16.0796C19.1472 16.4965 18.1571 17.1479 17.2711 18.0339ZM28.9578 29.7205C28.2542 30.424 27.4399 30.9712 26.5149 31.3621C25.5899 31.753 24.6323 31.9484 23.6421 31.9484C22.6259 31.9484 21.6552 31.753 20.7302 31.3621C19.8052 30.9712 18.9909 30.424 18.2873 29.7205C17.5838 29.017 17.0431 28.2027 16.6653 27.2776C16.2875 26.3526 16.0985 25.382 16.0985 24.3658C16.0985 23.3756 16.2875 22.418 16.6653 21.493C17.0431 20.5679 17.5838 19.7536 18.2873 19.0501C19.0169 18.3205 19.8508 17.7668 20.7888 17.389C21.7269 17.0111 22.678 16.8222 23.6421 16.8222C24.6062 16.8222 25.5508 17.0111 26.4758 17.389C27.4008 17.7668 28.2282 18.3205 28.9578 19.0501C29.6874 19.7797 30.2476 20.6135 30.6384 21.5516C31.0032 22.4636 31.1856 23.4082 31.1856 24.3853C31.1856 25.3624 31.0032 26.307 30.6384 27.219C30.2476 28.1571 29.6874 28.9909 28.9578 29.7205ZM39.9409 20.6526C39.9148 20.4963 39.8366 20.366 39.7063 20.2618C39.5761 20.1575 39.4327 20.1054 39.2764 20.1054H37.283C37.1788 19.6885 37.042 19.2846 36.8726 18.8938C36.7033 18.5029 36.5143 18.1251 36.3059 17.7603L37.713 16.3532C37.8172 16.2489 37.8823 16.1121 37.9084 15.9428C37.9345 15.7734 37.8954 15.6105 37.7911 15.4542C37.4785 14.9331 37.1267 14.4315 36.7358 13.9494C36.345 13.4673 35.928 13.0048 35.4851 12.5619C35.0421 12.0928 34.5731 11.6629 34.078 11.272C33.5829 10.8812 33.0748 10.5294 32.5536 10.2167C32.3973 10.1125 32.241 10.0734 32.0846 10.0995C31.9283 10.1255 31.785 10.1907 31.6547 10.2949L30.2867 11.702C29.8958 11.4935 29.505 11.3111 29.1141 11.1548C28.7232 10.9984 28.3194 10.8551 27.9024 10.7248V8.77054C27.9024 8.58814 27.8503 8.4318 27.7461 8.30151C27.6419 8.17123 27.5116 8.09306 27.3552 8.067C26.8602 7.93671 26.3651 7.839 25.87 7.77385C25.3749 7.70871 24.8798 7.67614 24.3847 7.67614C24.4108 7.57191 24.4108 7.48071 24.3847 7.40254C24.3587 7.32437 24.3196 7.2462 24.2675 7.16803C24.033 6.75111 23.7594 6.35374 23.4467 5.97591C23.134 5.59808 22.8083 5.2398 22.4695 4.90105C22.1308 4.56231 21.7725 4.2366 21.3947 3.92391C21.0168 3.61122 20.6195 3.33762 20.2025 3.10311C20.0723 2.99888 19.9224 2.95979 19.7531 2.98585C19.5837 3.01191 19.4469 3.07705 19.3427 3.18128L18.3655 4.15842C18.1049 4.02814 17.8379 3.90437 17.5643 3.78711C17.2907 3.66985 17.0236 3.57214 16.763 3.49397V2.12596C16.763 1.96962 16.7109 1.81979 16.6067 1.67648C16.5024 1.53316 16.3591 1.44847 16.1767 1.42242C15.2387 1.21396 14.2811 1.10973 13.3039 1.10973C12.3268 1.10973 11.3692 1.21396 10.4311 1.42242C10.2748 1.44847 10.1445 1.53316 10.0403 1.67648C9.93602 1.81979 9.88391 1.96962 9.88391 2.12596V3.49397C9.59728 3.57214 9.32368 3.66985 9.06311 3.78711C8.80254 3.90437 8.54196 4.02814 8.28139 4.15842L7.30425 3.18128C7.17396 3.07705 7.02413 3.01191 6.85476 2.98585C6.68539 2.95979 6.53556 2.99888 6.40528 3.10311C5.98836 3.33762 5.59099 3.61122 5.21316 3.92391C4.83533 4.2366 4.47705 4.56231 4.1383 4.90105C3.79956 5.2398 3.48036 5.59808 3.1807 5.97591C2.88104 6.35374 2.60093 6.75111 2.34036 7.16803C2.23613 7.29831 2.19704 7.44814 2.2231 7.61751C2.24916 7.78688 2.3143 7.93671 2.41853 8.067L3.39567 9.00505C3.26539 9.26563 3.14813 9.53271 3.0439 9.80631C2.93967 10.0799 2.83544 10.36 2.73122 10.6467H1.36321C1.20687 10.6467 1.06356 10.6988 0.933271 10.803C0.802985 10.9072 0.711785 11.0375 0.659671 11.1939C0.451214 12.1319 0.346985 13.0895 0.346985 14.0667C0.346985 15.0438 0.451214 16.0014 0.659671 16.9395C0.711785 17.0958 0.802985 17.2261 0.933271 17.3303C1.06356 17.4345 1.20687 17.4867 1.36321 17.4867H2.73122C2.83544 17.7733 2.93967 18.0534 3.0439 18.327C3.14813 18.6006 3.26539 18.8677 3.39567 19.1283L2.41853 20.0663C2.3143 20.1966 2.24916 20.3464 2.2231 20.5158C2.19704 20.6852 2.23613 20.835 2.34036 20.9653C2.60093 21.3822 2.88104 21.7796 3.1807 22.1574C3.48036 22.5352 3.79956 22.8935 4.1383 23.2323C4.47705 23.571 4.83533 23.8902 5.21316 24.1899C5.59099 24.4895 5.98836 24.7696 6.40528 25.0302C6.45739 25.0823 6.51602 25.1149 6.58116 25.1279C6.64631 25.141 6.71796 25.1475 6.79613 25.1475C6.82219 25.1475 6.84173 25.1475 6.85476 25.1475C6.86779 25.1475 6.88733 25.1475 6.91339 25.1475C6.93945 25.6426 6.98505 26.1376 7.05019 26.6327C7.11533 27.1278 7.20002 27.6229 7.30425 28.118C7.33031 28.2743 7.40848 28.4046 7.53876 28.5088C7.66905 28.6131 7.82539 28.6652 8.00779 28.6652H9.96208C10.0924 29.0821 10.2357 29.486 10.392 29.8768C10.5484 30.2677 10.7308 30.6455 10.9392 31.0103L9.57122 32.4174C9.44094 32.5217 9.36928 32.6585 9.35625 32.8278C9.34322 32.9972 9.37579 33.1601 9.45397 33.3164C9.79271 33.8375 10.1575 34.3391 10.5484 34.8212C10.9392 35.3033 11.3561 35.7658 11.7991 36.2087C12.2421 36.6517 12.7046 37.0686 13.1867 37.4595C13.6687 37.8503 14.1833 38.2151 14.7305 38.5539C14.8608 38.6581 15.0107 38.6972 15.18 38.6711C15.3494 38.6451 15.4862 38.5799 15.5904 38.4757L16.9975 37.0686C17.3623 37.2771 17.7467 37.4595 18.1505 37.6158C18.5544 37.7722 18.9518 37.9155 19.3427 38.0458V40.0001C19.3427 40.1825 19.3948 40.3388 19.499 40.4691C19.6032 40.5994 19.7465 40.6775 19.9289 40.7036C20.5283 40.8599 21.1406 40.9707 21.766 41.0358C22.3913 41.101 23.0167 41.1335 23.6421 41.1335C24.2675 41.1335 24.8863 41.0945 25.4987 41.0163C26.111 40.9381 26.7299 40.8339 27.3552 40.7036C27.5116 40.6775 27.6419 40.5994 27.7461 40.4691C27.8503 40.3388 27.9024 40.1825 27.9024 40.0001V38.0458C28.3194 37.9155 28.7232 37.7722 29.1141 37.6158C29.505 37.4595 29.8958 37.2771 30.2867 37.0686L31.6547 38.4757C31.785 38.5799 31.9283 38.6451 32.0846 38.6711C32.241 38.6972 32.3973 38.6581 32.5536 38.5539C33.0748 38.2151 33.5829 37.8503 34.078 37.4595C34.5731 37.0686 35.0421 36.6517 35.4851 36.2087C35.928 35.7658 36.345 35.3033 36.7358 34.8212C37.1267 34.3391 37.4785 33.8375 37.7911 33.3164C37.8954 33.1601 37.9345 32.9972 37.9084 32.8278C37.8823 32.6585 37.8172 32.5217 37.713 32.4174L36.3059 31.0103C36.5143 30.6455 36.7033 30.2677 36.8726 29.8768C37.042 29.486 37.1788 29.0821 37.283 28.6652H39.2373C39.4197 28.6652 39.5761 28.6131 39.7063 28.5088C39.8366 28.4046 39.9148 28.2743 39.9409 28.118C40.2275 26.8933 40.3708 25.6491 40.3708 24.3853C40.3708 23.1215 40.2275 21.8773 39.9409 20.6526ZM7.30425 20.6526C7.20002 21.0956 7.11533 21.532 7.05019 21.962C6.98505 22.3919 6.93945 22.8284 6.91339 23.2714L6.67888 23.5059C6.41831 23.3235 6.15773 23.1215 5.89716 22.9C5.63659 22.6786 5.38905 22.4506 5.15453 22.216C4.92002 21.9815 4.69202 21.734 4.47053 21.4734C4.24905 21.2128 4.0471 20.9523 3.8647 20.6917L4.80276 19.7536C4.90699 19.6234 4.97213 19.48 4.99819 19.3237C5.02425 19.1674 4.99819 19.024 4.92002 18.8938C4.71156 18.529 4.52916 18.1576 4.37282 17.7798C4.21647 17.402 4.08619 17.0046 3.98196 16.5877C3.92985 16.4313 3.83865 16.3076 3.70836 16.2164C3.57807 16.1252 3.43476 16.0796 3.27842 16.0796H1.9495C1.84527 15.4021 1.79316 14.7311 1.79316 14.0667C1.79316 13.4022 1.84527 12.7312 1.9495 12.0537H3.27842C3.43476 12.0537 3.57807 12.0081 3.70836 11.9169C3.83865 11.8257 3.92985 11.702 3.98196 11.5456C4.08619 11.1287 4.21647 10.7313 4.37282 10.3535C4.52916 9.97569 4.71156 9.60437 4.92002 9.23957C4.99819 9.10928 5.02425 8.96597 4.99819 8.80963C4.97213 8.65328 4.90699 8.50997 4.80276 8.37968L3.8647 7.44163C4.0471 7.18105 4.24905 6.92048 4.47053 6.65991C4.69202 6.39934 4.92002 6.15179 5.15453 5.91728C5.38905 5.68277 5.63659 5.45477 5.89716 5.23328C6.15773 5.0118 6.41831 4.80985 6.67888 4.62745L7.61693 5.56551C7.74722 5.66974 7.89054 5.73488 8.04688 5.76094C8.20322 5.78699 8.34654 5.76094 8.47682 5.68277C8.84162 5.47431 9.21945 5.29191 9.61031 5.13557C10.0012 4.97922 10.392 4.83591 10.7829 4.70562C10.9392 4.67957 11.063 4.60139 11.1542 4.47111C11.2454 4.34082 11.291 4.19751 11.291 4.04116V2.71225C11.9685 2.60802 12.646 2.55591 13.3235 2.55591C14.0009 2.55591 14.6654 2.60802 15.3168 2.71225V4.04116C15.3168 4.19751 15.3624 4.34082 15.4536 4.47111C15.5448 4.60139 15.6686 4.67957 15.8249 4.70562C16.2419 4.83591 16.6392 4.97922 17.0171 5.13557C17.3949 5.29191 17.7662 5.47431 18.131 5.68277C18.2613 5.76094 18.4111 5.78699 18.5805 5.76094C18.7499 5.73488 18.8867 5.66974 18.9909 5.56551L19.9289 4.62745C20.1895 4.80985 20.4501 5.0118 20.7107 5.23328C20.9712 5.45477 21.2188 5.68277 21.4533 5.91728C21.6878 6.15179 21.9158 6.39934 22.1373 6.65991C22.3588 6.92048 22.5607 7.18105 22.7431 7.44163L22.5477 7.67614C22.1047 7.7022 21.6617 7.7478 21.2188 7.81294C20.7758 7.87808 20.3459 7.96277 19.9289 8.067C19.7465 8.09306 19.6032 8.17123 19.499 8.30151C19.3948 8.4318 19.3427 8.58814 19.3427 8.77054V10.4512C19.2124 10.2167 19.056 9.9822 18.8736 9.74768C18.6912 9.51317 18.4958 9.29169 18.2873 9.08323C17.6099 8.4318 16.8477 7.9302 16.0008 7.57843C15.154 7.22665 14.2615 7.05077 13.3235 7.05077C12.3854 7.05077 11.4864 7.22665 10.6265 7.57843C9.76665 7.9302 8.99796 8.4318 8.32048 9.08323C6.96551 10.4643 6.28802 12.1254 6.28802 14.0667C6.28802 16.0079 6.96551 17.6691 8.32048 19.0501C8.52894 19.2586 8.75042 19.4475 8.98494 19.6168C9.21945 19.7862 9.46699 19.9491 9.72757 20.1054H8.00779C7.82539 20.1054 7.66905 20.1575 7.53876 20.2618C7.40848 20.366 7.33031 20.4963 7.30425 20.6526ZM9.57122 16.3532L10.9392 17.7603C10.835 17.9166 10.7438 18.0925 10.6656 18.2879C10.5875 18.4834 10.5093 18.6723 10.4311 18.8547C10.2227 18.7504 10.0337 18.6267 9.86437 18.4834C9.69499 18.34 9.51911 18.1902 9.33671 18.0339C8.26836 16.9395 7.73419 15.6171 7.73419 14.0667C7.73419 12.5163 8.26836 11.1939 9.33671 10.0995C9.88391 9.57831 10.4963 9.17443 11.1737 8.8878C11.8512 8.60117 12.5678 8.45786 13.3235 8.45786C14.0531 8.45786 14.7631 8.60117 15.4536 8.8878C16.1441 9.17443 16.75 9.57831 17.2711 10.0995C17.4275 10.2558 17.5773 10.4252 17.7206 10.6076C17.8639 10.79 17.9877 10.9724 18.0919 11.1548C17.9095 11.2329 17.7271 11.3176 17.5447 11.4088C17.3623 11.5 17.1799 11.5977 16.9975 11.702L15.5904 10.2949C15.4862 10.1907 15.3494 10.1255 15.18 10.0995C15.0107 10.0734 14.8608 10.1125 14.7305 10.2167C14.1833 10.5294 13.6687 10.8812 13.1867 11.272C12.7046 11.6629 12.2421 12.0928 11.7991 12.5619C11.3561 13.0048 10.9392 13.4673 10.5484 13.9494C10.1575 14.4315 9.79271 14.9331 9.45397 15.4542C9.37579 15.6105 9.34322 15.7734 9.35625 15.9428C9.36928 16.1121 9.44094 16.2489 9.57122 16.3532ZM38.6901 27.219H36.7749C36.5925 27.219 36.4427 27.2711 36.3254 27.3754C36.2082 27.4796 36.1235 27.6099 36.0714 27.7662C35.915 28.2874 35.7326 28.802 35.5242 29.3101C35.3157 29.8182 35.0812 30.3198 34.8206 30.8149C34.7424 30.9452 34.7099 31.0885 34.7229 31.2448C34.7359 31.4012 34.8076 31.5445 34.9379 31.6748L36.2668 33.0037C36.0062 33.3946 35.7261 33.7724 35.4264 34.1372C35.1268 34.502 34.8076 34.8538 34.4688 35.1925C34.1301 35.5313 33.7718 35.857 33.394 36.1697C33.0162 36.4823 32.6318 36.769 32.241 37.0295L30.912 35.6615C30.7818 35.5573 30.6384 35.4922 30.4821 35.4661C30.3258 35.4401 30.1824 35.4791 30.0522 35.5834C29.5571 35.8439 29.0555 36.0785 28.5474 36.2869C28.0392 36.4954 27.5246 36.6778 27.0035 36.8341C26.8471 36.8602 26.7168 36.9383 26.6126 37.0686C26.5084 37.1989 26.4563 37.3422 26.4563 37.4986V39.4138C25.5443 39.5962 24.6062 39.6874 23.6421 39.6874C22.678 39.6874 21.7269 39.5962 20.7888 39.4138V37.4986C20.7888 37.3422 20.7367 37.1989 20.6325 37.0686C20.5283 36.9383 20.398 36.8602 20.2416 36.8341C19.7205 36.6778 19.2059 36.4954 18.6977 36.2869C18.1896 36.0785 17.7011 35.8439 17.232 35.5834C17.0757 35.4791 16.9193 35.4401 16.763 35.4661C16.6067 35.4922 16.4633 35.5573 16.3331 35.6615L15.0041 37.0295C14.6133 36.769 14.2355 36.4823 13.8707 36.1697C13.5059 35.857 13.1541 35.5313 12.8153 35.1925C12.4766 34.8538 12.1509 34.502 11.8382 34.1372C11.5255 33.7724 11.2389 33.3946 10.9783 33.0037L12.3463 31.6748C12.4505 31.5445 12.5157 31.4012 12.5417 31.2448C12.5678 31.0885 12.5417 30.9452 12.4636 30.8149C12.1769 30.3198 11.9294 29.8182 11.7209 29.3101C11.5125 28.802 11.3301 28.2874 11.1737 27.7662C11.1477 27.6099 11.0695 27.4796 10.9392 27.3754C10.8089 27.2711 10.6656 27.219 10.5093 27.219H8.59408C8.41168 26.281 8.32048 25.3364 8.32048 24.3853C8.32048 23.4342 8.41168 22.4896 8.59408 21.5516H10.5093C10.6656 21.5516 10.8089 21.4995 10.9392 21.3952C11.0695 21.291 11.1477 21.1607 11.1737 21.0044C11.3301 20.4832 11.5125 19.9686 11.7209 19.4605C11.9294 18.9524 12.1769 18.4508 12.4636 17.9557C12.5417 17.8254 12.5678 17.6821 12.5417 17.5257C12.5157 17.3694 12.4505 17.2261 12.3463 17.0958L10.9783 15.7669C11.2389 15.376 11.5255 14.9917 11.8382 14.6139C12.1509 14.236 12.4766 13.8777 12.8153 13.539C13.1541 13.2003 13.5059 12.8811 13.8707 12.5814C14.2355 12.2817 14.6133 12.0016 15.0041 11.7411L16.3331 13.07C16.4633 13.2003 16.6067 13.2719 16.763 13.2849C16.9193 13.298 17.0757 13.2654 17.232 13.1872C17.7011 12.9267 18.1896 12.6921 18.6977 12.4837C19.2059 12.2752 19.7205 12.0928 20.2416 11.9365C20.398 11.9104 20.5283 11.8323 20.6325 11.702C20.7367 11.5717 20.7888 11.4153 20.7888 11.2329V9.35683C21.7269 9.17443 22.6715 9.08323 23.6226 9.08323C24.5736 9.08323 25.5182 9.17443 26.4563 9.35683V11.2329C26.4563 11.4153 26.5084 11.5717 26.6126 11.702C26.7168 11.8323 26.8471 11.9104 27.0035 11.9365C27.5246 12.0928 28.0392 12.2752 28.5474 12.4837C29.0555 12.6921 29.5571 12.9267 30.0522 13.1872C30.1824 13.2654 30.3258 13.298 30.4821 13.2849C30.6384 13.2719 30.7818 13.2003 30.912 13.07L32.241 11.7411C32.6318 12.0016 33.0162 12.2817 33.394 12.5814C33.7718 12.8811 34.1301 13.2003 34.4688 13.539C34.8076 13.8777 35.1268 14.236 35.4264 14.6139C35.7261 14.9917 36.0062 15.376 36.2668 15.7669L34.9379 17.0958C34.8076 17.2261 34.7359 17.3694 34.7229 17.5257C34.7099 17.6821 34.7424 17.8254 34.8206 17.9557C35.0812 18.4508 35.3157 18.9524 35.5242 19.4605C35.7326 19.9686 35.915 20.4832 36.0714 21.0044C36.1235 21.1607 36.2082 21.291 36.3254 21.3952C36.4427 21.4995 36.5925 21.5516 36.7749 21.5516H38.6901C38.8465 22.4896 38.9246 23.4342 38.9246 24.3853C38.9246 25.3364 38.8465 26.281 38.6901 27.219ZM21.1015 21.8643C20.398 22.5418 20.0462 23.3756 20.0462 24.3658C20.0462 25.3559 20.398 26.2028 21.1015 26.9063C21.4403 27.2711 21.8311 27.5382 22.2741 27.7076C22.7171 27.877 23.1731 27.9616 23.6421 27.9616C24.0851 27.9616 24.528 27.877 24.971 27.7076C25.414 27.5382 25.8048 27.2711 26.1436 26.9063C26.8471 26.2028 27.1989 25.3559 27.1989 24.3658C27.1989 23.3756 26.8471 22.5418 26.1436 21.8643C25.4661 21.1607 24.6323 20.809 23.6421 20.809C22.6519 20.809 21.8051 21.1607 21.1015 21.8643ZM25.1274 25.8901C24.7104 26.307 24.2088 26.5155 23.6226 26.5155C23.0363 26.5155 22.5347 26.307 22.1178 25.8901C21.7008 25.4732 21.4924 24.9716 21.4924 24.3853C21.4924 23.799 21.7008 23.2974 22.1178 22.8805C22.3262 22.672 22.5607 22.5157 22.8213 22.4115C23.0819 22.3072 23.3555 22.2551 23.6421 22.2551C23.9027 22.2551 24.1632 22.3072 24.4238 22.4115C24.6844 22.5157 24.9189 22.672 25.1274 22.8805C25.5703 23.2974 25.7918 23.799 25.7918 24.3853C25.7918 24.9716 25.5703 25.4732 25.1274 25.8901Z" fill="#F77F00"/>
</g>
<defs>
<clipPath id="clip0_1_847">
<rect width="41" height="41" fill="white" transform="matrix(1 0 0 -1 0.346985 41.1135)"/>
</clipPath>
</defs>
</svg>
