<svg width="42" height="42" viewBox="0 0 42 42" fill="none" xmlns="http://www.w3.org/2000/svg">
<g clip-path="url(#clip0_1_841)">
<path d="M7.18699 37.694H8.86768V38.8666H7.18699V37.694ZM4.09922 38.7884H6.40528V37.6158H4.09922C3.89076 37.6158 3.71487 37.5377 3.57156 37.3813C3.42825 37.225 3.35659 37.0295 3.35659 36.795V36.0133H2.26219V36.795C2.26219 37.3683 2.43807 37.8438 2.78984 38.2217C3.14162 38.5995 3.57807 38.7884 4.09922 38.7884ZM23.4076 12.0537H24.7756V13.2654H23.4076V12.0537ZM20.867 12.0537H22.235V13.2654H20.867V12.0537ZM39.8236 15.1024L28.9968 5.37008C28.8405 5.21373 28.6451 5.09648 28.4106 5.01831C28.176 4.94014 27.9415 4.90105 27.707 4.90105H27.0035V0.601616H16.8803V4.90105C16.4633 4.9271 16.0985 5.11602 15.7859 5.46779C15.4732 5.81956 15.3168 6.24299 15.3168 6.73808V16.5095H14.5742V12.5228H6.01442V16.5095H2.57487C1.9495 16.5095 1.42184 16.7245 0.9919 17.1544C0.561957 17.5844 0.346985 18.112 0.346985 18.7374V38.3975C0.346985 38.9969 0.561957 39.518 0.9919 39.961C1.42184 40.4039 1.9495 40.6254 2.57487 40.6254H38.5338C39.0549 40.6254 39.4914 40.4495 39.8431 40.0978C40.1949 39.746 40.3708 39.3095 40.3708 38.7884V16.4313C40.3708 16.1447 40.3187 15.8907 40.2145 15.6692C40.1102 15.4477 39.9799 15.2588 39.8236 15.1024ZM18.0919 1.81327H25.87V2.75133H18.0919V1.81327ZM18.0919 3.96299H25.87V4.90105H18.0919V3.96299ZM12.8544 13.7344H13.4016V16.5095H12.8544V13.7344ZM10.8611 13.7344H11.6428V16.5095H10.8611V13.7344ZM8.86768 13.7344H9.64939V16.5095H8.86768V13.7344ZM7.18699 13.7344H7.73419V16.5095H7.18699V13.7344ZM19.03 36.795V38.3975C19.03 38.6842 18.9323 38.9252 18.7368 39.1206C18.5414 39.3161 18.3004 39.4138 18.0137 39.4138H2.57487C2.28824 39.4138 2.04722 39.3161 1.85179 39.1206C1.65636 38.9252 1.55864 38.6842 1.55864 38.3975V35.0362H19.03V36.795ZM19.03 33.8636H1.55864V23.3495H19.03V33.8636ZM19.03 22.177H1.55864V18.7374C1.55864 18.4508 1.65636 18.2097 1.85179 18.0143C2.04722 17.8189 2.28824 17.7212 2.57487 17.7212H18.0137C18.0137 17.7212 18.0268 17.7212 18.0528 17.7212C18.0789 17.7212 18.118 17.7212 18.1701 17.7212C18.4046 17.7472 18.6065 17.8515 18.7759 18.0339C18.9453 18.2163 19.03 18.4508 19.03 18.7374V22.177ZM19.9289 17.643C19.9289 17.5909 19.9159 17.5583 19.8899 17.5453C19.8638 17.5323 19.8508 17.5127 19.8508 17.4867C19.8508 17.4867 19.8377 17.4736 19.8117 17.4476C19.7856 17.4215 19.7726 17.4085 19.7726 17.4085C19.7726 17.4085 19.7596 17.3955 19.7335 17.3694C19.7075 17.3433 19.6944 17.3303 19.6944 17.3303C19.6944 17.3303 19.6814 17.3108 19.6553 17.2717C19.6293 17.2326 19.6163 17.2131 19.6163 17.2131C19.6163 17.2131 19.6032 17.2 19.5772 17.174C19.5511 17.1479 19.5381 17.1349 19.5381 17.1349C19.5381 17.1349 19.5251 17.1219 19.499 17.0958C19.4729 17.0697 19.4599 17.0567 19.4599 17.0567C19.4599 17.0567 19.4404 17.0437 19.4013 17.0176C19.3622 16.9916 19.3296 16.9785 19.3036 16.9785C19.2515 16.9785 19.2189 16.9655 19.2059 16.9395C19.1928 16.9134 19.1603 16.9004 19.1081 16.9004C19.0821 16.9004 19.0625 16.9004 19.0495 16.9004C19.0365 16.9004 19.0039 16.8743 18.9518 16.8222V9.74768C18.9518 9.64345 18.9909 9.55225 19.0691 9.47408C19.1472 9.39591 19.2515 9.35682 19.3817 9.35682H27.3943C27.4464 9.35682 27.5051 9.36985 27.5702 9.39591C27.6354 9.42197 27.681 9.435 27.707 9.435L36.6967 17.7993C36.7488 17.8254 36.7749 17.858 36.7749 17.8971C36.7749 17.9361 36.7749 17.9817 36.7749 18.0339C36.7749 18.0339 36.7749 18.0469 36.7749 18.0729C36.7749 18.099 36.7749 18.112 36.7749 18.112V36.4042C36.7749 36.5345 36.7423 36.6322 36.6772 36.6973C36.612 36.7625 36.5143 36.795 36.384 36.795H20.2416V18.7374C20.2416 18.7113 20.2416 18.6918 20.2416 18.6788C20.2416 18.6657 20.2416 18.6332 20.2416 18.5811C20.2416 18.555 20.2416 18.5355 20.2416 18.5224C20.2416 18.5094 20.2416 18.4768 20.2416 18.4247C20.2416 18.3726 20.2416 18.34 20.2416 18.327C20.2416 18.314 20.2416 18.2944 20.2416 18.2684C20.2416 18.2163 20.2416 18.1837 20.2416 18.1707C20.2416 18.1576 20.2416 18.1381 20.2416 18.112C20.2416 18.0599 20.2351 18.0273 20.2221 18.0143C20.2091 18.0013 20.1895 17.9817 20.1635 17.9557C20.1635 17.9036 20.1569 17.871 20.1439 17.858C20.1309 17.8449 20.1113 17.8254 20.0853 17.7993C20.0332 17.7472 19.9941 17.7081 19.968 17.6821C19.942 17.656 19.9289 17.643 19.9289 17.643ZM38.5338 39.4138H20.0071C20.0071 39.4138 20.0071 39.4007 20.0071 39.3747C20.0071 39.3486 20.0071 39.3356 20.0071 39.3356C20.0071 39.3356 20.0071 39.3095 20.0071 39.2574C20.0071 39.2574 20.0071 39.2444 20.0071 39.2183C20.0071 39.1923 20.0071 39.1793 20.0071 39.1793C20.0071 39.1793 20.0071 39.1662 20.0071 39.1402C20.0071 39.1141 20.0071 39.1011 20.0071 39.1011C20.0071 39.1011 20.0071 39.0881 20.0071 39.062C20.0071 39.0359 20.0071 39.0229 20.0071 39.0229C20.0071 39.0229 20.0071 39.0099 20.0071 38.9838C20.0071 38.9578 20.0071 38.9447 20.0071 38.9447C20.0071 38.9447 20.0071 38.9187 20.0071 38.8666C20.0071 38.8666 20.0071 38.8535 20.0071 38.8275C20.0071 38.8014 20.0071 38.7884 20.0071 38.7884C20.0071 38.7884 20.0071 38.7623 20.0071 38.7102C20.0071 38.7102 20.0071 38.6972 20.0071 38.6711C20.0071 38.6451 20.0071 38.6321 20.0071 38.6321C20.0071 38.606 20.0071 38.5865 20.0071 38.5734C20.0071 38.5604 20.0071 38.5278 20.0071 38.4757V38.0067H36.2277C36.6707 38.0067 37.0485 37.8503 37.3612 37.5377C37.6739 37.225 37.8302 36.8471 37.8302 36.4042V17.9557C37.8302 17.7472 37.7911 17.5388 37.713 17.3303C37.6348 17.1219 37.5175 16.9525 37.3612 16.8222L28.5278 8.49694C28.3975 8.36665 28.2672 8.27545 28.137 8.22334C28.0067 8.17122 27.8634 8.11911 27.707 8.06699C27.681 8.06699 27.6419 8.06699 27.5898 8.06699C27.5376 8.06699 27.4725 8.06699 27.3943 8.06699H19.1863C18.7694 8.06699 18.4046 8.22334 18.0919 8.53602C17.7792 8.84871 17.6229 9.22654 17.6229 9.66951V16.5095H16.4112V6.73808C16.4112 6.58174 16.4764 6.43191 16.6067 6.28859C16.7369 6.14528 16.8933 6.07362 17.0757 6.07362H27.707C27.7852 6.07362 27.8634 6.09316 27.9415 6.13225C28.0197 6.17134 28.1109 6.21693 28.2151 6.26905L38.9246 15.9623C39.0028 16.0405 39.0484 16.1187 39.0614 16.1968C39.0745 16.275 39.081 16.3532 39.081 16.4313V38.7884C39.1331 38.9447 39.094 39.0881 38.9637 39.2183C38.8334 39.3486 38.6901 39.4138 38.5338 39.4138ZM27.7852 29.6423C28.7493 29.6423 29.5766 29.2971 30.2671 28.6066C30.9576 27.916 31.3029 27.0887 31.3029 26.1246C31.3029 25.6035 31.1596 24.913 30.873 24.0531C30.5863 23.1671 30.2671 22.2942 29.9154 21.4343C29.5636 20.5744 29.2314 19.8057 28.9187 19.1283C28.606 18.4508 28.4236 18.0339 28.3715 17.8775L27.7852 16.8222L27.238 17.8775C27.1598 18.0339 26.9644 18.4508 26.6517 19.1283C26.339 19.8057 26.0068 20.5744 25.655 21.4343C25.3032 22.2942 24.984 23.1671 24.6974 24.0531C24.4368 24.913 24.3066 25.6035 24.3066 26.1246C24.3066 27.0887 24.6518 27.916 25.3423 28.6066C26.0328 29.2971 26.8471 29.6423 27.7852 29.6423ZM27.7852 19.4409C28.2803 20.4832 28.7884 21.6949 29.3095 23.0759C29.8307 24.457 30.0912 25.4732 30.0912 26.1246C30.0912 26.776 29.8698 27.3298 29.4268 27.7858C28.9838 28.2418 28.4366 28.4698 27.7852 28.4698C27.1598 28.4698 26.6191 28.2418 26.1631 27.7858C25.7071 27.3298 25.4791 26.776 25.4791 26.1246C25.4791 25.4732 25.7592 24.4504 26.3195 23.0564C26.8797 21.6623 27.3683 20.4572 27.7852 19.4409ZM21.336 32.0266H34.3125V33.2382H21.336V32.0266ZM5.66265 18.5811H14.8478V19.7927H5.66265V18.5811ZM21.336 34.2544H34.3125V35.4661H21.336V34.2544ZM10.2748 33.0037C10.9262 33.0037 11.4929 32.7692 11.975 32.3002C12.4571 31.8311 12.6981 31.2579 12.6981 30.5804C12.6981 29.929 12.4115 28.9583 11.8382 27.6685C11.2649 26.3787 10.9392 25.6295 10.8611 25.4211L10.2748 24.4048L9.72757 25.4211C9.64939 25.6295 9.32368 26.3656 8.75042 27.6294C8.17716 28.8932 7.89054 29.8768 7.89054 30.5804C7.89054 31.2318 8.12505 31.7986 8.59408 32.2806C9.06311 32.7627 9.62334 33.0037 10.2748 33.0037ZM10.2748 27.1018C10.5614 27.7792 10.835 28.4502 11.0956 29.1147C11.3561 29.7791 11.4864 30.2677 11.4864 30.5804C11.4864 30.9191 11.3692 31.2058 11.1347 31.4403C10.9001 31.6748 10.6135 31.792 10.2748 31.792C9.96208 31.792 9.68848 31.6748 9.45397 31.4403C9.21945 31.2058 9.10219 30.9191 9.10219 30.5804C9.10219 30.2677 9.21945 29.7661 9.45397 29.0756C9.68848 28.3851 9.96208 27.7271 10.2748 27.1018Z" fill="#F77F00"/>
</g>
<defs>
<clipPath id="clip0_1_841">
<rect width="41" height="41" fill="white" transform="matrix(1 0 0 -1 0.346985 41.1135)"/>
</clipPath>
</defs>
</svg>
