<svg width="48" height="42" viewBox="0 0 48 42" fill="none" xmlns="http://www.w3.org/2000/svg">
<g clip-path="url(#clip0_1_859)">
<path d="M14.8861 11.545C14.1565 10.8153 13.277 10.5873 12.2477 10.8609C11.2183 11.1345 10.5864 11.8968 10.3518 13.1476C10.3518 13.2258 10.3518 13.304 10.3518 13.3821C10.3518 13.4603 10.3518 13.5385 10.3518 13.6167C10.5864 14.8936 11.2313 15.6623 12.2867 15.9229C13.3421 16.1835 14.2086 15.949 14.8861 15.2193C15.4073 14.7503 15.6679 14.1509 15.6679 13.4212C15.6679 12.6916 15.4073 12.0662 14.8861 11.545ZM13.7526 14.1639C13.5962 14.3463 13.4073 14.4571 13.1858 14.4962C12.9643 14.5353 12.7363 14.5157 12.5017 14.4375C12.2933 14.3594 12.1174 14.2226 11.974 14.0271C11.8307 13.8317 11.759 13.6167 11.759 13.3821C11.759 13.1476 11.8242 12.9391 11.9545 12.7567C12.0848 12.5743 12.2672 12.431 12.5017 12.3268C12.6841 12.2486 12.8926 12.229 13.1271 12.2681C13.3617 12.3072 13.5702 12.418 13.7526 12.6004C14.0132 12.8349 14.1435 13.1085 14.1435 13.4212C14.1435 13.7339 14.0132 13.9815 13.7526 14.1639ZM33.6487 37.4999C34.0917 37.4999 34.5217 37.4217 34.9386 37.2653C35.3556 37.109 35.7334 36.8744 36.0722 36.5617C36.854 35.7539 37.1732 34.7571 37.0299 33.5715C36.8866 32.3858 36.1895 31.4932 34.9386 30.8939C34.8605 30.8418 34.7758 30.8027 34.6846 30.7766C34.5933 30.7506 34.4956 30.7375 34.3914 30.7375C32.5412 30.4509 31.2513 31.1219 30.5216 32.7506C29.792 34.3793 30.2219 35.8321 31.8115 37.109C31.9939 37.2393 32.1894 37.337 32.3979 37.4021C32.6063 37.4673 32.8148 37.4999 33.0233 37.4999H33.6487ZM33.8051 32.1447C33.8572 32.1447 33.8898 32.1447 33.9028 32.1447C33.9158 32.1447 33.9484 32.1447 34.0005 32.1447C34.8344 32.4053 35.3295 32.8874 35.4859 33.591C35.6422 34.2946 35.4598 34.907 34.9386 35.4282C34.5738 35.793 34.1308 35.9754 33.6096 35.9754C33.0884 35.9754 32.6324 35.793 32.2415 35.4282C32.0591 35.2718 31.9158 35.0764 31.8115 34.8418C31.7073 34.6073 31.6552 34.3467 31.6552 34.0601C31.7073 33.5389 31.9288 33.0894 32.3197 32.7115C32.7106 32.3336 33.2057 32.1447 33.8051 32.1447ZM37.2449 1.06921C37.0885 0.912857 36.9126 0.795593 36.7172 0.717415C36.5217 0.639236 36.3328 0.600147 36.1504 0.600147C35.9419 0.600147 35.7465 0.639236 35.564 0.717415C35.3816 0.795593 35.2253 0.912857 35.095 1.06921L23.8374 12.3268C23.629 12.5352 23.4726 12.7893 23.3684 13.089C23.2641 13.3887 23.212 13.6688 23.212 13.9294C23.212 14.2682 23.2641 14.5744 23.3684 14.848C23.4726 15.1216 23.629 15.3496 23.8374 15.532L24.072 15.7666C24.3065 16.0271 24.5932 16.2096 24.9319 16.3138C25.2707 16.418 25.6225 16.4571 25.9873 16.4311H26.0655L24.6192 17.8383C24.3847 18.0989 24.1306 18.366 23.857 18.6396C23.5834 18.9132 23.2902 19.1803 22.9775 19.4409C22.6387 19.1282 22.3195 18.848 22.0198 18.6005C21.7201 18.3529 21.4791 18.0989 21.2967 17.8383L19.8504 16.4311C19.8504 16.4311 19.8634 16.4311 19.8895 16.4311C19.9155 16.4311 19.9286 16.4311 19.9286 16.4311H20.554C20.7625 16.4311 20.9709 16.3789 21.1794 16.2747C21.3879 16.1705 21.5573 16.0532 21.6876 15.9229L23.212 14.4375C23.3684 14.2551 23.4466 14.0662 23.4466 13.8708C23.4466 13.6753 23.3684 13.5124 23.212 13.3821L14.5734 4.82173L10.8209 1.06921C10.5082 0.80862 10.1499 0.678326 9.74597 0.678326C9.34206 0.678326 8.98374 0.80862 8.67103 1.06921L0.657855 9.08239C0.397263 9.34298 0.266968 9.68827 0.266968 10.1182C0.266968 10.5482 0.397263 10.9196 0.657855 11.2323L11.9154 22.4898C12.1239 22.6983 12.3779 22.8546 12.6776 22.9589C12.9773 23.0631 13.2574 23.1152 13.518 23.1152C13.8568 23.1152 14.163 23.0631 14.4366 22.9589C14.7102 22.8546 14.9383 22.6983 15.1207 22.4898L15.9415 21.708C16.0979 21.5256 16.1695 21.3237 16.1565 21.1022C16.1435 20.8807 16.0979 20.6526 16.0197 20.4181C16.0197 20.4181 16.0197 20.4051 16.0197 20.379C16.0197 20.353 16.0197 20.3399 16.0197 20.3399C16.0197 20.3399 16.0197 20.3269 16.0197 20.3008C16.0197 20.2748 16.0197 20.2618 16.0197 20.2618L17.4269 21.708C17.6354 21.8905 17.8438 22.0989 18.0523 22.3335C18.2608 22.568 18.4823 22.8025 18.7168 23.0371C17.2315 24.2097 15.7721 25.2521 14.3389 26.1641C12.9056 27.0762 11.733 27.6365 10.8209 27.845C10.6124 27.8971 10.3975 27.9557 10.1759 28.0209C9.95445 28.086 9.73946 28.1577 9.53099 28.2358L9.21828 27.9231C9.06192 27.7668 8.89905 27.6495 8.72967 27.5713C8.56028 27.4932 8.37136 27.4541 8.16288 27.4541C7.98047 27.4541 7.79154 27.4932 7.5961 27.5713C7.40065 27.6495 7.25081 27.7668 7.14658 27.9231L6.09118 28.9785C5.93483 29.1349 5.81756 29.2912 5.73938 29.4476C5.66121 29.604 5.62212 29.7864 5.62212 29.9948C5.62212 30.2033 5.66121 30.3988 5.73938 30.5812C5.81756 30.7636 5.93483 30.9199 6.09118 31.0502L6.40389 31.3629C5.93483 32.3532 5.73938 33.4151 5.81756 34.5487C5.89574 35.6822 6.26057 36.7181 6.91204 37.6562C7.14658 38.021 7.41368 38.3468 7.71336 38.6334C8.01304 38.9201 8.33227 39.1807 8.67103 39.4152C9.5831 40.0667 10.5994 40.4315 11.72 40.5097C12.8405 40.5879 13.9219 40.3924 14.9643 39.9234L15.277 40.2361C15.4334 40.3924 15.5962 40.5097 15.7656 40.5879C15.935 40.6661 16.1239 40.7051 16.3324 40.7051C16.5409 40.7051 16.7363 40.6661 16.9187 40.5879C17.1012 40.5097 17.2445 40.3924 17.3487 40.2361L19.5377 38.0862L18.1696 36.7181C18.2478 36.5096 18.3259 36.3011 18.4041 36.0927C18.4823 35.8842 18.5344 35.6627 18.5605 35.4282C18.7689 34.5422 19.2836 33.4346 20.1045 32.1056C20.9253 30.7766 21.883 29.4085 22.9775 28.0013C24.2544 29.643 25.2642 31.1024 26.0069 32.3792C26.7496 33.6561 27.1991 34.6725 27.3554 35.4282C27.3815 35.6366 27.4336 35.8516 27.5118 36.0731C27.59 36.2946 27.6681 36.5096 27.7463 36.7181L27.4336 37.0308C27.2772 37.1872 27.16 37.35 27.0818 37.5194C27.0036 37.6888 26.9645 37.8777 26.9645 38.0862C26.9645 38.2686 27.0036 38.4575 27.0818 38.653C27.16 38.8484 27.2772 38.9983 27.4336 39.1025L28.489 40.1579C28.6454 40.3143 28.8017 40.4315 28.9581 40.5097C29.1144 40.5879 29.2968 40.627 29.5053 40.627C29.7138 40.627 29.9092 40.5879 30.0916 40.5097C30.274 40.4315 30.4304 40.3143 30.5607 40.1579L30.8734 39.8452C31.8637 40.3143 32.9256 40.5097 34.0591 40.4315C35.1927 40.3533 36.2286 39.9885 37.1667 39.337C37.323 39.2328 37.4924 39.1155 37.6748 38.9852C37.8573 38.8549 38.0136 38.7116 38.1439 38.5553C38.3003 38.3989 38.4436 38.236 38.5739 38.0667C38.7042 37.8973 38.8214 37.7344 38.9257 37.578C39.5772 36.666 39.942 35.6497 40.0202 34.5291C40.0983 33.4086 39.9029 32.3271 39.4338 31.2848L39.7465 30.9721C39.9029 30.8157 40.0202 30.6528 40.0983 30.4834C40.1765 30.3141 40.2156 30.1251 40.2156 29.9167C40.2156 29.7082 40.1765 29.5127 40.0983 29.3303C40.0202 29.1479 39.9029 29.0046 39.7465 28.9004L37.5967 26.7114L36.2286 28.0795C36.0201 28.0013 35.8116 27.9231 35.6031 27.845C35.3947 27.7668 35.1732 27.7147 34.9386 27.6886C34.1308 27.5323 33.0493 27.0436 31.6943 26.2228C30.3392 25.4019 28.7887 24.2879 27.0427 22.8807C27.2772 22.6462 27.4988 22.4116 27.7072 22.1771C27.9157 21.9426 28.1111 21.7341 28.2936 21.5517L29.7398 20.1054C29.7398 20.1054 29.7398 20.1184 29.7398 20.1445C29.7398 20.1705 29.7398 20.1836 29.7398 20.1836C29.7398 20.1836 29.7398 20.1966 29.7398 20.2227C29.7398 20.2487 29.7398 20.2618 29.7398 20.2618C29.7398 20.2618 29.7203 20.2813 29.6812 20.3204C29.6421 20.3595 29.3489 20.4181 28.8017 20.4963L30.7171 22.4116C30.8995 22.6201 31.1405 22.7765 31.4402 22.8807C31.7399 22.9849 32.033 23.0371 32.3197 23.0371C32.6324 23.0371 32.9256 22.9849 33.1992 22.8807C33.4728 22.7765 33.7139 22.6201 33.9223 22.4116L46.2743 10.0205L37.2449 1.06921ZM42.0528 12.3268L40.9974 13.3821L32.9451 5.32988L34.0005 4.27449L42.0528 12.3268ZM7.85017 8.26153L11.8372 4.27449L12.9708 5.32988L4.91852 13.3821L3.86313 12.3268L7.85017 8.26153ZM9.76552 2.12461L10.8209 3.14091L2.72955 11.2323L1.71325 10.1769L9.76552 2.12461ZM14.3389 21.1217L14.1044 21.3562C14.0262 21.4344 13.9415 21.4996 13.8503 21.5517C13.7591 21.6038 13.6483 21.6299 13.518 21.6299C13.4138 21.6299 13.3161 21.6038 13.2249 21.5517C13.1337 21.4996 13.049 21.4344 12.9708 21.3562L6.013 14.4375L14.0262 6.42436L21.5312 13.9294L20.7104 14.7503C20.6322 14.8284 20.541 14.8871 20.4367 14.9262C20.3325 14.9652 20.2152 14.9848 20.0849 14.9848C20.0849 14.9848 20.0784 14.9848 20.0654 14.9848C20.0524 14.9848 20.0328 14.9848 20.0068 14.9848C19.9286 14.9848 19.8569 14.9783 19.7918 14.9652C19.7266 14.9522 19.6419 14.9327 19.5377 14.9066C19.4856 14.9066 19.4269 14.9066 19.3618 14.9066C19.2966 14.9066 19.238 14.9066 19.1859 14.9066C19.1598 14.9066 19.1403 14.9066 19.1273 14.9066C19.1142 14.9066 19.0817 14.9066 19.0295 14.9066H18.9514C18.7689 14.9066 18.593 14.9196 18.4237 14.9457C18.2543 14.9718 18.0914 15.0108 17.9351 15.063C17.9351 15.063 17.922 15.063 17.896 15.063C17.8699 15.063 17.8569 15.063 17.8569 15.063C17.8048 15.089 17.7461 15.1151 17.681 15.1411C17.6158 15.1672 17.5702 15.1933 17.5442 15.2193C17.5442 15.2193 17.5246 15.2193 17.4855 15.2193C17.4464 15.2193 17.4269 15.2193 17.4269 15.2193H17.3487C17.3227 15.2193 17.2901 15.2389 17.251 15.278C17.2119 15.317 17.1663 15.3496 17.1142 15.3757L16.9578 15.4538C16.9578 15.4538 16.9448 15.4538 16.9187 15.4538C16.8927 15.4538 16.8797 15.4538 16.8797 15.4538C16.8536 15.506 16.808 15.5516 16.7428 15.5907C16.6777 15.6297 16.6191 15.6623 16.5669 15.6884C16.5148 15.6884 16.4823 15.7014 16.4692 15.7275C16.4562 15.7535 16.4367 15.7666 16.4106 15.7666C16.3324 15.8187 16.2673 15.8773 16.2152 15.9425C16.163 16.0076 16.0979 16.0662 16.0197 16.1184C15.9676 16.1444 15.909 16.1965 15.8438 16.2747C15.7787 16.3529 15.7331 16.4311 15.707 16.5092C15.707 16.5353 15.6875 16.5548 15.6484 16.5679C15.6093 16.5809 15.5897 16.6135 15.5897 16.6656C15.5637 16.6917 15.5311 16.7307 15.492 16.7829C15.4529 16.835 15.4073 16.9001 15.3552 16.9783C15.3552 16.9783 15.3552 16.9913 15.3552 17.0174C15.3552 17.0435 15.3291 17.0565 15.277 17.0565L15.1207 17.3692C15.1207 17.4213 15.1076 17.4539 15.0816 17.4669C15.0555 17.4799 15.0425 17.4995 15.0425 17.5255C15.0164 17.6558 14.9708 17.7796 14.9057 17.8969C14.8405 18.0142 14.7819 18.1379 14.7298 18.2682C14.7298 18.2943 14.7298 18.3138 14.7298 18.3269C14.7298 18.3399 14.7298 18.3725 14.7298 18.4246C14.6777 18.5028 14.6386 18.594 14.6125 18.6982C14.5865 18.8024 14.5734 18.8937 14.5734 18.9718C14.5734 19.0239 14.5734 19.0696 14.5734 19.1086C14.5734 19.1477 14.5734 19.1803 14.5734 19.2064C14.5734 19.2585 14.5734 19.3171 14.5734 19.3823C14.5734 19.4474 14.5734 19.493 14.5734 19.5191C14.5734 19.5712 14.5734 19.6298 14.5734 19.695C14.5734 19.7601 14.5734 19.8188 14.5734 19.8709V20.0272C14.5734 20.1054 14.5734 20.1705 14.5734 20.2227C14.5734 20.2748 14.5734 20.3399 14.5734 20.4181C14.5734 20.4181 14.5734 20.4311 14.5734 20.4572C14.5734 20.4833 14.5734 20.4963 14.5734 20.4963C14.5734 20.6266 14.5539 20.7439 14.5148 20.8481C14.4757 20.9523 14.4171 21.0435 14.3389 21.1217ZM18.5605 20.5745L16.3324 18.3464C16.3585 18.2161 16.4106 18.1119 16.4888 18.0337C16.5669 17.9555 16.6451 17.8643 16.7233 17.7601C16.7233 17.7601 16.7233 17.734 16.7233 17.6819C16.7233 17.6819 16.7298 17.6689 16.7428 17.6428C16.7559 17.6168 16.7754 17.6037 16.8015 17.6037C16.8536 17.5777 16.8992 17.5451 16.9383 17.506C16.9774 17.4669 17.01 17.4213 17.036 17.3692C17.0881 17.3431 17.1337 17.3106 17.1728 17.2715C17.2119 17.2324 17.2445 17.1868 17.2705 17.1347C17.2705 17.1347 17.2836 17.1216 17.3096 17.0956C17.3357 17.0695 17.3487 17.0565 17.3487 17.0565C17.3487 17.0565 17.3552 17.0565 17.3683 17.0565C17.3813 17.0565 17.4008 17.0304 17.4269 16.9783C17.5311 16.9001 17.6223 16.835 17.7005 16.7829C17.7787 16.7307 17.8829 16.6917 18.0132 16.6656L20.1631 18.9718C20.3716 19.1803 20.6126 19.4148 20.8862 19.6754C21.1599 19.936 21.453 20.2096 21.7657 20.4963C21.4791 20.7308 21.1794 20.9849 20.8667 21.2585C20.554 21.5321 20.2413 21.7862 19.9286 22.0207C19.694 21.7862 19.4595 21.5387 19.225 21.2781C18.9904 21.0175 18.7689 20.7829 18.5605 20.5745ZM34.7041 29.2912C34.9386 29.3173 35.1732 29.3694 35.4077 29.4476C35.6422 29.5258 35.8637 29.63 36.0722 29.7603C36.0722 29.7603 36.0852 29.7603 36.1113 29.7603C36.1374 29.7603 36.1504 29.7603 36.1504 29.7603C36.1504 29.7603 36.1764 29.7603 36.2286 29.7603C36.3067 29.8124 36.3914 29.8385 36.4826 29.8385C36.5738 29.8385 36.6716 29.8124 36.7758 29.7603C36.7758 29.7603 36.7823 29.7603 36.7953 29.7603C36.8084 29.7603 36.8279 29.7603 36.854 29.7603C36.9061 29.7603 36.9517 29.7408 36.9908 29.7017C37.0299 29.6626 37.0625 29.63 37.0885 29.604L37.8312 28.9004L38.8475 29.9167L38.2221 30.5421C38.2221 30.5421 38.2221 30.5486 38.2221 30.5616C38.2221 30.5747 38.2221 30.6072 38.2221 30.6593C38.2221 30.6854 38.2091 30.705 38.183 30.718C38.1569 30.731 38.1439 30.7636 38.1439 30.8157C38.1439 30.8418 38.1309 30.8743 38.1048 30.9134C38.0788 30.9525 38.0657 30.9981 38.0657 31.0502C38.0657 31.0763 38.0657 31.0958 38.0657 31.1089C38.0657 31.1219 38.0657 31.1545 38.0657 31.2066C38.0657 31.2326 38.0657 31.2522 38.0657 31.2652C38.0657 31.2783 38.0657 31.3108 38.0657 31.3629C38.0657 31.389 38.0657 31.4085 38.0657 31.4216C38.0657 31.4346 38.0918 31.4672 38.1439 31.5193C38.1439 31.5193 38.1439 31.5258 38.1439 31.5388C38.1439 31.5519 38.1439 31.5714 38.1439 31.5975C38.613 32.4053 38.8345 33.2848 38.8084 34.236C38.7824 35.1871 38.5087 36.0406 37.9875 36.7963C37.9094 36.8744 37.8442 36.9591 37.7921 37.0503C37.74 37.1416 37.6748 37.2393 37.5967 37.3435C37.5445 37.3956 37.512 37.4412 37.4989 37.4803C37.4859 37.5194 37.4533 37.552 37.4012 37.578C37.3752 37.6302 37.3426 37.6693 37.3035 37.6953C37.2644 37.7214 37.2188 37.7344 37.1667 37.7344C37.0885 37.8126 37.0103 37.8908 36.9322 37.9689C36.854 38.0471 36.7497 38.1123 36.6194 38.1644C35.8116 38.6856 34.9451 38.9592 34.02 38.9852C33.0949 39.0113 32.2285 38.7898 31.4207 38.3207C31.4207 38.3207 31.3946 38.3207 31.3425 38.3207C31.3164 38.3207 31.2969 38.3077 31.2838 38.2816C31.2708 38.2556 31.2382 38.2426 31.1861 38.2426C31.1601 38.2426 31.134 38.2426 31.1079 38.2426C31.0819 38.2426 31.0558 38.2426 31.0298 38.2426C30.9776 38.2426 30.9451 38.2426 30.932 38.2426C30.919 38.2426 30.8995 38.2426 30.8734 38.2426C30.8213 38.2426 30.7887 38.2426 30.7757 38.2426C30.7627 38.2426 30.7431 38.2426 30.7171 38.2426C30.6649 38.2426 30.6193 38.2556 30.5802 38.2816C30.5412 38.3077 30.5086 38.3468 30.4825 38.3989C30.4825 38.3989 30.476 38.3989 30.463 38.3989C30.4499 38.3989 30.4304 38.3989 30.4043 38.3989L29.7398 39.0243L28.7235 38.008L29.4271 37.2653C29.4271 37.2393 29.4402 37.2197 29.4662 37.2067C29.4923 37.1937 29.5053 37.1611 29.5053 37.109C29.5053 37.109 29.5118 37.096 29.5248 37.0699C29.5379 37.0438 29.5574 37.0308 29.5835 37.0308C29.5835 36.9787 29.5835 36.9461 29.5835 36.9331C29.5835 36.9201 29.5835 36.9005 29.5835 36.8744C29.5835 36.8223 29.5835 36.7767 29.5835 36.7376C29.5835 36.6985 29.5835 36.666 29.5835 36.6399C29.5835 36.5878 29.5835 36.5552 29.5835 36.5422C29.5835 36.5292 29.5574 36.5096 29.5053 36.4836C29.5053 36.4836 29.5053 36.477 29.5053 36.464C29.5053 36.451 29.5053 36.4314 29.5053 36.4054C29.4011 36.1969 29.3033 35.9754 29.2121 35.7409C29.1209 35.5063 29.0623 35.2718 29.0362 35.0373C28.8017 33.9167 28.1763 32.5747 27.16 31.0111C26.1437 29.4476 25.1143 27.9883 24.072 26.6332C24.4368 26.1641 24.8081 25.7081 25.186 25.2651C25.5639 24.8221 25.9091 24.4052 26.2219 24.0143C27.5509 25.1609 29.0167 26.2684 30.6193 27.3368C32.222 28.4052 33.5836 29.0567 34.7041 29.2912ZM27.3554 20.5745C27.1209 20.809 26.8408 21.1022 26.515 21.454C26.1893 21.8058 25.831 22.1771 25.4401 22.568C24.6844 23.4279 23.8505 24.4052 22.9384 25.4996C22.0524 26.5941 21.199 27.7147 20.3781 28.8613C19.5572 30.0079 18.8471 31.1154 18.2478 32.1838C17.6223 33.2783 17.2184 34.2294 17.036 35.0373C17.01 35.2718 16.9578 35.5063 16.8797 35.7409C16.8015 35.9754 16.6972 36.1969 16.5669 36.4054C16.5669 36.4054 16.5669 36.4314 16.5669 36.4836C16.5669 36.5096 16.5604 36.5292 16.5474 36.5422C16.5344 36.5552 16.5148 36.5878 16.4888 36.6399C16.4888 36.666 16.4888 36.7051 16.4888 36.7572C16.4888 36.8093 16.4888 36.8744 16.4888 36.9526C16.4888 37.0047 16.4888 37.0373 16.4888 37.0503C16.4888 37.0634 16.4888 37.0829 16.4888 37.109C16.4888 37.1611 16.5083 37.2067 16.5474 37.2458C16.5865 37.2849 16.6191 37.3175 16.6451 37.3435C16.6451 37.3435 16.6451 37.35 16.6451 37.3631C16.6451 37.3761 16.6451 37.3956 16.6451 37.4217L17.3487 38.1644L16.3324 39.1807L15.707 38.5553C15.707 38.5553 15.7005 38.5553 15.6875 38.5553C15.6744 38.5553 15.6419 38.5553 15.5897 38.5553C15.5637 38.5031 15.5311 38.4706 15.492 38.4575C15.4529 38.4445 15.4073 38.425 15.3552 38.3989C15.3291 38.3989 15.3096 38.3989 15.2966 38.3989C15.2835 38.3989 15.251 38.3989 15.1988 38.3989C15.1728 38.3989 15.1532 38.3989 15.1402 38.3989C15.1272 38.3989 15.0946 38.3989 15.0425 38.3989C15.0164 38.3989 14.9969 38.3989 14.9839 38.3989C14.9708 38.3989 14.9383 38.3989 14.8861 38.3989C14.8601 38.3989 14.8405 38.3989 14.8275 38.3989C14.8145 38.3989 14.7819 38.425 14.7298 38.4771C14.7298 38.4771 14.7233 38.4771 14.7102 38.4771C14.6972 38.4771 14.6777 38.4771 14.6516 38.4771C13.8438 38.9461 12.9643 39.1677 12.0131 39.1416C11.062 39.1155 10.2085 38.8419 9.45281 38.3207C9.37463 38.2426 9.29645 38.1774 9.21828 38.1253C9.1401 38.0732 9.06192 38.008 8.98374 37.9298C8.90557 37.8777 8.82739 37.8126 8.74921 37.7344C8.67103 37.6562 8.61892 37.578 8.59286 37.4999C8.51468 37.4217 8.4365 37.3435 8.35833 37.2653C8.28015 37.1872 8.215 37.0829 8.16288 36.9526C7.6417 36.1448 7.36808 35.2783 7.34202 34.3532C7.31596 33.4281 7.53746 32.5617 8.00653 31.7538C8.00653 31.7538 8.00653 31.7278 8.00653 31.6757C8.00653 31.6496 8.01304 31.63 8.02607 31.617C8.0391 31.604 8.05865 31.5714 8.0847 31.5193C8.0847 31.4411 8.0847 31.3629 8.0847 31.2848C8.0847 31.2066 8.0847 31.1545 8.0847 31.1284C8.0847 31.0763 8.0847 31.0437 8.0847 31.0307C8.0847 31.0177 8.05865 30.9981 8.00653 30.9721C8.00653 30.9199 7.9935 30.8874 7.96744 30.8743C7.94138 30.8613 7.92835 30.8418 7.92835 30.8157C7.92835 30.8157 7.92835 30.8092 7.92835 30.7962C7.92835 30.7831 7.92835 30.7636 7.92835 30.7375L7.30293 30.073L8.31924 29.0567L9.06192 29.7603C9.08798 29.8124 9.12055 29.845 9.15964 29.858C9.19873 29.8711 9.24434 29.8906 9.29645 29.9167C9.29645 29.9167 9.30948 29.9167 9.33554 29.9167C9.3616 29.9167 9.37463 29.9167 9.37463 29.9167C9.42675 29.9167 9.47235 29.9297 9.51144 29.9558C9.55053 29.9818 9.5831 29.9948 9.60916 29.9948C9.66128 29.9948 9.70689 29.9948 9.74597 29.9948C9.78506 29.9948 9.81764 29.9688 9.8437 29.9167C9.8437 29.9167 9.85672 29.9167 9.88278 29.9167C9.90884 29.9167 9.92187 29.9167 9.92187 29.9167C9.92187 29.9167 9.9349 29.9167 9.96096 29.9167C9.98702 29.9167 10.0001 29.9167 10.0001 29.9167C10.2085 29.8124 10.43 29.7147 10.6646 29.6235C10.8991 29.5323 11.1336 29.4737 11.3682 29.4476C12.5408 29.2131 13.9676 28.542 15.6484 27.4345C17.3292 26.327 18.9644 25.1348 20.554 23.8579C21.1273 23.4149 21.6811 22.9654 22.2153 22.5094C22.7495 22.0533 23.2381 21.6168 23.6811 21.1999C24.1502 20.809 24.5671 20.4377 24.9319 20.0859C25.2968 19.7341 25.6225 19.4148 25.9091 19.1282L28.1372 16.9001C28.2675 16.9262 28.3782 16.9783 28.4695 17.0565C28.5607 17.1347 28.6714 17.2128 28.8017 17.291C28.8017 17.291 28.8147 17.304 28.8408 17.3301C28.8669 17.3562 28.8799 17.3692 28.8799 17.3692C28.9059 17.4213 28.9385 17.4669 28.9776 17.506C29.0167 17.5451 29.0623 17.5777 29.1144 17.6037C29.1405 17.6558 29.173 17.7014 29.2121 17.7405C29.2512 17.7796 29.2968 17.8122 29.3489 17.8383C29.3489 17.8383 29.362 17.8578 29.388 17.8969C29.4141 17.936 29.4271 17.9555 29.4271 17.9555C29.4271 17.9555 29.4336 17.9555 29.4467 17.9555C29.4597 17.9555 29.4792 17.9816 29.5053 18.0337C29.5574 18.0598 29.5965 18.0923 29.6226 18.1314C29.6486 18.1705 29.6617 18.2161 29.6617 18.2682C29.7138 18.2943 29.7464 18.3334 29.7594 18.3855C29.7724 18.4376 29.792 18.5028 29.818 18.5809L27.3554 20.5745ZM32.9451 21.4344C32.8669 21.5387 32.7822 21.6103 32.691 21.6494C32.5998 21.6885 32.5021 21.708 32.3979 21.708C32.2676 21.708 32.1568 21.6885 32.0656 21.6494C31.9744 21.6103 31.8897 21.5387 31.8115 21.4344L31.577 21.1999C31.4988 21.1217 31.4402 21.0305 31.4011 20.9263C31.362 20.822 31.3425 20.7048 31.3425 20.5745C31.3425 20.5745 31.3425 20.568 31.3425 20.5549C31.3425 20.5419 31.3425 20.5223 31.3425 20.4963C31.3425 20.4181 31.349 20.3464 31.362 20.2813C31.375 20.2162 31.3946 20.1315 31.4207 20.0272C31.4207 19.949 31.4207 19.8839 31.4207 19.8318C31.4207 19.7797 31.4207 19.7015 31.4207 19.5972C31.4207 19.5972 31.4207 19.5842 31.4207 19.5582C31.4207 19.5321 31.4207 19.5191 31.4207 19.5191C31.4207 19.3367 31.4011 19.1542 31.362 18.9718C31.3229 18.7894 31.2643 18.607 31.1861 18.4246C31.1861 18.4246 31.1861 18.4116 31.1861 18.3855C31.1861 18.3594 31.1861 18.3464 31.1861 18.3464C31.1601 18.2682 31.134 18.1901 31.1079 18.1119C31.0819 18.0337 31.0558 17.9816 31.0298 17.9555C31.0298 17.9555 31.0298 17.949 31.0298 17.936C31.0298 17.923 31.0298 17.8904 31.0298 17.8383C31.0298 17.8383 31.0298 17.8252 31.0298 17.7992C31.0298 17.7731 31.0298 17.7601 31.0298 17.7601C31.0298 17.734 31.0102 17.7014 30.9711 17.6624C30.932 17.6233 30.8995 17.5777 30.8734 17.5255L30.7952 17.3692C30.7952 17.3692 30.7887 17.3562 30.7757 17.3301C30.7627 17.304 30.7431 17.291 30.7171 17.291C30.6649 17.265 30.6193 17.2194 30.5802 17.1542C30.5412 17.0891 30.5086 17.0304 30.4825 16.9783C30.4825 16.9262 30.4695 16.8936 30.4434 16.8806C30.4174 16.8676 30.4043 16.848 30.4043 16.822C30.3522 16.7438 30.2936 16.6786 30.2284 16.6265C30.1633 16.5744 30.1047 16.5092 30.0525 16.4311C29.9744 16.3529 29.8962 16.2747 29.818 16.1965C29.7398 16.1184 29.6617 16.0532 29.5835 16.0011C29.5574 16.0011 29.5379 15.9881 29.5248 15.962C29.5118 15.9359 29.4792 15.9229 29.4271 15.9229C29.4011 15.9229 29.3815 15.9099 29.3685 15.8838C29.3555 15.8578 29.3229 15.8447 29.2708 15.8447C29.2708 15.8447 29.2577 15.8447 29.2317 15.8447C29.2056 15.8447 29.1926 15.8187 29.1926 15.7666L28.9581 15.532C28.9059 15.506 28.8603 15.4864 28.8213 15.4734C28.7822 15.4604 28.7496 15.4278 28.7235 15.3757C28.7235 15.3757 28.7105 15.3757 28.6844 15.3757C28.6584 15.3757 28.6454 15.3496 28.6454 15.2975C28.6454 15.2975 28.6388 15.2975 28.6258 15.2975C28.6128 15.2975 28.5932 15.2975 28.5672 15.2975C28.489 15.2714 28.4108 15.2519 28.3326 15.2389C28.2545 15.2258 28.1893 15.1933 28.1372 15.1411C28.1372 15.1411 28.1242 15.1411 28.0981 15.1411C28.0721 15.1411 28.059 15.1411 28.059 15.1411C27.9027 15.089 27.7659 15.0499 27.6486 15.0239C27.5313 14.9978 27.4336 14.9848 27.3554 14.9848C27.3554 14.9848 27.3424 14.9848 27.3163 14.9848C27.2903 14.9848 27.2772 14.9848 27.2772 14.9848C27.1991 14.9848 27.1339 14.9848 27.0818 14.9848C27.0297 14.9848 26.9645 14.9848 26.8864 14.9848C26.8342 14.9848 26.7886 14.9848 26.7496 14.9848C26.7105 14.9848 26.6779 14.9848 26.6518 14.9848C26.6518 14.9848 26.6453 14.9848 26.6323 14.9848C26.6193 14.9848 26.5867 14.9848 26.5346 14.9848C26.5346 14.9848 26.5085 14.9848 26.4564 14.9848H26.3C26.2219 14.9848 26.1567 14.9848 26.1046 14.9848C26.0525 14.9848 25.9873 14.9848 25.9091 14.9848C25.9091 14.9848 25.8831 14.9848 25.831 14.9848C25.7007 14.9848 25.5834 14.9718 25.4792 14.9457C25.3749 14.9196 25.2837 14.8545 25.2055 14.7503L24.3847 13.9294L31.8897 6.42436L39.9811 14.5157L32.9451 21.4344ZM43.1863 11.2323L35.095 3.14091L36.1504 2.12461L44.2026 10.1769L43.1863 11.2323ZM31.0298 11.545C30.3001 12.2746 30.0721 13.1541 30.3457 14.1835C30.6193 15.2128 31.3816 15.8578 32.6324 16.1184C32.7106 16.1184 32.7888 16.1184 32.8669 16.1184C32.9451 16.1184 33.0233 16.1184 33.1015 16.1184C34.3784 15.8578 35.1471 15.1998 35.4077 14.1444C35.6683 13.089 35.4338 12.2225 34.7041 11.545C34.235 11.0238 33.6357 10.7632 32.906 10.7632C32.1764 10.7632 31.5509 11.0238 31.0298 11.545ZM33.7269 14.1639C33.4924 14.4245 33.2187 14.5548 32.906 14.5548C32.5933 14.5548 32.3457 14.4245 32.1633 14.1639C31.9027 13.9294 31.7724 13.6558 31.7724 13.3431C31.7724 13.0303 31.9027 12.7828 32.1633 12.6004C32.3979 12.3398 32.6715 12.2095 32.9842 12.2095C33.2969 12.2095 33.5445 12.3398 33.7269 12.6004C33.8572 12.7046 33.9484 12.8219 34.0005 12.9522C34.0526 13.0825 34.0787 13.2258 34.0787 13.3821C34.0787 13.5385 34.0526 13.6818 34.0005 13.8121C33.9484 13.9424 33.8572 14.0597 33.7269 14.1639ZM9.8437 31.6757C8.93163 32.5877 8.65149 33.7148 9.00329 35.0568C9.35509 36.3989 10.3258 37.2393 11.9154 37.578C12.0457 37.6302 12.1695 37.6562 12.2867 37.6562C12.404 37.6562 12.5278 37.6302 12.6581 37.578C14.2477 37.2653 15.2184 36.4314 15.5702 35.0764C15.922 33.7213 15.6419 32.5877 14.7298 31.6757C14.4171 31.3629 14.0522 31.1154 13.6353 30.933C13.2184 30.7506 12.7884 30.6593 12.3454 30.6593C11.8502 30.6593 11.3942 30.7506 10.9773 30.933C10.5603 31.1154 10.1825 31.3629 9.8437 31.6757ZM13.5962 35.4282C13.2574 35.793 12.821 35.9754 12.2867 35.9754C11.7525 35.9754 11.29 35.793 10.8991 35.4282C10.3779 34.907 10.215 34.2685 10.4105 33.5128C10.6059 32.7571 11.1727 32.3011 12.1108 32.1447C12.1369 32.1447 12.1695 32.1447 12.2086 32.1447C12.2477 32.1447 12.2933 32.1447 12.3454 32.1447C13.2574 32.3011 13.8242 32.7571 14.0457 33.5128C14.2672 34.2685 14.1174 34.907 13.5962 35.4282Z" fill="#F77F00"/>
</g>
<defs>
<clipPath id="clip0_1_859">
<rect width="47.14" height="41" fill="white" transform="matrix(1 0 0 -1 0.266968 41.1135)"/>
</clipPath>
</defs>
</svg>
