<svg width="42" height="42" viewBox="0 0 42 42" fill="none" xmlns="http://www.w3.org/2000/svg">
<g clip-path="url(#clip0_1_866)">
<path d="M20.3589 0.991692C17.5968 0.991692 15.0041 1.51284 12.5808 2.55512C10.1575 3.62347 8.04036 5.06313 6.22939 6.8741C4.41842 8.68507 2.97876 10.8022 1.91041 13.2255C0.868128 15.6488 0.346985 18.2415 0.346985 21.0036C0.346985 23.7657 0.868128 26.3583 1.91041 28.7817C2.97876 31.205 4.41842 33.3221 6.22939 35.1331C8.04036 36.9441 10.1575 38.3837 12.5808 39.4521C15.0041 40.4944 17.5968 41.0155 20.3589 41.0155C23.121 41.0155 25.7136 40.4944 28.137 39.4521C30.5603 38.3837 32.6774 36.9441 34.4884 35.1331C36.2994 33.3221 37.739 31.205 38.8074 28.7817C39.8497 26.3583 40.3708 23.7657 40.3708 21.0036C40.3708 18.2415 39.8497 15.6488 38.8074 13.2255C37.739 10.8022 36.2994 8.68507 34.4884 6.8741C32.6774 5.06313 30.5603 3.62347 28.137 2.55512C25.7136 1.51284 23.121 0.991692 20.3589 0.991692ZM20.3589 35.2308C18.4046 35.2308 16.5545 34.853 14.8087 34.0973C13.0889 33.3417 11.5907 32.3254 10.3139 31.0486C9.03705 29.7718 8.02082 28.2735 7.26516 26.5538C6.50951 24.8079 6.13168 22.9579 6.13168 21.0036C6.13168 19.0493 6.50951 17.1993 7.26516 15.4534C8.02082 13.7336 9.03705 12.2354 10.3139 10.9586C11.5907 9.68176 13.0889 8.66553 14.8087 7.90987C16.5545 7.15421 18.4046 6.77638 20.3589 6.77638C22.3132 6.77638 24.1632 7.15421 25.9091 7.90987C27.6288 8.66553 29.1271 9.68176 30.4039 10.9586C31.6807 12.2354 32.697 13.7336 33.4526 15.4534C34.2083 17.1993 34.5861 19.0493 34.5861 21.0036C34.5861 22.9579 34.2083 24.8079 33.4526 26.5538C32.697 28.2735 31.6807 29.7718 30.4039 31.0486C29.1271 32.3254 27.6288 33.3417 25.9091 34.0973C24.1632 34.853 22.3132 35.2308 20.3589 35.2308ZM20.3589 8.61341C18.6652 8.61341 17.0627 8.93913 15.5513 9.59056C14.04 10.242 12.7241 11.1279 11.6037 12.2484C10.4832 13.3688 9.59728 14.6847 8.94585 16.196C8.29442 17.7074 7.96871 19.3099 7.96871 21.0036C7.96871 22.6973 8.29442 24.2998 8.94585 25.8111C9.59728 27.3225 10.4832 28.6383 11.6037 29.7588C12.7241 30.8793 14.04 31.7652 15.5513 32.4166C17.0627 33.0681 18.6652 33.3938 20.3589 33.3938C22.0526 33.3938 23.6551 33.0681 25.1664 32.4166C26.6778 31.7652 27.9936 30.8793 29.1141 29.7588C30.2346 28.6383 31.1205 27.3225 31.7719 25.8111C32.4234 24.2998 32.7491 22.6973 32.7491 21.0036C32.7491 19.3099 32.4234 17.7074 31.7719 16.196C31.1205 14.6847 30.2346 13.3688 29.1141 12.2484C27.9936 11.1279 26.6778 10.242 25.1664 9.59056C23.6551 8.93913 22.0526 8.61341 20.3589 8.61341ZM31.1466 20.2219H25.1274C25.0752 19.831 24.9775 19.4662 24.8342 19.1275C24.6909 18.7887 24.515 18.463 24.3066 18.1503L28.5278 13.9291C29.2835 14.789 29.8893 15.7531 30.3453 16.8214C30.8013 17.8898 31.0684 19.0233 31.1466 20.2219ZM21.1406 10.2159C22.3392 10.2941 23.4727 10.5612 24.5411 11.0172C25.6094 11.4732 26.5735 12.079 27.4334 12.8347L23.1731 17.0559C22.8864 16.8475 22.5672 16.6716 22.2155 16.5283C21.8637 16.385 21.5054 16.2742 21.1406 16.196V10.2159ZM19.5772 10.2159V16.196C19.2124 16.2742 18.8541 16.385 18.5023 16.5283C18.1505 16.6716 17.8313 16.8475 17.5447 17.0559L13.2844 12.8347C14.1443 12.079 15.1084 11.4732 16.1767 11.0172C17.2451 10.5612 18.3785 10.2941 19.5772 10.2159ZM12.19 13.9291L16.4112 18.1503C16.2028 18.463 16.0269 18.7887 15.8836 19.1275C15.7403 19.4662 15.6425 19.831 15.5904 20.2219H9.57122C9.64939 19.0233 9.91648 17.8898 10.3725 16.8214C10.8285 15.7531 11.4343 14.789 12.19 13.9291ZM9.57122 21.7853H15.5904C15.6425 22.1501 15.7403 22.5084 15.8836 22.8602C16.0269 23.2119 16.2028 23.5311 16.4112 23.8178L12.19 28.0781C11.4343 27.2182 10.8285 26.2541 10.3725 25.1858C9.91648 24.1174 9.64939 22.9839 9.57122 21.7853ZM19.5772 31.7913C18.3785 31.7131 17.2451 31.446 16.1767 30.99C15.1084 30.534 14.1443 29.9282 13.2844 29.1725L17.5447 24.9122C17.8313 25.1467 18.1505 25.3356 18.5023 25.4789C18.8541 25.6222 19.2124 25.7199 19.5772 25.7721V31.7913ZM19.5772 24.1695V24.2086C19.4208 24.1565 19.2645 24.0979 19.1081 24.0327C18.9518 23.9676 18.7955 23.8959 18.6391 23.8178V23.7787C18.4307 23.6484 18.2352 23.4921 18.0528 23.3097C17.8704 23.1273 17.7011 22.9188 17.5447 22.6843C17.4665 22.554 17.3949 22.4107 17.3297 22.2543C17.2646 22.098 17.206 21.9417 17.1539 21.7853C17.1278 21.655 17.1083 21.5247 17.0952 21.3945C17.0822 21.2642 17.0757 21.1339 17.0757 21.0036C17.0757 20.8733 17.0822 20.743 17.0952 20.6127C17.1083 20.4825 17.1278 20.3522 17.1539 20.2219C17.206 20.0395 17.2646 19.8701 17.3297 19.7138C17.3949 19.5574 17.4665 19.4141 17.5447 19.2838C17.7011 19.0493 17.8704 18.8409 18.0528 18.6585C18.2352 18.4761 18.4307 18.3197 18.6391 18.1894C18.7955 18.0852 18.9518 18.0005 19.1081 17.9354C19.2645 17.8702 19.4208 17.8246 19.5772 17.7986C19.7075 17.7725 19.8377 17.753 19.968 17.7399C20.0983 17.7269 20.2286 17.7204 20.3589 17.7204C20.4892 17.7204 20.6195 17.7269 20.7497 17.7399C20.88 17.753 21.0103 17.7725 21.1406 17.7986C21.2969 17.8246 21.4533 17.8702 21.6096 17.9354C21.766 18.0005 21.9223 18.0852 22.0787 18.1894C22.2871 18.3197 22.4825 18.4761 22.6649 18.6585C22.8474 18.8409 23.0167 19.0493 23.1731 19.2838C23.2512 19.4141 23.3229 19.5574 23.388 19.7138C23.4532 19.8701 23.5118 20.0395 23.5639 20.2219C23.59 20.3522 23.6095 20.4825 23.6226 20.6127C23.6356 20.743 23.6421 20.8733 23.6421 21.0036C23.6421 21.1339 23.6356 21.2642 23.6226 21.3945C23.6095 21.5247 23.59 21.655 23.5639 21.7853C23.5118 21.9417 23.4532 22.098 23.388 22.2543C23.3229 22.4107 23.2512 22.554 23.1731 22.6843C23.0167 22.9188 22.8474 23.1273 22.6649 23.3097C22.4825 23.4921 22.2871 23.6484 22.0787 23.7787V23.8178C21.9223 23.8959 21.766 23.9676 21.6096 24.0327C21.4533 24.0979 21.2969 24.1565 21.1406 24.2086V24.1695C21.0103 24.1956 20.88 24.2217 20.7497 24.2477C20.6195 24.2738 20.4892 24.2868 20.3589 24.2868C20.2286 24.2868 20.0983 24.2738 19.968 24.2477C19.8377 24.2217 19.7075 24.1956 19.5772 24.1695ZM21.1406 31.7913V25.7721C21.5054 25.7199 21.8637 25.6222 22.2155 25.4789C22.5672 25.3356 22.8864 25.1467 23.1731 24.9122L27.4334 29.1725C26.5735 29.9282 25.6094 30.534 24.5411 30.99C23.4727 31.446 22.3392 31.7131 21.1406 31.7913ZM28.5278 28.0781L24.3066 23.8178C24.515 23.5311 24.6909 23.2119 24.8342 22.8602C24.9775 22.5084 25.0752 22.1501 25.1274 21.7853H31.1466C31.0684 22.9839 30.8013 24.1174 30.3453 25.1858C29.8893 26.2541 29.2835 27.2182 28.5278 28.0781Z" fill="#F77F00"/>
</g>
<defs>
<clipPath id="clip0_1_866">
<rect width="41" height="41" fill="white" transform="matrix(1 0 0 -1 0.346985 41.5035)"/>
</clipPath>
</defs>
</svg>
