<svg width="42" height="42" viewBox="0 0 42 42" fill="none" xmlns="http://www.w3.org/2000/svg">
<g clip-path="url(#clip0_1_872)">
<path d="M39.7845 36.3252H35.5632V24.0914H39.7845C39.9409 24.0914 40.0777 24.0327 40.1949 23.9155C40.3122 23.7982 40.3708 23.6614 40.3708 23.5051C40.3708 23.3227 40.3122 23.1729 40.1949 23.0556C40.0777 22.9383 39.9409 22.8797 39.7845 22.8797H35.5242C35.3939 22.1501 35.0291 21.5313 34.4298 21.0231C33.8304 20.515 33.1269 20.261 32.3191 20.261H29.4268C28.593 20.261 27.8764 20.5281 27.2771 21.0622C26.6778 21.5964 26.326 22.2674 26.2218 23.0751C26.0133 22.8927 25.7918 22.7234 25.5573 22.567C25.3228 22.4107 25.0883 22.2674 24.8538 22.1371V19.5574C25.1664 19.3229 25.4205 19.0298 25.6159 18.678C25.8114 18.3262 25.9091 17.9419 25.9091 17.525C25.9091 17.0299 25.7788 16.5804 25.5182 16.1765C25.2576 15.7726 24.9189 15.4664 24.502 15.258V13.46C24.502 12.8607 24.3131 12.3396 23.9352 11.8966C23.5574 11.4536 23.0819 11.18 22.5086 11.0758V9.86416H31.5374C32.267 9.86416 32.8924 9.60359 33.4135 9.08244C33.9347 8.5613 34.1952 7.93593 34.1952 7.20633C34.1952 6.50278 33.9347 5.89044 33.4135 5.3693C32.8924 4.84815 32.267 4.58758 31.5374 4.58758H27.7461C27.5637 4.58758 27.4139 4.64621 27.2966 4.76347C27.1794 4.88073 27.1207 5.01752 27.1207 5.17387C27.1207 5.35627 27.1794 5.5061 27.2966 5.62335C27.4139 5.74061 27.5637 5.79924 27.7461 5.79924H31.5374C31.9283 5.79924 32.267 5.93604 32.5536 6.20964C32.8403 6.48324 32.9836 6.81547 32.9836 7.20633C32.9836 7.59718 32.8403 7.93593 32.5536 8.22256C32.267 8.50919 31.9283 8.6525 31.5374 8.6525H8.86768C8.47682 8.6525 8.13808 8.50919 7.85145 8.22256C7.56482 7.93593 7.42151 7.59718 7.42151 7.20633C7.42151 6.81547 7.56482 6.48324 7.85145 6.20964C8.13808 5.93604 8.47682 5.79924 8.86768 5.79924H25.3228C25.5052 5.79924 25.655 5.74061 25.7723 5.62335C25.8895 5.5061 25.9482 5.35627 25.9482 5.17387C25.9482 5.01752 25.8895 4.88073 25.7723 4.76347C25.655 4.64621 25.5052 4.58758 25.3228 4.58758H22.5086V4.15764C22.5086 3.53226 22.2871 2.99158 21.8441 2.53558C21.4012 2.07958 20.854 1.85158 20.2025 1.85158C19.5772 1.85158 19.0365 2.07958 18.5805 2.53558C18.1245 2.99158 17.8965 3.53226 17.8965 4.15764V4.58758H8.86768C8.13808 4.58758 7.51922 4.84815 7.01111 5.3693C6.50299 5.89044 6.24893 6.50278 6.24893 7.20633C6.24893 7.93593 6.50299 8.5613 7.01111 9.08244C7.51922 9.60359 8.13808 9.86416 8.86768 9.86416H17.8965V11.0758C17.3232 11.18 16.8477 11.4536 16.4699 11.8966C16.092 12.3396 15.9031 12.8607 15.9031 13.46V15.258C15.4862 15.4664 15.154 15.7726 14.9064 16.1765C14.6589 16.5804 14.5351 17.0299 14.5351 17.525C14.5351 17.9419 14.6263 18.3262 14.8087 18.678C14.9911 19.0298 15.2387 19.3229 15.5513 19.5574V22.098C15.3689 22.2022 15.1865 22.3195 15.0041 22.4498C14.8217 22.5801 14.6393 22.7103 14.4569 22.8406C14.3267 22.111 13.9619 21.4987 13.3625 21.0036C12.7632 20.5085 12.0727 20.261 11.291 20.261H8.39865C7.59088 20.261 6.88733 20.515 6.28802 21.0231C5.6887 21.5313 5.3239 22.1501 5.19362 22.8797H0.933271C0.776928 22.8797 0.640128 22.9383 0.522871 23.0556C0.405613 23.1729 0.346985 23.3227 0.346985 23.5051C0.346985 23.6614 0.405613 23.7982 0.522871 23.9155C0.640128 24.0327 0.776928 24.0914 0.933271 24.0914H5.15453V36.3252H0.933271C0.776928 36.3252 0.640128 36.3838 0.522871 36.5011C0.405613 36.6184 0.346985 36.7682 0.346985 36.9506C0.346985 37.1069 0.405613 37.2437 0.522871 37.361C0.640128 37.4782 0.776928 37.5369 0.933271 37.5369H5.19362C5.3239 38.2925 5.6887 38.9244 6.28802 39.4325C6.88733 39.9406 7.59088 40.1947 8.39865 40.1947H11.291C12.0727 40.1947 12.7632 39.9472 13.3625 39.4521C13.9619 38.957 14.3267 38.3316 14.4569 37.576C15.2908 38.2274 16.1963 38.7225 17.1734 39.0612C18.1505 39.4 19.1603 39.5693 20.2025 39.5693C21.323 39.5693 22.3979 39.3804 23.4271 39.0026C24.4564 38.6248 25.3879 38.0841 26.2218 37.3805C26.326 38.1622 26.6778 38.8267 27.2771 39.3739C27.8764 39.9211 28.593 40.1947 29.4268 40.1947H32.3191C33.1269 40.1947 33.8304 39.9406 34.4298 39.4325C35.0291 38.9244 35.3939 38.2925 35.5242 37.5369H39.7845C39.9409 37.5369 40.0777 37.4782 40.1949 37.361C40.3122 37.2437 40.3708 37.1069 40.3708 36.9506C40.3708 36.7682 40.3122 36.6184 40.1949 36.5011C40.0777 36.3838 39.9409 36.3252 39.7845 36.3252ZM19.1081 4.15764C19.1081 3.84495 19.2124 3.58438 19.4208 3.37592C19.6293 3.16747 19.8899 3.06324 20.2025 3.06324C20.5152 3.06324 20.7823 3.16747 21.0038 3.37592C21.2253 3.58438 21.336 3.84495 21.336 4.15764V4.58758H19.1081V4.15764ZM21.336 9.86416V10.9976H19.1081V9.86416H21.336ZM18.3655 12.2093H22.0396C22.3783 12.2093 22.6715 12.3331 22.919 12.5806C23.1665 12.8282 23.2903 13.1213 23.2903 13.46V14.9844H17.1148V13.46C17.1148 13.1213 17.2385 12.8282 17.4861 12.5806C17.7336 12.3331 18.0268 12.2093 18.3655 12.2093ZM17.0757 16.157H23.3294C23.7203 16.157 24.046 16.2938 24.3066 16.5674C24.5671 16.841 24.6974 17.1602 24.6974 17.525C24.6974 17.8898 24.5671 18.2025 24.3066 18.463C24.046 18.7236 23.7203 18.8539 23.3294 18.8539H17.0757C16.7109 18.8539 16.3917 18.7236 16.1181 18.463C15.8445 18.2025 15.7077 17.8898 15.7077 17.525C15.7077 17.1602 15.8445 16.841 16.1181 16.5674C16.3917 16.2938 16.7109 16.157 17.0757 16.157ZM16.763 20.0655C16.8151 20.0655 16.8672 20.0655 16.9193 20.0655C16.9715 20.0655 17.0236 20.0655 17.0757 20.0655H23.3294C23.4076 20.0655 23.4727 20.0655 23.5248 20.0655C23.577 20.0655 23.6291 20.0655 23.6812 20.0655V21.5508C23.134 21.3163 22.5672 21.1469 21.9809 21.0427C21.3947 20.9385 20.8019 20.8863 20.2025 20.8863C19.6032 20.8863 19.0104 20.9385 18.4241 21.0427C17.8379 21.1469 17.2841 21.3033 16.763 21.5117V20.0655ZM6.32711 36.9506V23.5051C6.32711 22.9579 6.50951 22.4889 6.87431 22.098C7.23911 21.7071 7.69511 21.4987 8.24231 21.4726V38.983C7.69511 38.9309 7.23911 38.7094 6.87431 38.3186C6.50951 37.9277 6.32711 37.4717 6.32711 36.9506ZM11.4473 38.983V35.7389C11.4473 35.5565 11.3887 35.4067 11.2715 35.2894C11.1542 35.1722 11.0174 35.1136 10.8611 35.1136C10.6787 35.1136 10.5288 35.1722 10.4116 35.2894C10.2943 35.4067 10.2357 35.5565 10.2357 35.7389V38.983H9.41488V21.4335H10.2357V33.3156C10.2357 33.498 10.2943 33.6478 10.4116 33.7651C10.5288 33.8824 10.6787 33.941 10.8611 33.941C11.0174 33.941 11.1542 33.8824 11.2715 33.7651C11.3887 33.6478 11.4473 33.498 11.4473 33.3156V21.4335C11.9685 21.4857 12.4115 21.7071 12.7763 22.098C13.1411 22.4889 13.3235 22.9579 13.3235 23.5051V36.9506C13.3235 37.4717 13.1411 37.9277 12.7763 38.3186C12.4115 38.7094 11.9685 38.9309 11.4473 38.983ZM20.2025 38.3577C19.1342 38.3577 18.1115 38.1622 17.1343 37.7714C16.1572 37.3805 15.2908 36.8073 14.5351 36.0516V24.365C14.8217 24.1044 15.1149 23.8569 15.4145 23.6223C15.7142 23.3878 16.0334 23.1924 16.3721 23.0361C16.3982 23.01 16.4177 22.997 16.4308 22.997C16.4438 22.997 16.4633 22.9839 16.4894 22.9579C17.0627 22.6713 17.662 22.4498 18.2873 22.2934C18.9127 22.1371 19.5511 22.0589 20.2025 22.0589C21.3491 22.0589 22.4369 22.2869 23.4662 22.7429C24.4955 23.1989 25.401 23.8438 26.1827 24.6777V35.7389C25.401 36.5728 24.4955 37.2177 23.4662 37.6737C22.4369 38.1297 21.3491 38.3577 20.2025 38.3577ZM27.3943 36.9506V23.5051C27.3943 22.9579 27.5767 22.4889 27.9415 22.098C28.3063 21.7071 28.7493 21.4987 29.2704 21.4726V38.983C28.7493 38.9309 28.3063 38.7094 27.9415 38.3186C27.5767 37.9277 27.3943 37.4717 27.3943 36.9506ZM30.4821 38.983V21.4335H31.3029V38.983H30.4821ZM32.4755 38.983V21.4335C33.0227 21.4857 33.4787 21.7071 33.8435 22.098C34.2083 22.4889 34.3907 22.9579 34.3907 23.5051V36.9506C34.3907 37.4717 34.2083 37.9277 33.8435 38.3186C33.4787 38.7094 33.0227 38.9309 32.4755 38.983Z" fill="#F77F00"/>
</g>
<defs>
<clipPath id="clip0_1_872">
<rect width="41" height="41" fill="white" transform="matrix(1 0 0 -1 0.346985 41.5035)"/>
</clipPath>
</defs>
</svg>
