<svg width="21" height="14" viewBox="0 0 21 14" fill="none" xmlns="http://www.w3.org/2000/svg">
<path d="M19.175 0.655762H2.37915C1.94165 0.655762 1.56909 0.80957 1.26147 1.11719C0.953857 1.4248 0.800049 1.79736 0.800049 2.23486V11.689C0.800049 12.1265 0.953857 12.499 1.26147 12.8066C1.56909 13.1143 1.94165 13.2681 2.37915 13.2681H19.175C19.6125 13.2681 19.9851 13.1143 20.2927 12.8066C20.6003 12.499 20.7542 12.1265 20.7542 11.689V2.23486C20.7542 1.79736 20.6003 1.4248 20.2927 1.11719C19.9851 0.80957 19.6125 0.655762 19.175 0.655762ZM19.175 1.70166C19.1887 1.70166 19.2024 1.70508 19.2161 1.71191C19.2297 1.71875 19.2434 1.72217 19.2571 1.72217L11.3616 6.99268C11.2112 7.08838 11.0164 7.13623 10.7771 7.13623C10.5378 7.13623 10.343 7.08838 10.1926 6.99268L2.27661 1.72217C2.29028 1.72217 2.30737 1.71875 2.32788 1.71191C2.34839 1.70508 2.36548 1.70166 2.37915 1.70166H19.175ZM19.175 12.2017H2.37915C2.22876 12.2017 2.10229 12.1504 1.99976 12.0479C1.89722 11.9453 1.84595 11.8257 1.84595 11.689V2.68604L9.61841 7.87451C9.78247 7.97021 9.96362 8.04541 10.1619 8.1001C10.3601 8.15479 10.5618 8.18213 10.7668 8.18213C10.9856 8.18213 11.1941 8.15479 11.3923 8.1001C11.5906 8.04541 11.7717 7.97021 11.9358 7.87451L19.7083 2.68604V11.689C19.7083 11.8257 19.657 11.9453 19.5544 12.0479C19.4519 12.1504 19.3254 12.2017 19.175 12.2017Z" fill="white"/>
</svg>
