<svg width="18" height="22" viewBox="0 0 18 22" fill="none" xmlns="http://www.w3.org/2000/svg">
<path d="M9.29028 4.81006C8.67505 4.81006 8.10083 4.92627 7.56763 5.15869C7.03442 5.39111 6.56958 5.70557 6.1731 6.10205C5.77661 6.49854 5.46216 6.96338 5.22974 7.49658C4.99731 8.02979 4.8811 8.59717 4.8811 9.19873C4.8811 9.80029 4.99731 10.3677 5.22974 10.9009C5.46216 11.4341 5.77661 11.9023 6.1731 12.3057C6.56958 12.709 7.03442 13.02 7.56763 13.2388C8.10083 13.4712 8.67505 13.5874 9.29028 13.5874C9.89185 13.5874 10.4592 13.478 10.9924 13.2593C11.5256 13.0269 11.9905 12.709 12.387 12.3057C12.7834 11.9023 13.0979 11.4341 13.3303 10.9009C13.5627 10.3677 13.679 9.80029 13.679 9.19873C13.679 8.59717 13.5627 8.02979 13.3303 7.49658C13.0979 6.96338 12.7834 6.49854 12.387 6.10205C11.9905 5.70557 11.5256 5.39111 10.9924 5.15869C10.4592 4.92627 9.89185 4.81006 9.29028 4.81006ZM9.29028 12.5415C8.3606 12.5415 7.57104 12.2134 6.92163 11.5571C6.27222 10.9009 5.94751 10.1147 5.94751 9.19873C5.94751 8.28271 6.27222 7.49658 6.92163 6.84033C7.57104 6.18408 8.3606 5.85596 9.29028 5.85596C10.2063 5.85596 10.989 6.18408 11.6384 6.84033C12.2878 7.49658 12.6125 8.28271 12.6125 9.19873C12.6125 10.1147 12.2878 10.9009 11.6384 11.5571C10.989 12.2134 10.2063 12.5415 9.29028 12.5415ZM9.29028 0.626465C9.2356 0.626465 9.18433 0.626465 9.13647 0.626465C9.08862 0.626465 9.03735 0.626465 8.98267 0.626465C7.92993 0.66748 6.93188 0.88623 5.98853 1.28271C5.04517 1.69287 4.20776 2.23975 3.47632 2.92334C2.74487 3.60693 2.14673 4.40674 1.68188 5.32275C1.21704 6.23877 0.936768 7.22314 0.841064 8.27588C0.800049 8.68604 0.789795 9.09619 0.810303 9.50635C0.830811 9.9165 0.875244 10.313 0.943604 10.6958C0.943604 10.6958 0.950439 10.7197 0.964111 10.7676C0.977783 10.8154 0.991455 10.8872 1.00513 10.9829C1.07349 11.27 1.15552 11.5537 1.25122 11.834C1.34692 12.1143 1.4563 12.3843 1.57935 12.644C1.7981 13.1636 2.08521 13.7446 2.44067 14.3872C2.80981 15.0435 3.27124 15.7407 3.82495 16.479C4.37866 17.2173 5.03833 17.9966 5.80396 18.8169C6.56958 19.6372 7.47192 20.478 8.51099 21.3394C8.62036 21.4351 8.74341 21.5068 8.88013 21.5547C9.01685 21.6025 9.15356 21.6265 9.29028 21.6265C9.44067 21.6265 9.58081 21.6025 9.71069 21.5547C9.84058 21.5068 9.96021 21.4351 10.0696 21.3394C11.1086 20.478 12.011 19.6372 12.7766 18.8169C13.5559 17.9966 14.219 17.2173 14.7659 16.479C15.3127 15.7407 15.7708 15.0503 16.1399 14.4077C16.4954 13.7651 16.7825 13.1841 17.0012 12.6646C17.1243 12.3911 17.2336 12.1143 17.3293 11.834C17.425 11.5537 17.5071 11.27 17.5754 10.9829C17.5891 10.9282 17.5994 10.8804 17.6062 10.8394C17.613 10.7983 17.6233 10.7573 17.637 10.7163C17.678 10.4429 17.7122 10.1729 17.7395 9.90625C17.7668 9.63965 17.7805 9.36963 17.7805 9.09619C17.7805 7.93408 17.5549 6.84033 17.1038 5.81494C16.6526 4.77588 16.0442 3.87354 15.2786 3.10791C14.5129 2.34229 13.6174 1.73389 12.592 1.28271C11.553 0.845215 10.4524 0.626465 9.29028 0.626465ZM16.5706 10.5317C16.5706 10.5317 16.5671 10.5522 16.5603 10.5933C16.5535 10.6343 16.5432 10.6821 16.5295 10.7368C16.4749 10.9966 16.4065 11.2495 16.3245 11.4956C16.2424 11.7417 16.1467 11.9878 16.0374 12.2339C15.8186 12.7261 15.5383 13.2798 15.1965 13.895C14.8547 14.5103 14.4207 15.1699 13.8943 15.874C13.3679 16.5781 12.7356 17.3267 11.9973 18.1196C11.259 18.8989 10.3909 19.6987 9.39282 20.519C9.37915 20.5327 9.36206 20.543 9.34155 20.5498C9.32104 20.5566 9.30396 20.5601 9.29028 20.5601C9.27661 20.5601 9.25952 20.5566 9.23901 20.5498C9.21851 20.543 9.20142 20.5327 9.18774 20.519C8.1897 19.6987 7.32153 18.8989 6.58325 18.1196C5.84497 17.3267 5.20923 16.5781 4.67603 15.874C4.14282 15.1699 3.70532 14.5103 3.36353 13.895C3.02173 13.2661 2.74829 12.7056 2.54321 12.2134C2.43384 11.981 2.33813 11.7417 2.2561 11.4956C2.17407 11.2495 2.09888 10.9966 2.03052 10.7368C2.01685 10.6821 2.00659 10.6377 1.99976 10.6035C1.99292 10.5693 1.9895 10.5522 1.9895 10.5522C1.9895 10.5386 1.9895 10.5317 1.9895 10.5317C1.9895 10.5317 1.9895 10.5249 1.9895 10.5112C1.92114 10.1694 1.88013 9.81738 1.86646 9.45508C1.85278 9.09277 1.85962 8.73389 1.88696 8.37842C1.98267 7.4624 2.22876 6.60107 2.62524 5.79443C3.0354 4.98779 3.55835 4.28711 4.19409 3.69238C4.82983 3.09766 5.5647 2.62256 6.39868 2.26709C7.21899 1.91162 8.09399 1.71338 9.02368 1.67236C10.0764 1.64502 11.0676 1.81592 11.9973 2.18506C12.9407 2.56787 13.761 3.09766 14.4583 3.77441C15.1555 4.45117 15.7024 5.24756 16.0989 6.16357C16.509 7.07959 16.7141 8.06396 16.7141 9.1167C16.7141 9.34912 16.7039 9.58154 16.6833 9.81396C16.6628 10.0464 16.6252 10.2856 16.5706 10.5317Z" fill="white"/>
</svg>
