<svg width="22" height="22" viewBox="0 0 22 22" fill="none" xmlns="http://www.w3.org/2000/svg">
<path d="M17.3725 13.6284C17.1537 13.4097 16.9179 13.2422 16.665 13.126C16.412 13.0098 16.1489 12.9517 15.8754 12.9517C15.602 12.9517 15.3388 13.0098 15.0859 13.126C14.8329 13.2422 14.5903 13.4097 14.3578 13.6284L12.9633 15.0229C12.9086 14.9956 12.8505 14.9683 12.789 14.9409C12.7275 14.9136 12.6694 14.8794 12.6147 14.8384C12.5463 14.811 12.4745 14.7769 12.3993 14.7358C12.3241 14.6948 12.2524 14.6538 12.184 14.6128C11.5278 14.2026 10.8989 13.7207 10.2973 13.167C9.69573 12.6133 9.10783 11.9878 8.53362 11.2905C8.26018 10.9351 8.02776 10.6069 7.83635 10.3062C7.64494 10.0054 7.48088 9.70459 7.34416 9.40381C7.5219 9.23975 7.69621 9.07227 7.86711 8.90137C8.03801 8.73047 8.20549 8.56299 8.36955 8.39893C8.42424 8.33057 8.48576 8.26562 8.55412 8.2041C8.62248 8.14258 8.68401 8.07764 8.73869 8.00928C9.20354 7.54443 9.43596 7.03516 9.43596 6.48145C9.43596 5.92773 9.20354 5.41846 8.73869 4.95361L7.52873 3.74365C7.46037 3.67529 7.39201 3.60352 7.32365 3.52832C7.2553 3.45312 7.18694 3.38135 7.11858 3.31299C6.98186 3.17627 6.84514 3.03955 6.70842 2.90283C6.5717 2.76611 6.43498 2.62939 6.29826 2.49268C6.07951 2.27393 5.84367 2.10986 5.59074 2.00049C5.33781 1.89111 5.07463 1.83643 4.80119 1.83643C4.52776 1.83643 4.26457 1.89111 4.01164 2.00049C3.75871 2.10986 3.52287 2.27393 3.30412 2.49268C3.30412 2.49268 3.29729 2.49268 3.28362 2.49268L1.78655 4.03076C1.49944 4.3042 1.27727 4.61523 1.12004 4.96387C0.962815 5.3125 0.863694 5.68506 0.822678 6.08154C0.767991 6.72412 0.812424 7.33252 0.955979 7.90674C1.09953 8.48096 1.24651 8.96631 1.3969 9.36279C1.75237 10.3335 2.20696 11.2803 2.76067 12.2031C3.31438 13.126 3.98772 14.0659 4.78069 15.0229C5.27287 15.6108 5.78557 16.1577 6.31877 16.6636C6.85198 17.1831 7.4091 17.6719 7.99016 18.1299C8.57121 18.5879 9.16936 19.0083 9.78459 19.3911C10.4135 19.7876 11.0629 20.1431 11.7328 20.4575C12.2387 20.7036 12.8232 20.9463 13.4863 21.1855C14.1493 21.4248 14.8637 21.5718 15.6293 21.6265C15.6703 21.6265 15.7148 21.6265 15.7626 21.6265C15.8105 21.6265 15.8617 21.6265 15.9164 21.6265C16.4223 21.6265 16.8905 21.5342 17.3212 21.3496C17.7519 21.165 18.1313 20.8882 18.4594 20.519C18.4731 20.519 18.4799 20.519 18.4799 20.519C18.4799 20.519 18.4799 20.5122 18.4799 20.4985C18.603 20.3618 18.7294 20.2285 18.8593 20.0986C18.9892 19.9687 19.1225 19.8354 19.2592 19.6987C19.3549 19.6167 19.4506 19.5278 19.5463 19.4321C19.642 19.3364 19.7377 19.2339 19.8334 19.1245C20.0522 18.9058 20.2197 18.6665 20.3359 18.4067C20.4521 18.147 20.5102 17.8804 20.5102 17.6069C20.5102 17.3335 20.4521 17.0669 20.3359 16.8071C20.2197 16.5474 20.0453 16.3013 19.8129 16.0688L17.3725 13.6284ZM18.9721 18.3042C18.8764 18.3999 18.7841 18.4888 18.6952 18.5708C18.6064 18.6528 18.5141 18.7417 18.4184 18.8374C18.2817 18.9741 18.1381 19.1177 17.9877 19.2681C17.8373 19.4185 17.6938 19.5688 17.5571 19.7192C17.3383 19.9653 17.0922 20.1465 16.8188 20.2627C16.5453 20.3789 16.2377 20.437 15.8959 20.437C15.8686 20.437 15.8378 20.437 15.8036 20.437C15.7695 20.437 15.7319 20.437 15.6908 20.437C15.0346 20.3823 14.4091 20.249 13.8144 20.0371C13.2197 19.8252 12.6967 19.6099 12.2455 19.3911C11.6166 19.0903 11.0082 18.7554 10.4203 18.3862C9.83244 18.0171 9.26506 17.6206 8.71819 17.1968C8.17131 16.7729 7.64494 16.3149 7.13908 15.8228C6.63323 15.3306 6.15471 14.811 5.70354 14.2642C4.95158 13.3481 4.31584 12.4595 3.79631 11.5981C3.27678 10.7368 2.84612 9.85498 2.50432 8.95264C2.29924 8.40576 2.1591 7.90674 2.08391 7.45557C2.00871 7.00439 1.98479 6.58057 2.01213 6.18408C2.03947 5.92432 2.101 5.68506 2.1967 5.46631C2.2924 5.24756 2.43596 5.04932 2.62737 4.87158L4.12444 3.354C4.23381 3.24463 4.3466 3.16602 4.46281 3.11816C4.57903 3.07031 4.69182 3.04639 4.80119 3.04639C4.93791 3.04639 5.06438 3.08057 5.18059 3.14893C5.2968 3.21729 5.38908 3.28564 5.45744 3.354C5.59416 3.49072 5.72746 3.62402 5.85735 3.75391C5.98723 3.88379 6.12053 4.01709 6.25725 4.15381C6.32561 4.22217 6.39739 4.29395 6.47258 4.36914C6.54778 4.44434 6.61955 4.51611 6.68791 4.58447L7.89787 5.79443C8.1303 6.02686 8.24651 6.25586 8.24651 6.48145C8.24651 6.70703 8.1303 6.93604 7.89787 7.16846C7.82951 7.23682 7.76457 7.30176 7.70305 7.36328C7.64153 7.4248 7.57658 7.48975 7.50823 7.55811C7.33049 7.74951 7.14934 7.93408 6.96477 8.11182C6.7802 8.28955 6.59221 8.46045 6.4008 8.62451C6.4008 8.63818 6.39739 8.64502 6.39055 8.64502C6.38371 8.64502 6.3803 8.64502 6.3803 8.64502C6.18889 8.83643 6.09319 9.021 6.09319 9.19873C6.09319 9.37646 6.11369 9.52686 6.15471 9.6499C6.15471 9.66357 6.15471 9.67383 6.15471 9.68066C6.15471 9.6875 6.16155 9.69092 6.17522 9.69092C6.32561 10.0737 6.51701 10.4531 6.74944 10.8291C6.98186 11.2051 7.26213 11.605 7.59026 12.0288H7.61076C8.21233 12.7808 8.84123 13.4541 9.49748 14.0488C10.1537 14.6436 10.8373 15.1665 11.5483 15.6177C11.6303 15.6724 11.7192 15.7236 11.8149 15.7715C11.9106 15.8193 11.9994 15.8638 12.0815 15.9048C12.1635 15.9458 12.2421 15.9868 12.3173 16.0278C12.3925 16.0688 12.4643 16.1099 12.5326 16.1509C12.5326 16.1509 12.5395 16.1543 12.5531 16.1611C12.5668 16.168 12.5737 16.1714 12.5737 16.1714C12.6557 16.2124 12.7309 16.2432 12.7992 16.2637C12.8676 16.2842 12.9428 16.2944 13.0248 16.2944C13.2026 16.2944 13.3495 16.2534 13.4657 16.1714C13.582 16.0894 13.6537 16.0278 13.6811 15.9868L15.1987 14.4692C15.2807 14.3872 15.3798 14.312 15.496 14.2437C15.6122 14.1753 15.7387 14.1411 15.8754 14.1411C16.0121 14.1411 16.1352 14.1753 16.2446 14.2437C16.3539 14.312 16.4428 14.3804 16.5112 14.4487C16.5112 14.4624 16.5112 14.4692 16.5112 14.4692C16.5112 14.4692 16.518 14.4692 16.5317 14.4692L18.9721 16.9097C19.1908 17.1421 19.3002 17.3745 19.3002 17.6069C19.3002 17.8394 19.1908 18.0718 18.9721 18.3042ZM12.1225 5.60986C12.7104 5.71924 13.2641 5.90723 13.7836 6.17383C14.3031 6.44043 14.7748 6.78564 15.1987 7.20947C15.6088 7.6333 15.9506 8.10498 16.224 8.62451C16.4975 9.14404 16.6821 9.69092 16.7778 10.2651C16.8051 10.4155 16.8735 10.5352 16.9828 10.624C17.0922 10.7129 17.2221 10.7573 17.3725 10.7573C17.3862 10.7573 17.3998 10.7573 17.4135 10.7573C17.4272 10.7573 17.4477 10.7573 17.475 10.7573C17.6391 10.73 17.769 10.6479 17.8647 10.5112C17.9604 10.3745 17.9946 10.2241 17.9672 10.0601C17.8442 9.36279 17.6186 8.69971 17.2905 8.0708C16.9623 7.44189 16.5453 6.87451 16.0395 6.36865C15.5336 5.86279 14.9662 5.4458 14.3373 5.11768C13.7084 4.78955 13.0453 4.56396 12.3481 4.44092C12.184 4.41357 12.0336 4.44775 11.8969 4.54346C11.7602 4.63916 11.6781 4.76904 11.6508 4.93311C11.6235 5.0835 11.6542 5.22705 11.7431 5.36377C11.832 5.50049 11.9584 5.58252 12.1225 5.60986ZM21.7612 9.896C21.6655 9.30811 21.5219 8.74072 21.3305 8.19385C21.1528 7.64697 20.9306 7.11719 20.664 6.60449C20.3974 6.0918 20.0932 5.59619 19.7514 5.11768C19.3959 4.65283 19.0131 4.2085 18.603 3.78467C18.1791 3.37451 17.7348 2.99854 17.2699 2.65674C16.7914 2.30127 16.2958 1.99365 15.7831 1.73389C15.2704 1.47412 14.7406 1.24854 14.1938 1.05713C13.6469 0.879395 13.0864 0.73584 12.5121 0.626465C12.3481 0.599121 12.1977 0.633301 12.061 0.729004C11.9242 0.824707 11.8422 0.95459 11.8149 1.11865C11.7875 1.28271 11.8217 1.43311 11.9174 1.56982C12.0131 1.70654 12.143 1.78857 12.3071 1.81592C13.3461 1.99365 14.3271 2.32178 15.2499 2.80029C16.1728 3.27881 17.0102 3.89404 17.7621 4.646C18.5141 5.38428 19.1293 6.21826 19.6078 7.14795C20.0864 8.07764 20.4076 9.05518 20.5717 10.0806C20.599 10.231 20.6708 10.3506 20.787 10.4395C20.9032 10.5283 21.0297 10.5728 21.1664 10.5728C21.1938 10.5728 21.2143 10.5728 21.228 10.5728C21.2416 10.5728 21.2553 10.5728 21.269 10.5728C21.433 10.5454 21.5629 10.4634 21.6586 10.3267C21.7543 10.1899 21.7885 10.0464 21.7612 9.896Z" fill="white"/>
</svg>
