<svg width="12" height="19" viewBox="0 0 12 19" fill="none" xmlns="http://www.w3.org/2000/svg">
<path d="M9.707 0.238525C9.507 0.238525 9.31116 0.280191 9.1195 0.363525C8.92783 0.446859 8.77366 0.546858 8.657 0.663525L1.25699 8.16353C0.990328 8.43019 0.856995 8.80936 0.856995 9.30103C0.856995 9.79269 0.990328 10.1719 1.25699 10.4385L8.657 18.4635C8.84033 18.6469 9.01116 18.7802 9.1695 18.8635C9.32783 18.9469 9.507 18.9885 9.707 18.9885C10.1903 18.9885 10.5737 18.8469 10.857 18.5635C11.007 18.4135 11.132 18.2344 11.232 18.026C11.332 17.8177 11.382 17.6135 11.382 17.4135C11.382 16.9302 11.207 16.5552 10.857 16.2885L4.50699 9.28853L10.857 2.73853C11.1237 2.47186 11.257 2.15519 11.257 1.78852C11.257 1.30519 11.1237 0.930191 10.857 0.663525C10.6403 0.496859 10.4487 0.384359 10.282 0.326025C10.1153 0.267693 9.92366 0.238525 9.707 0.238525Z" fill="white"/>
</svg>
