<svg width="12" height="19" viewBox="0 0 12 19" fill="none" xmlns="http://www.w3.org/2000/svg">
<path d="M11.037 10.4385C11.3203 10.1552 11.462 9.77186 11.462 9.28853C11.462 9.07186 11.4286 8.87186 11.362 8.68853C11.2953 8.50519 11.187 8.36353 11.037 8.26353L3.63698 0.763525C3.47031 0.596859 3.29948 0.467691 3.12448 0.376024C2.94948 0.284359 2.73698 0.238525 2.48698 0.238525C2.07031 0.238525 1.72864 0.380192 1.46198 0.663525C1.29531 0.813524 1.16614 0.988525 1.07448 1.18852C0.982808 1.38853 0.936975 1.58853 0.936975 1.78852C0.936975 2.28852 1.07031 2.67186 1.33698 2.93852L7.71198 9.41353L1.23698 16.3885C0.970308 16.6552 0.836975 17.0385 0.836975 17.5385C0.836975 17.9385 1.00364 18.3219 1.33698 18.6885C1.67031 18.8885 2.05364 18.9885 2.48698 18.9885C2.70364 18.9885 2.91198 18.9427 3.11198 18.851C3.31198 18.7594 3.48698 18.6302 3.63698 18.4635L11.037 10.4385Z" fill="white"/>
</svg>
