<svg width="9" height="16" viewBox="0 0 9 16" fill="none" xmlns="http://www.w3.org/2000/svg">
<path d="M8.16 8.93979C8.38667 8.71312 8.5 8.40645 8.5 8.01979C8.5 7.84645 8.47333 7.68645 8.42 7.53979C8.36667 7.39312 8.28 7.27979 8.16 7.19979L2.24 1.19979C2.10667 1.06645 1.97 0.963119 1.83 0.889785C1.69 0.816452 1.52 0.779785 1.32 0.779785C0.986667 0.779785 0.713333 0.893119 0.5 1.11979C0.366667 1.23979 0.263333 1.37979 0.19 1.53979C0.116667 1.69979 0.08 1.85979 0.08 2.01979C0.08 2.41979 0.186667 2.72645 0.4 2.93979L5.5 8.11979L0.32 13.6998C0.106667 13.9131 0 14.2198 0 14.6198C0 14.9398 0.133333 15.2465 0.4 15.5398C0.666667 15.6998 0.973333 15.7798 1.32 15.7798C1.49333 15.7798 1.66 15.7431 1.82 15.6698C1.98 15.5965 2.12 15.4931 2.24 15.3598L8.16 8.93979Z" fill="#F77F00"/>
</svg>
