<svg width="9" height="16" viewBox="0 0 9 16" fill="none" xmlns="http://www.w3.org/2000/svg">
<path d="M7.08 0.5C6.92 0.5 6.76333 0.533334 6.61 0.6C6.45667 0.666667 6.33333 0.746667 6.24 0.84L0.32 6.84C0.106667 7.05333 0 7.35667 0 7.75C0 8.14333 0.106667 8.44667 0.32 8.66L6.24 15.08C6.38667 15.2267 6.52333 15.3333 6.65 15.4C6.77667 15.4667 6.92 15.5 7.08 15.5C7.46667 15.5 7.77333 15.3867 8 15.16C8.12 15.04 8.22 14.8967 8.3 14.73C8.38 14.5633 8.42 14.4 8.42 14.24C8.42 13.8533 8.28 13.5533 8 13.34L2.92 7.74L8 2.5C8.21333 2.28667 8.32 2.03333 8.32 1.74C8.32 1.35333 8.21333 1.05333 8 0.84C7.82667 0.706667 7.67333 0.616667 7.54 0.57C7.40667 0.523334 7.25333 0.5 7.08 0.5Z" fill="#F77F00"/>
</svg>
